<mxfile host="app.diagrams.net" modified="2024-08-14T13:48:37.519Z" agent="Mozilla/5.0 (Windows NT 10.0; Win64; x64) AppleWebKit/537.36 (KHTML, like Gecko) Chrome/127.0.0.0 Safari/537.36" etag="gmvK3_7cfr7HsAnfXUET" version="24.7.1" type="github">
  <diagram name="Page-1" id="19d8dcba-68ad-dc05-1034-9cf7b2a963f6">
    <mxGraphModel dx="1035" dy="511" grid="1" gridSize="10" guides="1" tooltips="1" connect="1" arrows="1" fold="1" page="1" pageScale="1" pageWidth="1100" pageHeight="850" background="none" math="0" shadow="0">
      <root>
        <mxCell id="0" />
        <mxCell id="1" parent="0" />
        <mxCell id="218ae93e1282097f-12" value="" style="whiteSpace=wrap;html=1;rounded=1;shadow=0;comic=0;strokeWidth=2;fontFamily=Verdana;align=center;fontSize=10;" parent="1" vertex="1">
          <mxGeometry x="70" y="440" width="300" height="130" as="geometry" />
        </mxCell>
        <mxCell id="218ae93e1282097f-13" value="Name" style="shape=actor;whiteSpace=wrap;html=1;rounded=0;shadow=0;comic=0;strokeWidth=1;fillColor=#CCCCCC;fontFamily=Verdana;align=center;strokeColor=none;labelPosition=center;verticalLabelPosition=bottom;verticalAlign=top;fontSize=10;" parent="1" vertex="1">
          <mxGeometry x="112" y="450" width="24" height="30" as="geometry" />
        </mxCell>
        <mxCell id="218ae93e1282097f-16" value="Name" style="shape=actor;whiteSpace=wrap;html=1;rounded=0;shadow=0;comic=0;strokeWidth=1;fillColor=#CCCCCC;fontFamily=Verdana;align=center;strokeColor=none;labelPosition=center;verticalLabelPosition=bottom;verticalAlign=top;fontSize=10;" parent="1" vertex="1">
          <mxGeometry x="205" y="450" width="24" height="30" as="geometry" />
        </mxCell>
        <mxCell id="218ae93e1282097f-17" value="Name" style="shape=actor;whiteSpace=wrap;html=1;rounded=0;shadow=0;comic=0;strokeWidth=1;fillColor=#CCCCCC;fontFamily=Verdana;align=center;strokeColor=none;labelPosition=center;verticalLabelPosition=bottom;verticalAlign=top;fontSize=10;" parent="1" vertex="1">
          <mxGeometry x="310" y="450" width="24" height="30" as="geometry" />
        </mxCell>
        <mxCell id="218ae93e1282097f-19" value="" style="whiteSpace=wrap;html=1;rounded=1;shadow=0;comic=0;strokeWidth=2;fontFamily=Verdana;align=center;fontSize=10;" parent="1" vertex="1">
          <mxGeometry x="420" y="440" width="340" height="130" as="geometry" />
        </mxCell>
        <mxCell id="218ae93e1282097f-21" value="Name" style="shape=actor;whiteSpace=wrap;html=1;rounded=0;shadow=0;comic=0;strokeWidth=1;fillColor=#CCCCCC;fontFamily=Verdana;align=center;strokeColor=none;labelPosition=center;verticalLabelPosition=bottom;verticalAlign=top;fontSize=10;" parent="1" vertex="1">
          <mxGeometry x="578" y="450" width="24" height="30" as="geometry" />
        </mxCell>
        <mxCell id="218ae93e1282097f-23" value="Name" style="shape=actor;whiteSpace=wrap;html=1;rounded=0;shadow=0;comic=0;strokeWidth=1;fillColor=#CCCCCC;fontFamily=Verdana;align=center;strokeColor=none;labelPosition=center;verticalLabelPosition=bottom;verticalAlign=top;fontSize=10;" parent="1" vertex="1">
          <mxGeometry x="678" y="450" width="24" height="30" as="geometry" />
        </mxCell>
        <mxCell id="218ae93e1282097f-24" value="" style="whiteSpace=wrap;html=1;rounded=1;shadow=0;comic=0;strokeWidth=2;fontFamily=Verdana;align=center;fontSize=10;" parent="1" vertex="1">
          <mxGeometry x="876" y="440" width="223" height="130" as="geometry" />
        </mxCell>
        <mxCell id="218ae93e1282097f-25" value="Name" style="shape=actor;whiteSpace=wrap;html=1;rounded=0;shadow=0;comic=0;strokeWidth=1;fillColor=#CCCCCC;fontFamily=Verdana;align=center;strokeColor=none;labelPosition=center;verticalLabelPosition=bottom;verticalAlign=top;fontSize=10;" parent="1" vertex="1">
          <mxGeometry x="925" y="450" width="24" height="30" as="geometry" />
        </mxCell>
        <mxCell id="218ae93e1282097f-27" value="Name" style="shape=actor;whiteSpace=wrap;html=1;rounded=0;shadow=0;comic=0;strokeWidth=1;fillColor=#CCCCCC;fontFamily=Verdana;align=center;strokeColor=none;labelPosition=center;verticalLabelPosition=bottom;verticalAlign=top;fontSize=10;" parent="1" vertex="1">
          <mxGeometry x="1025" y="450" width="24" height="30" as="geometry" />
        </mxCell>
        <mxCell id="218ae93e1282097f-29" value="" style="whiteSpace=wrap;html=1;rounded=1;shadow=0;comic=0;strokeWidth=2;fontFamily=Verdana;align=center;fontSize=10;" parent="1" vertex="1">
          <mxGeometry x="1197" y="440" width="300" height="130" as="geometry" />
        </mxCell>
        <mxCell id="218ae93e1282097f-34" value="" style="whiteSpace=wrap;html=1;rounded=1;shadow=0;comic=0;strokeWidth=2;fontFamily=Verdana;align=center;fontSize=10;" parent="1" vertex="1">
          <mxGeometry x="1600" y="440" width="410" height="130" as="geometry" />
        </mxCell>
        <mxCell id="218ae93e1282097f-35" value="Name" style="shape=actor;whiteSpace=wrap;html=1;rounded=0;shadow=0;comic=0;strokeWidth=1;fillColor=#CCCCCC;fontFamily=Verdana;align=center;strokeColor=none;labelPosition=center;verticalLabelPosition=bottom;verticalAlign=top;fontSize=10;" parent="1" vertex="1">
          <mxGeometry x="1643" y="450" width="24" height="30" as="geometry" />
        </mxCell>
        <mxCell id="218ae93e1282097f-37" value="Name" style="shape=actor;whiteSpace=wrap;html=1;rounded=0;shadow=0;comic=0;strokeWidth=1;fillColor=#CCCCCC;fontFamily=Verdana;align=center;strokeColor=none;labelPosition=center;verticalLabelPosition=bottom;verticalAlign=top;fontSize=10;" parent="1" vertex="1">
          <mxGeometry x="1743" y="450" width="24" height="30" as="geometry" />
        </mxCell>
        <mxCell id="218ae93e1282097f-38" value="Name" style="shape=actor;whiteSpace=wrap;html=1;rounded=0;shadow=0;comic=0;strokeWidth=1;fillColor=#CCCCCC;fontFamily=Verdana;align=center;strokeColor=none;labelPosition=center;verticalLabelPosition=bottom;verticalAlign=top;fontSize=10;" parent="1" vertex="1">
          <mxGeometry x="1843" y="450" width="24" height="30" as="geometry" />
        </mxCell>
        <mxCell id="218ae93e1282097f-39" value="Name" style="shape=actor;whiteSpace=wrap;html=1;rounded=0;shadow=0;comic=0;strokeWidth=1;fillColor=#CCCCCC;fontFamily=Verdana;align=center;strokeColor=none;labelPosition=center;verticalLabelPosition=bottom;verticalAlign=top;fontSize=10;" parent="1" vertex="1">
          <mxGeometry x="478" y="450" width="24" height="30" as="geometry" />
        </mxCell>
        <mxCell id="218ae93e1282097f-41" value="Name" style="shape=actor;whiteSpace=wrap;html=1;rounded=0;shadow=0;comic=0;strokeWidth=1;fillColor=#CCCCCC;fontFamily=Verdana;align=center;strokeColor=none;labelPosition=center;verticalLabelPosition=bottom;verticalAlign=top;fontSize=10;" parent="1" vertex="1">
          <mxGeometry x="1943" y="450" width="24" height="30" as="geometry" />
        </mxCell>
        <mxCell id="218ae93e1282097f-42" value="" style="edgeStyle=orthogonalEdgeStyle;rounded=1;html=1;labelBackgroundColor=none;endArrow=block;endFill=1;strokeColor=#4D4D4D;strokeWidth=2;fontFamily=Verdana;fontSize=12;fontStyle=1" parent="1" source="6257edae8c83ed4a-1" target="6257edae8c83ed4a-12" edge="1">
          <mxGeometry relative="1" as="geometry" />
        </mxCell>
        <mxCell id="218ae93e1282097f-49" value="" style="edgeStyle=elbowEdgeStyle;rounded=1;html=1;labelBackgroundColor=none;endArrow=block;endFill=1;strokeColor=#4D4D4D;strokeWidth=2;fontFamily=Verdana;fontSize=10;" parent="1" source="218ae93e1282097f-5" target="218ae93e1282097f-34" edge="1">
          <mxGeometry relative="1" as="geometry" />
        </mxCell>
        <mxCell id="218ae93e1282097f-50" value="" style="edgeStyle=orthogonalEdgeStyle;rounded=1;html=1;labelBackgroundColor=none;endArrow=block;endFill=1;strokeColor=#4D4D4D;strokeWidth=2;fontFamily=Verdana;fontSize=10;" parent="1" source="6257edae8c83ed4a-24" target="218ae93e1282097f-29" edge="1">
          <mxGeometry relative="1" as="geometry" />
        </mxCell>
        <mxCell id="218ae93e1282097f-51" value="" style="edgeStyle=elbowEdgeStyle;rounded=1;html=1;labelBackgroundColor=none;endArrow=block;endFill=1;strokeColor=#4D4D4D;strokeWidth=2;fontFamily=Verdana;fontSize=10;" parent="1" source="6257edae8c83ed4a-12" target="218ae93e1282097f-24" edge="1">
          <mxGeometry relative="1" as="geometry" />
        </mxCell>
        <mxCell id="218ae93e1282097f-52" value="" style="edgeStyle=elbowEdgeStyle;rounded=1;html=1;labelBackgroundColor=none;endArrow=block;endFill=1;strokeColor=#4D4D4D;strokeWidth=2;fontFamily=Verdana;fontSize=10;" parent="1" source="6257edae8c83ed4a-21" target="218ae93e1282097f-19" edge="1">
          <mxGeometry relative="1" as="geometry" />
        </mxCell>
        <mxCell id="218ae93e1282097f-53" value="" style="edgeStyle=elbowEdgeStyle;rounded=1;html=1;labelBackgroundColor=none;endArrow=block;endFill=1;strokeColor=#4D4D4D;strokeWidth=2;fontFamily=Verdana;fontSize=10;" parent="1" source="218ae93e1282097f-8" target="218ae93e1282097f-12" edge="1">
          <mxGeometry relative="1" as="geometry" />
        </mxCell>
        <mxCell id="218ae93e1282097f-55" value="Position 1" style="text;html=1;strokeColor=none;fillColor=none;align=center;verticalAlign=middle;whiteSpace=wrap;rounded=1;shadow=0;comic=0;fontFamily=Verdana;fontSize=10;" parent="1" vertex="1">
          <mxGeometry x="75" y="505" width="90" height="25" as="geometry" />
        </mxCell>
        <mxCell id="218ae93e1282097f-56" value="Position 1" style="text;html=1;strokeColor=none;fillColor=none;align=center;verticalAlign=middle;whiteSpace=wrap;rounded=1;shadow=0;comic=0;fontFamily=Verdana;fontSize=10;" parent="1" vertex="1">
          <mxGeometry x="175" y="505" width="90" height="25" as="geometry" />
        </mxCell>
        <mxCell id="218ae93e1282097f-57" value="Position 1" style="text;html=1;strokeColor=none;fillColor=none;align=center;verticalAlign=middle;whiteSpace=wrap;rounded=1;shadow=0;comic=0;fontFamily=Verdana;fontSize=10;" parent="1" vertex="1">
          <mxGeometry x="275" y="505" width="90" height="25" as="geometry" />
        </mxCell>
        <mxCell id="218ae93e1282097f-58" value="Position 2" style="text;html=1;strokeColor=none;fillColor=none;align=center;verticalAlign=middle;whiteSpace=wrap;rounded=1;shadow=0;comic=0;fontFamily=Verdana;fontSize=10;" parent="1" vertex="1">
          <mxGeometry x="75" y="540" width="90" height="25" as="geometry" />
        </mxCell>
        <mxCell id="218ae93e1282097f-59" value="Position 2" style="text;html=1;strokeColor=none;fillColor=none;align=center;verticalAlign=middle;whiteSpace=wrap;rounded=1;shadow=0;comic=0;fontFamily=Verdana;fontSize=10;" parent="1" vertex="1">
          <mxGeometry x="175" y="540" width="90" height="25" as="geometry" />
        </mxCell>
        <mxCell id="218ae93e1282097f-60" value="Position 3" style="text;html=1;strokeColor=none;fillColor=none;align=center;verticalAlign=middle;whiteSpace=wrap;rounded=1;shadow=0;comic=0;fontFamily=Verdana;fontSize=10;" parent="1" vertex="1">
          <mxGeometry x="275" y="540" width="90" height="25" as="geometry" />
        </mxCell>
        <mxCell id="218ae93e1282097f-61" value="Position 1" style="text;html=1;strokeColor=none;fillColor=none;align=center;verticalAlign=middle;whiteSpace=wrap;rounded=1;shadow=0;comic=0;fontFamily=Verdana;fontSize=10;" parent="1" vertex="1">
          <mxGeometry x="445" y="505" width="90" height="25" as="geometry" />
        </mxCell>
        <mxCell id="218ae93e1282097f-62" value="Position 1" style="text;html=1;strokeColor=none;fillColor=none;align=center;verticalAlign=middle;whiteSpace=wrap;rounded=1;shadow=0;comic=0;fontFamily=Verdana;fontSize=10;" parent="1" vertex="1">
          <mxGeometry x="545" y="505" width="90" height="25" as="geometry" />
        </mxCell>
        <mxCell id="218ae93e1282097f-63" value="Position 1" style="text;html=1;strokeColor=none;fillColor=none;align=center;verticalAlign=middle;whiteSpace=wrap;rounded=1;shadow=0;comic=0;fontFamily=Verdana;fontSize=10;" parent="1" vertex="1">
          <mxGeometry x="645" y="505" width="90" height="25" as="geometry" />
        </mxCell>
        <mxCell id="218ae93e1282097f-64" value="Position 2" style="text;html=1;strokeColor=none;fillColor=none;align=center;verticalAlign=middle;whiteSpace=wrap;rounded=1;shadow=0;comic=0;fontFamily=Verdana;fontSize=10;" parent="1" vertex="1">
          <mxGeometry x="445" y="540" width="90" height="25" as="geometry" />
        </mxCell>
        <mxCell id="218ae93e1282097f-65" value="Position 2" style="text;html=1;strokeColor=none;fillColor=none;align=center;verticalAlign=middle;whiteSpace=wrap;rounded=1;shadow=0;comic=0;fontFamily=Verdana;fontSize=10;" parent="1" vertex="1">
          <mxGeometry x="545" y="540" width="90" height="25" as="geometry" />
        </mxCell>
        <mxCell id="218ae93e1282097f-66" value="Position 3" style="text;html=1;strokeColor=none;fillColor=none;align=center;verticalAlign=middle;whiteSpace=wrap;rounded=1;shadow=0;comic=0;fontFamily=Verdana;fontSize=10;" parent="1" vertex="1">
          <mxGeometry x="645" y="540" width="90" height="25" as="geometry" />
        </mxCell>
        <mxCell id="218ae93e1282097f-67" value="Position 1" style="text;html=1;strokeColor=none;fillColor=none;align=center;verticalAlign=middle;whiteSpace=wrap;rounded=1;shadow=0;comic=0;fontFamily=Verdana;fontSize=10;" parent="1" vertex="1">
          <mxGeometry x="892" y="505" width="90" height="25" as="geometry" />
        </mxCell>
        <mxCell id="218ae93e1282097f-68" value="Position 1" style="text;html=1;strokeColor=none;fillColor=none;align=center;verticalAlign=middle;whiteSpace=wrap;rounded=1;shadow=0;comic=0;fontFamily=Verdana;fontSize=10;" parent="1" vertex="1">
          <mxGeometry x="992" y="505" width="90" height="25" as="geometry" />
        </mxCell>
        <mxCell id="218ae93e1282097f-69" value="Position 2" style="text;html=1;strokeColor=none;fillColor=none;align=center;verticalAlign=middle;whiteSpace=wrap;rounded=1;shadow=0;comic=0;fontFamily=Verdana;fontSize=10;" parent="1" vertex="1">
          <mxGeometry x="892" y="540" width="90" height="25" as="geometry" />
        </mxCell>
        <mxCell id="218ae93e1282097f-70" value="Position 2" style="text;html=1;strokeColor=none;fillColor=none;align=center;verticalAlign=middle;whiteSpace=wrap;rounded=1;shadow=0;comic=0;fontFamily=Verdana;fontSize=10;" parent="1" vertex="1">
          <mxGeometry x="992" y="540" width="90" height="25" as="geometry" />
        </mxCell>
        <mxCell id="218ae93e1282097f-71" value="Name" style="shape=actor;whiteSpace=wrap;html=1;rounded=0;shadow=0;comic=0;strokeWidth=1;fillColor=#CCCCCC;fontFamily=Verdana;align=center;strokeColor=none;labelPosition=center;verticalLabelPosition=bottom;verticalAlign=top;fontSize=10;" parent="1" vertex="1">
          <mxGeometry x="1327" y="450" width="24" height="30" as="geometry" />
        </mxCell>
        <mxCell id="218ae93e1282097f-72" value="Name" style="shape=actor;whiteSpace=wrap;html=1;rounded=0;shadow=0;comic=0;strokeWidth=1;fillColor=#CCCCCC;fontFamily=Verdana;align=center;strokeColor=none;labelPosition=center;verticalLabelPosition=bottom;verticalAlign=top;fontSize=10;" parent="1" vertex="1">
          <mxGeometry x="1435" y="450" width="24" height="30" as="geometry" />
        </mxCell>
        <mxCell id="218ae93e1282097f-73" value="Name" style="shape=actor;whiteSpace=wrap;html=1;rounded=0;shadow=0;comic=0;strokeWidth=1;fillColor=#CCCCCC;fontFamily=Verdana;align=center;strokeColor=none;labelPosition=center;verticalLabelPosition=bottom;verticalAlign=top;fontSize=10;" parent="1" vertex="1">
          <mxGeometry x="1235" y="450" width="24" height="30" as="geometry" />
        </mxCell>
        <mxCell id="218ae93e1282097f-74" value="Position 1" style="text;html=1;strokeColor=none;fillColor=none;align=center;verticalAlign=middle;whiteSpace=wrap;rounded=1;shadow=0;comic=0;fontFamily=Verdana;fontSize=10;" parent="1" vertex="1">
          <mxGeometry x="1202" y="505" width="90" height="25" as="geometry" />
        </mxCell>
        <mxCell id="218ae93e1282097f-75" value="Position 1" style="text;html=1;strokeColor=none;fillColor=none;align=center;verticalAlign=middle;whiteSpace=wrap;rounded=1;shadow=0;comic=0;fontFamily=Verdana;fontSize=10;" parent="1" vertex="1">
          <mxGeometry x="1302" y="505" width="90" height="25" as="geometry" />
        </mxCell>
        <mxCell id="218ae93e1282097f-76" value="Position 1" style="text;html=1;strokeColor=none;fillColor=none;align=center;verticalAlign=middle;whiteSpace=wrap;rounded=1;shadow=0;comic=0;fontFamily=Verdana;fontSize=10;" parent="1" vertex="1">
          <mxGeometry x="1402" y="505" width="90" height="25" as="geometry" />
        </mxCell>
        <mxCell id="218ae93e1282097f-77" value="Position 2" style="text;html=1;strokeColor=none;fillColor=none;align=center;verticalAlign=middle;whiteSpace=wrap;rounded=1;shadow=0;comic=0;fontFamily=Verdana;fontSize=10;" parent="1" vertex="1">
          <mxGeometry x="1202" y="540" width="90" height="25" as="geometry" />
        </mxCell>
        <mxCell id="218ae93e1282097f-78" value="Position 2" style="text;html=1;strokeColor=none;fillColor=none;align=center;verticalAlign=middle;whiteSpace=wrap;rounded=1;shadow=0;comic=0;fontFamily=Verdana;fontSize=10;" parent="1" vertex="1">
          <mxGeometry x="1302" y="540" width="90" height="25" as="geometry" />
        </mxCell>
        <mxCell id="218ae93e1282097f-79" value="Position 3" style="text;html=1;strokeColor=none;fillColor=none;align=center;verticalAlign=middle;whiteSpace=wrap;rounded=1;shadow=0;comic=0;fontFamily=Verdana;fontSize=10;" parent="1" vertex="1">
          <mxGeometry x="1402" y="540" width="90" height="25" as="geometry" />
        </mxCell>
        <mxCell id="218ae93e1282097f-80" value="Position 1" style="text;html=1;strokeColor=none;fillColor=none;align=center;verticalAlign=middle;whiteSpace=wrap;rounded=1;shadow=0;comic=0;fontFamily=Verdana;fontSize=10;" parent="1" vertex="1">
          <mxGeometry x="1610" y="505" width="90" height="25" as="geometry" />
        </mxCell>
        <mxCell id="218ae93e1282097f-81" value="Position 1" style="text;html=1;strokeColor=none;fillColor=none;align=center;verticalAlign=middle;whiteSpace=wrap;rounded=1;shadow=0;comic=0;fontFamily=Verdana;fontSize=10;" parent="1" vertex="1">
          <mxGeometry x="1710" y="505" width="90" height="25" as="geometry" />
        </mxCell>
        <mxCell id="218ae93e1282097f-82" value="Position 1" style="text;html=1;strokeColor=none;fillColor=none;align=center;verticalAlign=middle;whiteSpace=wrap;rounded=1;shadow=0;comic=0;fontFamily=Verdana;fontSize=10;" parent="1" vertex="1">
          <mxGeometry x="1810" y="505" width="90" height="25" as="geometry" />
        </mxCell>
        <mxCell id="218ae93e1282097f-83" value="Position 2" style="text;html=1;strokeColor=none;fillColor=none;align=center;verticalAlign=middle;whiteSpace=wrap;rounded=1;shadow=0;comic=0;fontFamily=Verdana;fontSize=10;" parent="1" vertex="1">
          <mxGeometry x="1610" y="540" width="90" height="25" as="geometry" />
        </mxCell>
        <mxCell id="218ae93e1282097f-84" value="Position 2" style="text;html=1;strokeColor=none;fillColor=none;align=center;verticalAlign=middle;whiteSpace=wrap;rounded=1;shadow=0;comic=0;fontFamily=Verdana;fontSize=10;" parent="1" vertex="1">
          <mxGeometry x="1710" y="540" width="90" height="25" as="geometry" />
        </mxCell>
        <mxCell id="218ae93e1282097f-85" value="Position 3" style="text;html=1;strokeColor=none;fillColor=none;align=center;verticalAlign=middle;whiteSpace=wrap;rounded=1;shadow=0;comic=0;fontFamily=Verdana;fontSize=10;" parent="1" vertex="1">
          <mxGeometry x="1810" y="540" width="90" height="25" as="geometry" />
        </mxCell>
        <mxCell id="218ae93e1282097f-86" value="Position 1" style="text;html=1;strokeColor=none;fillColor=none;align=center;verticalAlign=middle;whiteSpace=wrap;rounded=1;shadow=0;comic=0;fontFamily=Verdana;fontSize=10;" parent="1" vertex="1">
          <mxGeometry x="1910" y="505" width="90" height="25" as="geometry" />
        </mxCell>
        <mxCell id="218ae93e1282097f-87" value="Position 3" style="text;html=1;strokeColor=none;fillColor=none;align=center;verticalAlign=middle;whiteSpace=wrap;rounded=1;shadow=0;comic=0;fontFamily=Verdana;fontSize=10;" parent="1" vertex="1">
          <mxGeometry x="1910" y="540" width="90" height="25" as="geometry" />
        </mxCell>
        <mxCell id="218ae93e1282097f-8" value="&lt;span&gt;Name&lt;/span&gt;&lt;div&gt;&lt;span style=&quot;font-weight: normal&quot;&gt;Position&lt;/span&gt;&lt;/div&gt;" style="whiteSpace=wrap;html=1;rounded=1;shadow=0;comic=0;strokeWidth=2;fontFamily=Verdana;align=center;fontSize=12;fontStyle=1" parent="1" vertex="1">
          <mxGeometry x="144" y="330" width="200" height="50" as="geometry" />
        </mxCell>
        <mxCell id="218ae93e1282097f-9" value="" style="shape=actor;whiteSpace=wrap;html=1;rounded=0;shadow=0;comic=0;strokeWidth=1;fillColor=#CCCCCC;fontFamily=Verdana;align=center;strokeColor=none;fontSize=12;fontStyle=1" parent="1" vertex="1">
          <mxGeometry x="158" y="340" width="24" height="30" as="geometry" />
        </mxCell>
        <mxCell id="6257edae8c83ed4a-9" value="Name&lt;div&gt;&lt;span&gt;Position&lt;/span&gt;&lt;/div&gt;" style="whiteSpace=wrap;html=1;rounded=1;shadow=0;comic=0;strokeWidth=2;fontFamily=Verdana;align=center;fontSize=12;fontStyle=1" parent="1" vertex="1">
          <mxGeometry x="526" y="210" width="200" height="50" as="geometry" />
        </mxCell>
        <mxCell id="6257edae8c83ed4a-10" value="" style="shape=actor;whiteSpace=wrap;html=1;rounded=0;shadow=0;comic=0;strokeWidth=1;fillColor=#CCCCCC;fontFamily=Verdana;align=center;strokeColor=none;fontSize=12;fontStyle=1" parent="1" vertex="1">
          <mxGeometry x="540" y="220" width="24" height="30" as="geometry" />
        </mxCell>
        <mxCell id="6257edae8c83ed4a-21" value="Name&lt;div&gt;&lt;span&gt;Position&lt;/span&gt;&lt;/div&gt;" style="whiteSpace=wrap;html=1;rounded=1;shadow=0;comic=0;strokeWidth=2;fontFamily=Verdana;align=center;fontSize=12;fontStyle=1" parent="1" vertex="1">
          <mxGeometry x="524" y="330" width="200" height="50" as="geometry" />
        </mxCell>
        <mxCell id="6257edae8c83ed4a-22" value="" style="shape=actor;whiteSpace=wrap;html=1;rounded=0;shadow=0;comic=0;strokeWidth=1;fillColor=#CCCCCC;fontFamily=Verdana;align=center;strokeColor=none;fontSize=12;fontStyle=1" parent="1" vertex="1">
          <mxGeometry x="538" y="340" width="24" height="30" as="geometry" />
        </mxCell>
        <mxCell id="6257edae8c83ed4a-12" value="Name&lt;div&gt;&lt;span&gt;Position&lt;/span&gt;&lt;/div&gt;" style="whiteSpace=wrap;html=1;rounded=1;shadow=0;comic=0;strokeWidth=2;fontFamily=Verdana;align=center;fontSize=12;fontStyle=1" parent="1" vertex="1">
          <mxGeometry x="887" y="330" width="200" height="50" as="geometry" />
        </mxCell>
        <mxCell id="6257edae8c83ed4a-13" value="" style="shape=actor;whiteSpace=wrap;html=1;rounded=0;shadow=0;comic=0;strokeWidth=1;fillColor=#CCCCCC;fontFamily=Verdana;align=center;strokeColor=none;fontSize=12;fontStyle=1" parent="1" vertex="1">
          <mxGeometry x="901" y="340" width="24" height="30" as="geometry" />
        </mxCell>
        <mxCell id="6257edae8c83ed4a-1" value="&lt;div&gt;&lt;span&gt;Afifah&lt;/span&gt;&lt;/div&gt;&lt;div&gt;ketua&lt;/div&gt;" style="whiteSpace=wrap;html=1;rounded=1;shadow=0;comic=0;strokeWidth=2;fontFamily=Verdana;align=center;fontSize=12;fontStyle=1" parent="1" vertex="1">
          <mxGeometry x="887" y="140" width="200" height="50" as="geometry" />
        </mxCell>
        <mxCell id="6257edae8c83ed4a-2" value="" style="shape=actor;whiteSpace=wrap;html=1;rounded=0;shadow=0;comic=0;strokeWidth=1;fillColor=none;fontFamily=Verdana;align=center;fontSize=12;fontStyle=1" parent="1" vertex="1">
          <mxGeometry x="1040" y="80" width="24" height="30" as="geometry" />
        </mxCell>
        <mxCell id="218ae93e1282097f-2" value="Name&lt;div&gt;&lt;span&gt;Position&lt;/span&gt;&lt;/div&gt;" style="whiteSpace=wrap;html=1;rounded=1;shadow=0;comic=0;strokeWidth=2;fontFamily=Verdana;align=center;fontSize=12;fontStyle=1" parent="1" vertex="1">
          <mxGeometry x="1247" y="210" width="200" height="50" as="geometry" />
        </mxCell>
        <mxCell id="218ae93e1282097f-3" value="" style="shape=actor;whiteSpace=wrap;html=1;rounded=0;shadow=0;comic=0;strokeWidth=1;fillColor=#CCCCCC;fontFamily=Verdana;align=center;strokeColor=none;fontSize=12;fontStyle=1" parent="1" vertex="1">
          <mxGeometry x="1261" y="220" width="24" height="30" as="geometry" />
        </mxCell>
        <mxCell id="6257edae8c83ed4a-24" value="Name&lt;div&gt;&lt;span&gt;Position&lt;/span&gt;&lt;/div&gt;" style="whiteSpace=wrap;html=1;rounded=1;shadow=0;comic=0;strokeWidth=2;fontFamily=Verdana;align=center;fontSize=12;fontStyle=1" parent="1" vertex="1">
          <mxGeometry x="1247" y="330" width="200" height="50" as="geometry" />
        </mxCell>
        <mxCell id="6257edae8c83ed4a-25" value="" style="shape=actor;whiteSpace=wrap;html=1;rounded=0;shadow=0;comic=0;strokeWidth=1;fillColor=#CCCCCC;fontFamily=Verdana;align=center;strokeColor=none;fontSize=12;fontStyle=1" parent="1" vertex="1">
          <mxGeometry x="1261" y="340" width="24" height="30" as="geometry" />
        </mxCell>
        <mxCell id="218ae93e1282097f-5" value="Name&lt;div&gt;&lt;span&gt;Position&lt;/span&gt;&lt;/div&gt;" style="whiteSpace=wrap;html=1;rounded=1;shadow=0;comic=0;strokeWidth=2;fontFamily=Verdana;align=center;fontSize=12;fontStyle=1" parent="1" vertex="1">
          <mxGeometry x="1637" y="330" width="200" height="50" as="geometry" />
        </mxCell>
        <mxCell id="218ae93e1282097f-6" value="" style="shape=actor;whiteSpace=wrap;html=1;rounded=0;shadow=0;comic=0;strokeWidth=1;fillColor=#CCCCCC;fontFamily=Verdana;align=center;strokeColor=none;fontSize=12;fontStyle=1" parent="1" vertex="1">
          <mxGeometry x="1651" y="340" width="24" height="30" as="geometry" />
        </mxCell>
        <mxCell id="T1TktDtEVWjAW5VJw7rT-8" value="" style="endArrow=classic;startArrow=classic;html=1;rounded=0;entryX=0;entryY=0.5;entryDx=0;entryDy=0;exitX=1;exitY=0.5;exitDx=0;exitDy=0;" edge="1" parent="1" source="6257edae8c83ed4a-9" target="218ae93e1282097f-2">
          <mxGeometry width="50" height="50" relative="1" as="geometry">
            <mxPoint x="1000" y="510" as="sourcePoint" />
            <mxPoint x="1050" y="460" as="targetPoint" />
          </mxGeometry>
        </mxCell>
        <mxCell id="T1TktDtEVWjAW5VJw7rT-9" value="" style="edgeStyle=elbowEdgeStyle;rounded=1;html=1;labelBackgroundColor=none;endArrow=block;endFill=1;strokeColor=#4D4D4D;strokeWidth=2;fontFamily=Verdana;fontSize=10;elbow=vertical;entryX=0.5;entryY=0;entryDx=0;entryDy=0;" edge="1" parent="1">
          <mxGeometry relative="1" as="geometry">
            <mxPoint x="986" y="270" as="sourcePoint" />
            <mxPoint x="239.99999999999977" y="330" as="targetPoint" />
          </mxGeometry>
        </mxCell>
        <mxCell id="T1TktDtEVWjAW5VJw7rT-10" value="" style="rounded=1;html=1;labelBackgroundColor=none;endArrow=block;endFill=1;strokeColor=#4D4D4D;strokeWidth=2;fontFamily=Verdana;fontSize=10;entryX=0.5;entryY=0;entryDx=0;entryDy=0;" edge="1" parent="1" target="6257edae8c83ed4a-21">
          <mxGeometry relative="1" as="geometry">
            <mxPoint x="624" y="300" as="sourcePoint" />
            <mxPoint x="380" y="390" as="targetPoint" />
          </mxGeometry>
        </mxCell>
        <mxCell id="T1TktDtEVWjAW5VJw7rT-11" value="" style="rounded=1;html=1;labelBackgroundColor=none;endArrow=block;endFill=1;strokeColor=#4D4D4D;strokeWidth=2;fontFamily=Verdana;fontSize=10;entryX=0.5;entryY=0;entryDx=0;entryDy=0;" edge="1" parent="1" target="6257edae8c83ed4a-24">
          <mxGeometry relative="1" as="geometry">
            <mxPoint x="1347" y="300" as="sourcePoint" />
            <mxPoint x="634" y="340" as="targetPoint" />
          </mxGeometry>
        </mxCell>
        <mxCell id="T1TktDtEVWjAW5VJw7rT-12" value="" style="edgeStyle=elbowEdgeStyle;rounded=1;html=1;labelBackgroundColor=none;endArrow=block;endFill=1;strokeColor=#4D4D4D;strokeWidth=2;fontFamily=Verdana;fontSize=10;elbow=vertical;entryX=0.5;entryY=0;entryDx=0;entryDy=0;" edge="1" parent="1">
          <mxGeometry relative="1" as="geometry">
            <mxPoint x="987" y="270" as="sourcePoint" />
            <mxPoint x="1734" y="330" as="targetPoint" />
          </mxGeometry>
        </mxCell>
        <mxCell id="T1TktDtEVWjAW5VJw7rT-14" value="" style="shape=image;verticalLabelPosition=bottom;labelBackgroundColor=default;verticalAlign=top;aspect=fixed;imageAspect=0;image=data:image/jpeg,/9j/4AAQSkZJRgABAQAAAQABAAD/2wCEAAYGBgYHBgcICAcKCwoLCg8ODAwODxYQERAREBYiFRkVFRkVIh4kHhweJB42KiYmKjY+NDI0PkxERExfWl98fKcBBgYGBgcGBwgIBwoLCgsKDw4MDA4PFhAREBEQFiIVGRUVGRUiHiQeHB4kHjYqJiYqNj40MjQ+TERETF9aX3x8p//CABEIBQAEgQMBIgACEQEDEQH/xAAxAAEBAQEBAQEAAAAAAAAAAAAAAQIDBAUGAQEBAQEBAQAAAAAAAAAAAAAAAQIDBAX/2gAMAwEAAhADEAAAAv0oxUIoAAJQAAABQAAAAAAAAAAAAAAJQAAAIKlAAAAAAAAAAAAAAACwAAsAUAAQKBLAAAAAAAAlAAAAAAAAQAKCAAAAAAAAAAUAAAAAAAAAAAAAAABAAWCpQAAAAAAAAAAAAAAABZQAQqUAigBLAAAAAAAAAAAAAACUAIpAoIAAAAAlAAAAFAAAAAAAAAAAAAAAgAAEoAsok1BZQAAAAAAAAAAAAABYAAKlCCwAAAAAAAAAAAAAAAAAIoCwAIAAAASgAAAQqVQAAAAAAAAAAAAIoigCKIACoKgqCoKgqCgAAAAAAAAAAWUigAgqCwAAAAAEolAAAAAAAAAAAALEoAlAIAEKAAAFBAAUAAAAAAgqQ0zSgAAAAAgAAAAAAAAAKgqUAAAAAAAAqCoKgsoiwAAAAAAAAIKAAAAAAAAAALAAAAgAAAAAAFAAAAAAAAAiiUAAAACAAAAAzxT0PFy1n6GfnZufoz5yz6N+bE+rr41PtPkdc7+k8veb2JVgqCgAAAAAAAAAAAAAAAAAAAAAAAAAAAAACwAAAIAAAAC0IAAAAAAAAAAAAASwAAAAATPjufX5fDnpw9HHycunD28/B57PrPmehPY4W576849c8/XO6mTrvz2X3+r4/TPb7l+R7Ofb1s6z0AqUAAAAAAAAAAAAAAAAAAAAAAAAAlACAosAEKAAIAACggFAAAAAAAAAAAAASwVAAAZS8OHz98u3mze3lvCc9c559cJ048NY5ex24pfp9/jevr5fpa83Xfm6XFO98/WVcxelxY3vlZv1fQ+NvHX71+b9Dl6tCaAoAAAAAAAAAAAAAAAAAAAAAAAAAAAsAAAAACAAAUAAAAAAAAAAAAACVCwABEnzXi6+e8bOvluNcbJx1xXPm3w5ezE3cdud3TnrY6enx9enD29PJ16+Ptc6Z6zHVc6zI6xFtxo16vHc7+92+F9Hh7PYM9SC2CgAAAAAAAAAAAAAAAAAAAAAAAIKLAAAAAAAgAFAAAAAAAAAAAAJQBLAACfP6/L6cLyue3lzWLic7yTHn15uXtXXTn6cb7eua8evbV8Gfow+ZPpcU8m9Y6eft28nXv4e+ue2euWhvluWNczVzo304amvqe/8/wC/j6/pJefcCpQAAAAAAAAAAAQoAAAAAAAAAEsAKLAAAAAAAgAFAAABAAAAAUAAAACAAcenytc+HG57+LWKuc87zuc+fp48emV14+56deubzrpqOc6043qOM7Q83n9+LPmT2cOnCdvN07eD0deFuOzUjpz3ledg1c0105al+j9L8/8AR4+z6COfegqUAAAAAAAAAAAAAAAAASgAAAAALAAAAAAAgFAAABAAAAAAAAUAARBAczy/PvLv4+e8b3xxN8Lmc7ya5c3fz/Tns36cdc73ozd0w2XLRMTcMZ6w4cfXmvl8vpePp589OHTt8/t28+rn0TO5eTWE0kN3NL246m/ten4n2fP7tWXPRYKlAACUGTSUEAFlAAAAAAAAAAACUAACwABQgAAAAAAAlBAAAAAAAAAVLEAAz871/J3xxzvPv5N6c0zx1z1nHHpz5eu+/l9Dj7rt0lmrSNxctDLQy0TM2OWeuTj5/XhPk5+h4O3l3rj17eHp18/Q9eNZx0xz7c7hcastDX0vl9cdv0Dj28/tWFoKgoEsAFgqABZQAAAAAAlAAAAAAIoCwCpQCAAAAAAACUALAlABAAAAAIAQS8K8Xh68O/huNNY35enC5c7hrn05/Q8/0u/fPTHXWlLZpSiAigBKMzUTHPrg4+T3crPlPR5u/h7b476eX09fL6M6mN4Mbxq50kNy5X6f1Pzv3fP7eqXHapQBYLJQAAAAAUAAAAAAAAAAiwAqCiwAAAAAAAAAIBQsACAUEAIKABLABAfO9/x98+XLfPt46uLnlz1jWc8unLn6u30uHr8/0NdMdF1ZoWUoAAIsAJKM51Dnz7YTzeH6fmufB0zPT83t146vL0894M1E1NZXpz1gfZ+J7sdfuWXz++pSgSwWUAEKAACpQAAAQqUAAAAgFgAAosAAAAAAAAACAAoAAAIAAASwsACEPP8AK9Xk7eXlLOnn1y7+Wsc987MdOP0fN9Tv2x159ruaGlFloAAUiwSiSjM1Ixnpk5cu+K8Hk+p4Onnzvh09Hzu/fyelMZ3k0lIQz14dD9D6Pl/T8n0qJqgoAAEsKAABYKlBCpRKJZQABLAAAUgAFLAAAAAAAAAAAAAAAgAAAQsACAS4r42Ma7+HGdTWN+Tv5bnPPXLPft9Lh7PL9O9JsamlpUKoAAABKJNQyqM53kxjpDj5fbys+Re/n9PzunbhvfD1c95kx057rKVOesU932fgfQ4ez6qXl6alAAAAFlAAAFlAAAJQAASiAUEAACiwAAAAAACUAAAAAAAgACWUSwAEAV5vT83XP52sb9HixrG04cOnG5zeX0OH0fT2z15em7mhZTSCpaAAJSoCQ1MQ2wNzMi5YLjQ8nzvseDfLz7579PzO3Tz+lnnQlizkQ7+jzd89ft9vj/Y83uWJq2CgAAWCgAAAWCoKBAWCkKgAssAAAKLAAAAAAAAAAAAAAAhKJSgEIAQAJ8X6/wADpwzvHTt5cTXE4898qfW8ft8v1u2+FzfQ8flt+nPm9z2a8XY7683U7Xno0yKgsmS87yTONczOHJet4U9evH0PV08dj1+foPlT0eT0/P7d/P06eXrnWTWdczOd8zv34dM6z974Xs59/spePrqUWCgIKBYKAAAAAAAUSiAAAAAAosAAAAAAAAAAAAAAAAASwASyAEZPH8f0+T0+Hpvn0uM8O3nueWNdMej3ry8/0bzuFy1pMdO3Q49dlzQ305dDaUAmdZM43ExnqOGPVTxX2jwPbmXhe0l4O8PF4vp+Hpym+Hb0/K9Ex0RjeDPLtwrvvnqXrN8Jr9Lv530fN76JqgqUgFgoKlAAAAAAKlEsAAAAAAKLAAAAAAAAAAAAAAACUAQAEAgeP2fE1z4ef0cPR4eu82Xn5+3C55erx+7j7+9muPrze2ibLEQshZKi757N6mgsqZsMwTTODrfn+Y+y+Bk/QZ+D0X7U+f6M3vkM+f0crPnXrw9Hg7d/P26+TRZefn9PkrvrNT0eftxl9X3/AM193j6vUOXpqUAgFCgWCpSUAADI0lAAAAAAAAKLAAAAAAAAACCoKAAAABAASwEBDn+f+p8nt5N8O3Hp5/RrFmvPy6ctZ4fQ+d9Hy/V7dOXDHX1cPLxr0Tlxs9m+flT6XXzWa92vN2je+fQ67xss1kxnea5zWDPi6eZb4/vfJ1jnjNTP2fl/aj5Gfdzz016OHSXtlU4eP6Xl3y4dvP19Xyu5THl9XmrpvFO/Hpylv1fke3O/v3N83vtlAJZRZQCwFlAAAJnUJuUAAAAAAAAosAAAAAAAAAAAAAAgKgAAgEBm8E+P5b5vV8/189Zue9uc68vLr52sfR8Xt8v1Xm9HOb8n0uPruPN837vx7Madz6LeU8vu59s9Gm01vOiy5M51DnjpK8s9sPNy9xPj365fB6O6OLrZeTrTlesOXH1YT5F9Hl9Pz/Vc63555Pb4q6WLOvLpyjPp83ev0Pf5n0/J9GpZpZSKFlAAAKAAAAAAAAAAAACiwAAAAAAAAAAAAAQAAASwEBC/L+l8HfHxeTv5PR5fpYsY9fPpxl8/n745+r0enp38/v8AO9EOO+lOLsrlreSW0mtolUupVSwkpMNDLSzndwzbVjVjLVXLSMzQxncPN836/wA/px59eHf0fMeT1+VdS41jrz3zJ15aPofd/N/oPP7eqXn3tgoFAAACgAAAAAAAlAAAACiwAAAAAAAAAAAAABAAAgIsIDh+f+r8bv4vP5fR5tz6GuXW8vZ5fV5JfP7fN9bz/S10uuffM3Tm6Q5zqOV6WsbtMiIsW3NgCWCwFlss0rLUIqVVIsiSxZLDHm9PNPlduW/X8nfn9PludY1NY3y68hvGq7fb+D9Tl3+tZfP7alKBZQABZQABKJQABAUAAAAACiwAAAAAAAAAAAQWUiwAAQEsEsEvM+P870+P1fO4+fv5509Xp8fr1z9vi9fkjv8AT8Xu8n1tVZotM2iKJaJLDKwhFqWEAlKlGpatlCiNDNomdSMyxZLDPMT5ud8vT87v5u/HfCJdZvPpzRvG636/H1zf0e/lfV8v0bc2atgoKAACgAAAABAUAAAAACiwAAAAAAAAAQoEAAABAELAQJ4e/wArfDyebv5/R4+PDtxz37eryeq8/Z5fT5pfp+nz+jyfW3c6LZSgAAkYLM0sRbpqMZ6YMahYE1rkr0Xzdq6JoACJLIzLCZuTOdZPB5+/n9Hg7cOvHp5ms61lz6cTes7svTntPT9L5WuPo/RPP6OHtWUoFlAAFlABBcbAAAAAAAAAKLAAAAAEoAJQABAAAAEAEsCBjfyrjz85n0+Dz8O3Gzjy7cc99evxe249PDryPrduHfx/W3rGjVlLZRARzGJTVpczXE7a4aOuM4OlxuC05Y68a1vGzrvj0rbNQSUSJm5GbkmNYPn8d59Pg1y68enmaxu5vn9Hka9Gpbzus7Ttmazrt97817+Xq+xc3j6rYKCgAWUEHPpDHWCgAAAAAAAAosAAAAAAAAAIAAABCwBAQHM8/wAbt5vR4O3Ppw3y5cunNeXHryz3z7/nfQs78umXP6Pp8Pt8n1+msal1cjVxTUkHK4KYOuOXkX1vAX6GvF6E7THnOnlxV6+7x2PfxwO+sbsuudO2uejUguUhEJEM41yPm3l19XzXLfPXLWpNYvk78m/TZbyus6TfXj1msa5dI+z7fz33PP7+1jHXSCgUAAFlABCgABAUAAEAooAAAACVCgIAAAABAAgAiwnx/X8nr5c89Z7eX0eb0eVMY6cmufHrzz34/Q+f7juXXDr9H5X0/L9brrFx03caNSQ1mZJc7GdDy49kXjrpbOHP1w8zvs562OeeyXh03SWwk0GsVOkgsSVJBlCef0eFPD34d/Z8nni5N3PXWPNePpnTdzdcdWaL249I4dudOvp8yb/Sa+b9Hy/QtlmqlFgoAFlQAAAAAAAAACigAAABCwAAAAIoSiASiASwcenxN8uXLWPR8/G+fccOnKs8evGbxz6889vP7fH6Zr16zenmx9b5P0PP7/Tvnrj693FLchmU1SqlgUi0jSs20zNwzaiIEZXSBETVxTUiVEEkJ876HzLnnuX2fI45Wb6zXm1nHq491ovPVzpNb56S47cJeuufQ39v4Po5ej7zOuHttgoKlAFhKlABCpQAAQoAAKKAAAAAgAAAAAIAAQEB5Lnz/N1j0/PY1y1znp8vsmuHLpizny6c50zz64nTz9ees9Poaxrp5M9+M5+j69xry/S1c1bEJvNNOdN656NpDV5jq56rVkNTGY6OY3JFsQXEjcyNXOksCRFSwx8v6nyd8t51y9XzOe+XZrfh782u+5rXG2VFE1ZU6+f0cJddOWjpc1fpfT/O/Z8/t9Vzefe2CgqCgBAKgoAAAAAAKloAABAAAAAAAgAAIQGTHxO3k7+GE6+fHK816erj0jljeKxz3idM53ma8+enHHf6e+Pbr5GN5l93p+Z9HyfW3c6zstObeDC+U9WPnbdPbPJW/TfJo9evHo9k8mU9c8pfU8o9M85PTPPwT3vl+9jv0zuS7zpIsWSwiw5fK+j87t5enl9Hj7ePXfnheXo5eitWXXKqZalSpo1LTlZTe+fQvfhcdP0O/l/T830LZZpZQCpQAEAWCpQAAAACoqoFgsAAAAAAAgAAEEsHzfT8Xp55lO/iuNcq5ZSb9jpyuM51hOUsdc53ma4+f1ebHb2erwe7fn1mrjH1flfR8/0O9zePq6XOlY6YOM6U+Zj6HF28t9VdPNfXs8OPoD5t9+TxvdlfHfVI809Q809VZz7MdbwzamdAkuVhSTWTx+Pvy9Hg4cLvfO+bdOnXHTfJZq4tlRZUtlS7x0Xz6zTesaTpCa39n4nfn3+8xvz+6pSpQCoKAEAAoAoAAAUgAAAAAAACAAACAc9/L1z8nCz0/OhmzPLfNrFnea9XHrzvPnneDksdMzWZrn5vV5sdte/53u1jsNeed+Mx6PrJry/TusajcVebUMef1c5ry7zl39O/J0t7555NXmOmZJdTMNsaZvS9XK1q4ikpImNZVZRz3yPn8dcPX8znLzV3x11jVXXNqVm2VLYstlkdOe15zULZU3rno0lmvo/T/PfZ8/u9I596CgAqUABALAooAACwAFgAAAAAIAAABAZTh8Xpw9HhmdZ6cJm81mNYanr83sGLljOOmF5hvOdSXPm9Pnz15+rzdpr3Mb6eVmw93q+Z9PyfWEx06XGlSwksM8fRF8U9XJ0xVXM3FxOlOWuvRnHTVYupWbZQBGYQKhZ4/T83XLl5uvD1eCG130zvXK2W5VUVbBUoRZYY6c11ZUazTdzV16PLrHT9Dv5f0/N79Im7YKACgBAAFiqAAAAAAAABKBAAAABAnzvX8Pp58I7+JlipzuFsVXs83pZxnUTGN81kprCyaxz6yb8vTFz19Xfz9unmud4ZfR+b25ev6bGvN79a56XcBFMzcMTQw3a5ug5ugxbYmlFUAEJm5hZDWWF5/M7+Lv48ZOnG9cddYu871zFZWasoRZUoFiN8+mFqEoNb57NSya19n4np59/uMb8/toWoKCoKlAQBYqgEKgoAAAQAFSwBAAAEBm+Gzx+RPT865uNZc9cyZsaVU69uXRnObkzjeFTUaznWFs3iXyTWcej09ePTfD0ZW88TWF9/o+Z7/J9Tpvmx27XGkoKVctCVaKMzY53cM2ohCoGbmJlDUmVvm18zfPPI9HhVuy7a1yUubrOkUTQuVlLLCUjUtXFhLKLrNNazomss7+j9P8/9bh7fXZefcCoFBQBAoCggAKlAAQAAFSwBAABBLDn8L1eDv4hOnCZvOpjWVlUpTtdZZmNZMZ1lqywzmmt8umTzc/Rxx3328/p1z1049rzmN5MenzM9fqXx+ny/S6dfN0mu1xo1rGloFzTSCs0sAkixC5czWc5jUxDXPPg1mec9Hhmm9Zbutc1LgtFGbRLc7sgNSxJKW6zuOVQtlsqDWs2NCaenzazv7/T5f0/P9G2XOgKBYKECgAAAFSygAACAIAAKIgCeT0fD6ceWU7+FLiyc9ZWSxWpRqbTvi5Zmblc41lq2jmVbNQ48e/LPXl6vL3XpvM1y7SmeeemGs+nzTHb6byenze/r082pv1Xj0Ol5U6TFNMDo51ejnDpnMjec8jpz5U3MwvPn4N8t8K7eVW9YdGtc5VuRUamkS1AS6zqyBNAksLvGpcTUVZbmyhZY1rNUSXp9f4vp5+j7jG/P7alVZQBZQECgAAKLAAAAhLAAAKSwS+VPH87fP0/OE1hhkksak1C0R059U1nWUY1lcRWtSwxYWpo5Y64mvPWM9vZnU3x304dmGOiuE64m+fTOc9Pdr5/bh7PV04s9fS8yX1PNT0zzj0vMj0zzxfRnzw6ZUrPms9Pj4Y6cFl6cFvS5nS3fKKQEtlspUWWSlRSpZUsogJvG5XPrymrTWKAI1rGipVms2X6H1Pz32fP7vTY5+igWUAUQKAAAosAAASoAgABKAx8P2fN7eSROvlZuSY1lZFUC2VHXl2RLEzjeFzRbnWTMpq0SY6ZXzcu/DHo9PTj6N8eXTBO7O7iZ3Dnjvma4Y9EmvN11jPf09PnTl6PpX53bHT13z1ru5I6uHOvXPFxuPf5/I1z3ld8Zda1nG96uM9LdYkpIKoRqVKULUmhIVCigzLBvGl1y64zol1mhBSazqKUBXp8u8df0G/n/AEPN9BZZoCgCygAAAosEKgqUEipSACoB5+/xtc/NzufT86EJmwmblpZRVQEduPWyy5M51mWWVU1kwVdAk1Dj5vX589nq8Xssc+3K4318/a52GQJLlZm823Paa5XtJrjO8l4Y3M7y6043vbnhe1s563q5xrS5mkSwQCWqKRVAS2aQElUVSBJnWVazTcszvFluaWwEWF1co0zoEmu32vgevl6vtJeHrqVQKCosoAAKiwAAAAISwqKscjy/L3x9Hz5E3ymaMy4VMl0lLZUosvXn0SZ1kmdZlms6JLlc1F3RE1Dl5/VwnXh6vN2mvRy653y5dOeprvrG7yS5Ji4ajWprLQzLwXXCbx1z3u9YzdLnLUJbC3BNyCwKVCiVbBQVJRLZQRLZShJQZ1kSl1YmsWVLZbAQUCWpSkLrFm/re/8AP/a8/v7Dn2soWCiqhKACksAAAACIAKnyfZ8fr5c41jt40uRi4amLGlUalRZbKVLvOpGbCZpZQkuVypd2VEpMce/Jvy6TPf2M9NcOE6c2u3Xh2YudZucTVWWic75c9HLXadeXcuNIudJDUyKgpSVUKSlJaQWhUBALQBLRFQWUY1CBdCXFuV1YuaBZRSE1koKlL6vJcdv0Wvn+/wA30LYmqlFlAsoAAsAAAEKQELjfyrjz+bWPT86QuZjWFzi5blVbVQlRSlE3rOpmS5IsLBczUWWUpogSc+mF8uO3HPp9PbzejXGcu/FHbh0O2auM6lGd8JePHfXPe7t1yk3kk0MNFw1FjVMatSKBUURRCqlQoRVCklClQCLC5ozLF1c6lmenNbZbmoLcjbNKAEWWWEOv2/gezl6/tM68/sl51eiDSKoQoCxKEoSgCAGTj8Xv5e/gmbnpwRhWLhqRVW1JbTIKLBToJmEERVzoSjIXVgLLJnWZeHLtxz316fJ6bjpz6Z1jlvFmu9xu81Ceftwm+Xo495rRdc40MtFw1Iy0MXUVAUFlSxRRAsSgsLZUoFEqUASwsDMsW6zqVjWVus25AAWDTNKlKlgCazZr7Ht+D9zzfRm6x1WUAUoCi5EKlIsAAHzfZ8Tp58Y1nv4ZmwmbzamLlq6zsulZlQgoUVU1RMy5lk1BrOhLCApaAzneZefn9HCdcd+HRr0pvXHjjrzmunTh1Z6Bnly7cXTHfl1joXXNKAJQjSMTZebcMqWVSUASiwCgUS2UWVBCpQgAzLFtlGdSVYssBZQBLC2UrNi3NLBb9P5nTHf9DeHby++halKLAKiyoKgAAZviufL4tY9Pzmbm4kuTHPXN0JtbubYUskuQVRUmpTcEmaMrJVlEspZSlISGdQ58e/GdeOonT0duHbXHPLtyM9uHZewc+fLphvHXn0l6WXXNZSAAqUASozLFSwJRQUBbJVQC2UFQgsABNQzLFtlEsllzaoQCggFhaJKCoW3KX6H1vzv2uHu9SXl3BbZbAAsAASwsc0x8Xr5/R4ZDfCS5JjXJcYsnXXTHS51qW4sEmdZVZSpRZpNSwySGdRVzoSwWUoQsWSwzx7cp04Sydu3fzejXHXPeU5defRe0sc+eN8289eXWXpYvO2KFEsJQtgIhNDM1FiwIKlKEospSgBCUllABFksGs6CJYlKKWVAJNQQW3OoWUWCpR7fFvHX9FfL6vN9GiFzaoBxs7JoiwSwnyO3h7ePOTr5WbkZuTPHrwnSXOmunTO7zpblLCSxZYNFFmkSwkJUQagsUINWUSiZ1DPPpzb8+d4z316PN3vPqlvPlvO16xGcY3zm89eezprNuLBKgsKazYsQApSSjKlgALZUBLrNqpDUgoCUWAQQLZRLJYg0lopIUSiSxQjSUtyLKFiX2/Z/O/Y4e312Xl6AKguNtSUAHj7/G3wzzuPR4QSZuS5uV58enKdHTn1XrqXXKhIDMuVoNWVGs6EuSElSxbQICkqUqBLDPPphrz468cd738/ezrc3XKazo6QZxy3mbnTn0N2LipUAFJLFM0tzTSVAAI1CKIoUFiwAABZQlEsJFLZRnUlmdZXVzqwBZQgZollLrNiywUEovt8PTHX9Dvwe7zfQolCqLIoi+ezw+S8/R82RNYRBAY1hePPeJ2125drnomrylCLkmdZausbRRLZRmwkJUsW2UZ1kazpKACFM46c148PRwz6M9uHVe2s61xm86Tpm5TGbJubzU6pbhQShZCywyVS1IQrI3edNs01ISpDVwNMjTNLYKlLFRKqSxUDVgssiZ1lbZaXNSoKiCADSUtzoWBLBvKX1/X+J6+Ps+rZeXpAsq5lQfI9/x+vnzizt4kQZsFipy68ZrljWc9unfj31z2lvNLCxFzLFbzU0VFgSyMhUFqUAWVKgqAsHPpzXlw9HDPfn0xub7a571xu+fS53nWU5ialRem8aYsKWBAWUyQ1rGiyxMtRctZLYLc0AiwFBktzU3ZUoBAlJULZS5uRLFXNLc0WCJQQ1cU1YSlBQlCVeuuPXHT6/q+H9vh7qM70NZS8E8Pg6cPR8/UZ1zQIKLCcenKb4yzPbt25dtcaLgBLFwRdamkBFlGbJYRUoWCpRZUJSwBFZsl58O/CdeWpZ0675bvPXbj1uNS5Zxc6mpNZXesbuVRKSkI0DOdZtusaTSClJKJNZAFgoBSTQzbUUBEpABLC6zSywksazZSoLEKAUmpUoS2UsELBZV114d875/T+b1x2+8+e4+v6QqfK+h8Lp5sZs7eRixKirYAMcu3Gb451nPb0duPbfChmoGdYXNlXdGRC2UkslZ3hpAqUrOkWUBCFqJWdQ58O/KdOC5nXrrFZ6d+HfXPXPeGc6lWY6c5d6xu5pEpAFqCZ1kXNXprNSyxLCgM2wLACpRZQAsQAAgoANJTMsXIUQtzQEtUpUFRRIoEKRXbj1zouZrqwa/SS8+Ht+f8zpy9Pzoi5gpYSxQDPHrym+E1nPb0duHffCkShGNYWaxtdhEQ1YiJF1IWSwtlCUtzUqUZoipWdQxx685vhneM9t657s6d+He8tY3iyXOhjeJbvnuyhAIABneVyRemsaZtzUssAKgAAqUINRDSVCUEBaQFULlGaawZXSUWUqVLZUtmkmpUFIsCwJSbib7c94zqg/S/M+h8Hn6eWLnv4URalqwRQSwzy68pvjjpjPbv28/o3xqGbZSc+nNZ059ChIlKIksVEUJalsoFEAJVEiyw546c5vly68s9p056Xv34ejXBjWbJqUY3iWbxtNWLAEsAEpcTWVusaTdlQlABEUAFhUCkS1SAIKBKpZUsoyFzjpyW2UtzTVmkFZupUUqWEqUSlgiaya74rGsqPsfF9XktSzfKTUCFqVKBLDPLrym+WN4z236vJ69c01m89WCY1hb0zoSxIsjcsJLlYlmhC2C3NS2WkoAIixFnPpzmuXHtxz2zrNmvR6fP6N+eY3hLrNGdZXO8bNXNZFqLCABc51lVg6axpmgAiiWUAKM0BUWCxSAAFolSgyFnLrzWazpbrNTVlZalS2WwEAWUAgVLJddOfTO8tIzi56YuaSAhF0lSgSwzy685vljeM9Xq8np1npm51z3c6jOKNalSLmAXRCSxc2WVAqC2U0lQQqUi5LLCY3ib48u3LPXmJ09Xo4d9+aY1lLc6V6OmrPnvdk8t9HnlXNSyyxLAUmN5XIXW+e00lQsLBCUAWFBKAAAAUlgUspCCWc+mFzrNt1rOktmrm2Vm2UgSgAJQCTWZXTnqa6MJrMrfOEEsBFtlSpRmwnPeJvnz6889c+jz9bO+NZ1z3ZEzZpdIkSwXOlpERJYGhCpShNXNQBYEsUgY3mXnx78c9eJJ19vbl035pjWDp7vRWvL7PM3y7ebWD2c/drze34fn+ny6+fxWW85nUpc0TUXEsW6xpN2VKgBAAJQVCwLFAAAFmkzSrKMiVjUt5WVrWs6udazpm2VmgBKCAqCpRLFms2XSJqLNYhBLFgGs01KSSxcS5msc+mM9MdOduvVjWdcukuUmpqJYLm5LrGywMyyUFgFzoahNIKgAAgGdSXny7c5vz56Yz3928a35s+rzfWan0PD3x18l7d7nz49zPT53q15Ln6Pyvq+NOHg93h3yk1m4llLKMTWVmsl6axpmhBSALCULFAIsKlAFApE0ILZASw40b1rOmdazq4tVARZQCKIlALKM1JrSFsS5QEsWSiazotgZsjOdYazm5nTMuJv03n01y3FZEKQZpXTnsEkRFSxSUXNNBKAgsUlABnWZc8+mGvPjpyz3928a15/osNT3c/T5uPq79Hlm+fVu49Pl3ub4+vw/Tk+J4foeDt5pnebzhRZTOOmVwpbvOmdJUASgAABYCwELZQEtmlELmwyAK5SxrWs7TVzti0sISgqCkIQ1ZQQCWBbLLJLAFksVZUoEsjON82853mb541jPTt25dt8rS4JYS5WSw1vGxKkzLFZsVYVVSlSxCwGs1aRAAMY6YmvPx78c9/bvG9cOnq+Z9ivd59Z5er0cHpmvPmLjr03xm+f0fB6M3zfH+j87t5Gd51yzYXUpJKXE1lbrNTdlQokoABABSKpLBYKoazYpC51lcgCs8+nNdazo1rO7ihApZUFEsJLItg0CTUlgEKQWLCKWA0lkhFzjeJqZuW+fPWc9fR05dd8ts6YAQMkl3vOkRBLFZqWLC2asqVGbC3OguSgJQCc+mJePD0+fPb1dePfXLj9T51nT7XTz9M64+jHFr3vLJrtOPtzrXj6eTXPh59Tr5YpnEsW6zqk1DE1mWazTWs6ShEohSWUSqUIsAJULZUWVbAuNZM0UCcuvJdazTe8240VM2Ciy0IoyASNJSgBcRFIWiECUKlGdZJm5m8898505yp069eXTXHW+e7moRLJZLDprGkQJLJUFQLvGrKEkoazoSiWUWUSkzneV5ef08M9uvp8vqvLPLvzr6Ofn/WuvS+fc305vCa9OvH2ueHpebWfNKnMsrOdZW6zsSxJjphYF1rGk0lSyyAQUlKAATUIUgFQoLAyRaFce3JWsbN6xu41YSAqVKKqBKMkXVzqKVMqOedYmiGtIKgqCgQM51ma58+nLPXFJvr1563y1rntnUEsQSxegQCRIWVZLDWs6sBE1CazSgBKCxSZ1lefD0cc9Hr8nr1lNRjn6OUa+hr5mrfp9fkXN+n4OcFl1zKSLDMsLc6LRM53FwsVZTWpUKSSgCUFlAEsCiKJNSllIsjFuVoHPpzXO8aa3vG7z0EhC2UqrAEQksVVi2VAOWNZnSXJdIKg0zS2EubJZjWFxy3zz2ibmu0TXPesaudoQQA6WVJLkSolFkous6slVEsJrOiykShYKCTUOfLtyb5+zx+s0sc4WgCiKIVCUTUMzWVWU0VJKMTWVBdazpmlJLAABRABaiiLAAAVcZ3iW2UY3leOpbrfTl0Y3ZWczWRrOi2LKCTWRnUVYjVzU0yOWNYnSXOmqlBCoLrNksDON85vnz6c89c9OfQ2XWGs6TVzbLlIaztNi5ijNslijJF3c6udFSSwUFlEsNQAEsM8+vNeHq8/oa6WLzzUKoqVIAAUAzneVlDVlZTUrOd5lw1GrvGmdUsSokoigBZaFIpIFSgADGbJq2aJNZOc1m6105dGelzpiZ1lVlNXNssBLCBSI1c1NIOGdYnWWJrVgQFyN3NQQnPeJrnz3jPVvGl1vG7hqW5qyxFibztNC5AZ1JS5JBd6zu4ATUFAEUAE1Kk1DOOmJePfj1a6mrzzNQAKJQSiUQFksIUtlsoJneSZ1lqbzTdlZsCKiLABVoEALBLSEWwOcJrVlRnWbcTeVms6Om8bYY3kgNXOqBEok1lYItzSg441jPWWF0lBFlg1c1LAmNYmufPpzz0tF115dbi1bhKIBvG00q5gJRWdZM2U3rOmVlQKFIsFAsBUk1FzneY47zpvtZq8osIoFAAJQhSZ1lYUus6sUSTUXOdZWULvGk0EhVkollFlRYFEABYBnUXksmtURLKzKaxoN9Oe2LnUMyw1YrVlSSiSxYIWU0yThjWM9yWW2UQIg2zopCY3iXnz3idasN9eXW43c6uLNUxneBvOmd2LCwRC51khVu8dLmWVKAVIBQigCKM53leVsa7azpzTUIClIoikgAWSwhF1rOrFVIsM53lchbrOk1YQsIFgLc6RZUAASiKVLDkJrZamd4MlXJLd9OXRnUskzLC6xqtWVICSxYSLZQpPLjWceklLYLLCEi7xoosmN4l5Z3idbLDfTl2uN3Orzusi53km8bsqmUsEsW43kzrOi6mrJvFSlIEqwAFIBLBKOeOmGu28bYSqiwoQUk1BKEomdZWSxdXOk1ZbkUzjeVwsaus6k1c6RLCLABYNCygJQIgEo4mm9KJjeDNmlzNZq9Oe02VOa5hrNrWs6RAzLFglthKLPJLnl6VlW2ESxZAu+e00LJjeJeeNZnWkN9eXS43rOrihEspvHRmkssUiwZ3iXO86Nazq5kuTolQBUCkABZNQgM8+uF6azq5qxAAFBKSFJKVmxZLlbrOk1ZbmgmdQ5zUaWDpc6QqSZ1CSxWpRqWwAogCwiyOQb2BjWTOs0ud4q6zTes6ZzjpiWWWtWaSSwZ1FyJaEoPHm55+m3NNJSywmdQbxpOiEmN4XnjeZ1A3vG9c9656udoSwLvO2UqyUJQc+mCazs1rNRnURrOihJQASiUEsWAmd5q7x0SwQApABSAAksXMsVrNNazq5qUZ1DON5azUXe+fRmhJNQyJVlLYstEJSKIFSw5Syb3ci5sM6g1nealDes6ZmN4WCN3OrLnUJnWVlSVrNTSDxZ3nn6pYNXNKESwms6NaluZjeF58+vLPS2aNal1jVzbnaVCU1vHS4SiUQCY3hW86LqVlnWaazoWVLKIAUEhAyW2zWSbxtNBkABYKBKIuRNRcSxaC6zpLZbAM43FxLGtb57TdzpmTUMLJVlpZUoBURSQUDnnWZu2URCFXcssgN6zpmZ3gyF1rNTUsJBZBVlKE8mN45ekhbZpJSk1kms6TdzpM53k58uvOdWs7Nq1zWU1ZWQOlW85VIAozjeVbzpLS5TUJZoWCpQCWUKMywhSwJrGzQuSogBQKASomdZWZ1Flg1ZU1c6sAmdQxneG28aTprNZsUmdSMkW6xqtJpIpERSULDHPpzm9JRLCWaNyyzKw3rG0Z1DEpW8aNSxJnWVgUlig8udTn6MgoKKLElDWs6sY3k5c+vLPR059Tc1Nc5Q1ZUWE7WW4ikAssM53lbrO7FlSywllCkAsACgksIFEJvGjaW5oBCgASgCSwzLJqBbrOktLmgk1DGdZalhetzpi1ADOdSXOoN3Ns0lJLAsAM8u3Cb0lUQus7SlsxLC7xtNZsMLFazoqxMzWVhFqWAPNKx3ysVYKlBUiw3c6ubjeTly68s9b059K6C84C6lsWVOm8bvOKAEuSSpWpqylRBAKUigCKAEsMrFixc6zpOlzq5EKAAABKJKMTUmsyxdaxtLZblQSwzjphrMsXpvn0ZoRKJLFksi2K1c1KlEoiief0eebWVoVLrOkti5Z1Fm8aTUCZsVZTcEmNRcrFAoPMrn3zNZLLFWWikBLvG7E1k5cu3LHSbxu3sNcslW2VGppnWpbiyhZSSow1C2asoQCENXNKCUQABLFZsWEWUOms24oJQAAAAiwzNZmsy5XWsU3c6udJUAmN5XEsavTltnolQCSwglAopYS2CoHDtym81GrZU1rO7mXRMzeDOpTQMSxVlNBJjeFhFogo//8QAAv/aAAwDAQACAAMAAAAhBfDDDjDDDCCCCCCCCSCCCCCCCgAAAMIAAAAAAA8AA88488088c4AAcCC+++++6CCCCCCCCCDDBDDDDDDDDDDCCCCCCCSGCCCCCAAAQ0gIAAAAAgAAE84AAIQ0oAEIAwAW++++6+CCCCCCCCiCzBDDDDDDjDDDCCCCCCCCCqCCCCCA4MYYcQ0oAAAAAQgAAAAE80s4UIMQ8++++qSCCCCCCCCCCyBBDDDDDTDDDHKCCCCCCWCCCCCAwwAw8cMMMMMMAA08MAAAAE8owAMMY0+++uSiCCCCCCCCCCCBRBhDDHDDDCDDCCCCCWCOGOCAAAAA888wwgAQ48MIAAAUIAE8MMMQ0oA++++iCOCCCCCCCCCCBBBBDDDDDDDCCCCCKGOKCyiCAAAM8gAAOI00tZGw8sMAcsAE8888888sc++qCCCCCCCCCCCCCBBBBDDDDDECCCiWyuaSiCWuAUE8oAAcdpVzZtawe4B60Yww0888888888++CCCCCCCCCCCiC+BBFBBDDDJDCOCCWGeqCC+++AUk8AHCd55giZjnH8nqjy88gQ888888488+KCCCCCCCCCCCCCCBBBBNJDP/wDvvggiksgggssggJHOA7R4kmPqhsDehLxGZT4HLEPPPPKAJPPrgggggggggggggjgQQUffbQ//AL74IIIKIIIIIIoBTgIxT4+4LoySMKkJQbLYgIQQjzyzjwzzz6IIQIIIIIIIIIJb4EEE3330sMIKIKMMMMMJIIIIDiAe0qtIExtuOIHkkQ/E7AMURQjDzzzzzzAAAAIIIIIJIIIIIIEV33332/74IINsMcMMMMIIIcXOq98Y1ZYNY9+4hCexKc8vYmiwgABgQgTSgAAIIIIIIIIIoII132H333330kINcMMMMMMMJesPu04Dr1rfTzx0v5u0HwdM7G1uxQwBSyQzygAAIIIIoIIIIILL30kH33lHHWkIIEIIMMMMMO8fh1rqiGddpAjABKNxHkSaK44yNhjyxTzzzzzgAIIIIIIIILb47Hn3332EEEEMIEEMIMMcMNfNvyPZIHIgDwwwyQBgj2dXf+v5/fBhBRgCRDzwoIIIYoIIIL6774EF3nX3120kMMEEEEMMMNd8O9+myWA6PIDzziRAgLIi0xHTyRw6RQAABQBT64oYpKoIJb77r7KEEEFX3nXHGEEEEkMMMMd/PuCIH/lKFx9SwxQxjCIJLkHzuQEZtFDDTyygBTygAIKIIJL6J774EEUX32kW0EEEEEEMMOtfseoNx08NAQ9/DDRgiQgw4Y7c+tKlbBKSRDiCwABTyw4J64Y75b7zwEF3330FWlX32kEENOEF/N8PbUaMAPzgzQAzDxfdLCEXp1ggSaM8gixCjSwBBDz777pL77r7zwEH3330lWV33kEEEEEFX1et9hoLMnyXWBjBADTs57u9Zols65SKhlTQiATQgABb7zwpb767774E33332lHHHGEEEEEkF2l03ZTya0oY3kD4jIAj0T29kNA2bwCzGmNBjzyQQwiBLAxjzz6777IJ33333kEEEE00EEEEF31WW1BPyA/2ShPiFm27DRLSNNNfe8bi2QjUaBCgDxygAAAyjyhb7744IHX3210kE0UkEEEH03EHll6W2IOso/AedrEUfvSAMiltuMs0IXjuDJCjAhDT4IAwzz77777774FX3332kFEEEEEEX30FUUUoxwn9tcPwyTZ3Twmu2NztgMss1bo2mb5yQSAAZ4IKjT776qJb7zx333330EEEEkEEEF2kGmHlQkZiftvc9ii+AbqJ79EX6Ad6hp+lHMSyBxCAD6oYLbb7/wCqC2qC+R5x999hlNBBBFp15BdV16evM8HnTvPibnEbb7TmOCygb6QNcbv3wP6skUAw8CCCC+72+G++uCBBd9x9pBBBFBd99BdlJZrkXDm6ZR9rLrvUnDufVIY8CjrdRGKynQwLKsAgA0qCACySCG+iS+yBd9hBBRBJBBd9xhFpRNVAGnVsCP1rbH7wgeJHLtSYN+jvFAIp30h5fMsk0AUqGukCCCCC++6CF/8A4QcQQQQTfcQRWRZctri2zMgE9+y135Qwo5ywXHonmgqLGqx3Z61F8pHPIPvqghgggwgogwwd8wwwZQTfeAAReTcdL5p50pu9Iu1zyw2kWSXbvRMs1yjLI3400T0hrVNcCJEvqwwwwwwwz6wxwwwwx3ffeAMEaUeVLN7zFkopMYiqunGuvtOMIyRBLFXoDItbkcEii4Yr0hECkrywxywwxwwwwwwwww/feMIAfaRZIVAUkCsESaXyhojvhk/dVx8KLit0zPFvnNESpmvxrGrpEDkv/wA8MMMMMMMoIIJ/3FKIIDTADzZMXWvwrOcioS4qbc4BlqPbyViH4+ADB28pF7ePqVGlPbijYpL/APvLDDDDDOOue4QACCCO4AE0GWdq8ts05NeKfSGxpsuRhI3PyYXfI4kSq2K7DuDgsBUReYI8OS3/APwwQQQevvvqgAggjvggKGYZYOgI5ZrIPxOG6kK67AcUlvtkEI1vkAFdVv5rP6GCTXEdNENigv8A98EEEF7674IIII77oIQdtWRSBbIzsXYZvJ87qpM5v5N1QH329sqvDWsPLhgHP2LzgacSTL4JP/8AtBBB+++++iSG++qCK/rNNAlyfdqiqkH6nG+aCftNd/m6Qo/nCiOZoDB99cOhO+hEhXAMSOK//tBFN+++/wD8lv8A/sNs5pS1BUsrdw1enpY9ObtcKJyzjTa4DP8AGiDF7TuWdNMigHyChuWi0Mii399B99++/wD8wlv/AOsfdfrzQl7J7iUxUp3J6+3nGjzgAhy4ZT8uKexDPLeP0gliHf12eLvyr4KYNX3330XXnEcPvNm/uXb1CEfa85zyGGvFeaZN/LlNvtARJZqaFAWr4oJopy2lVHjVBOB71NqpKoP3332EEEENesMFUf8A0tA3D7+KGKIku+0n4oADtWQdb6O11woYISedZ7LgB9hralEKj46rmSq2jR999BBBBTDrDF58lAUdOqqG6G7AFwu5SQFef88q0vMRYJBnS6cFtYQs1QMakqc846SY47i2W9BV99BFNJHLrB8ipU9M9j/tA3WnVGYTOzp3vPE1EYNEz5IUmbX1VgkZxww3OD2WwDMG7eGXay2NBxxN9995zXMcXQRxpDbVB0XLn3HTyDZKFPFaA9brDGWrX+bCpo4lIFs/nXTAboH5ueecF+Su8NBBF99pFC+4BV3Tx3vpR2aanG+KTc0S6CjVta9BWydlhZXu34dFN0EHmqb2RkESomWmKCvma69BB5xhAEUsWGrXsyyfgwqm3a+P6fDgCzmbF3TfGHqMwpQ2Xnw0H0xkfa2baKk0OsMARqtEDmOM1xAQQQA8kD9MJR36qR4WvKIbem1uqLxJpFJHd1MOzykAZSStVW/enO2WLiqEB2EMY8bi/wAoqhtPABCNPOEVXYFQPppEAMfsyww8bcmZAcz3tN2VRYY6n7IMtvbQt7ohijo2vXRf+/lQWw3ML5ikQTDDOMnEFc4Ee9LeHbHOT/8AEXm5O3e7/wC6Z2po8ccMTbRJ3i5p227OaXzmx1sX/etc7TGvkL+hBswyWXIYnvfJUZ9FI5AvTbXe/ifOY5O83tiHk4Q0gKzWBNSX1SW/LrXO/wDb38I88WMqgGWkgzcYENvlcUz1xXmVUQWEfKi52z0mkzLJa2Tpp6n7ma05++8CBC37Dnsurri0SuxM+0UFmrkfjY0z6Osm3ORzr11A+7TQzJJhgjs3jl/Q4rlCXy5m/wD/AK7+7X/3LP2txH8gIR5V+IZyqMY4mGU5nPDxiy0jO+f7pULinUDjcZ/sQQpDyrVg4xwMUhVp8GDUzr/m6fzj/fjKbRwckn94tNrrzXqgczxhBTn41qekHzCTWOgl7UrtZdAJPM1V4wL8cNgnYgYohs/mGkaCm6G/zCmqmiv/AKzqq/xo8tKWHsMCV1U8vInoMn/qrGv9XoEZSaWXQDtcT5Ky4npxHw0NZEOBFJDOFGYJZ3475fOFvkOLRdn94cUgjK1v3YosCeQz7MN9+U9CHCYPfCgixYgF4Vlfx6lr3pl1IMFdCKFMIPLALCMEPLPcAHh81zKuzkWavLSyyY2Rl7XEhAlaBSWLCGdmzfydxAQgMPPt8lB718z9/wCPs5MscVkDVC2lxk0utracvQrJ8+6x3f8AhXZK6ys4I/FJ6JMh18nDtPlRI1u/FoVV4wVg8YFhnCuHS+O+c40AB1MKXrgtJwqkHzb1ROffv2uiznPkV3HpuDG/oQw+WG+nh+vqKP5lN08UFc04ogg05saCW4IAhp8Equk//rDs0kzMRp2HXzZPANaZxn24V/DFSa2KvVWrUqfmD3F+1RZ9tMIUNNBI9Rw8gCigMCDlCwpC3DCLBml94N3GP7bWiP61wPzYpLtEQFLXn8MSGEmGRw63ZrZJwINQEB5h1lZwcc2r5xKN0w0HyvC+LKAF9Qn2+6REvrEAw6+HcI+5xtlEU4Q9+JSepjzd8NJ05JtMttxdl1cC2K2izDIAdQCtzDDCiL/RuxNbGbogatNpGD/n4M/fxJNdsMYpVWMsudOs08Rg4QiywhJJRSG+uGuifS+OWod6bCLTeGnjHrDhXiwR9XwxrxRLE1Ub3Vs1xIJIB5NhdhLEshAd13CXeW3C26G/v75NFwGDWi8d+Zegp4U/nD2/Zg14QLq3JbQKuZuyvgSiZZhFFVJ4fjEKbyR2ExrLBQDvi/b7vcg0okpYR1g0Yml6q1ggNPP9AIUyPz6VaIw3INazJdjW6thdlpN0NxerwhdSBATBcQtBMMcWLT1NcBB1j/LFUdfJHyf0M54SH/32KCGwcpjiF+XPUUsrOiZxRtU9dZEHg3zM3Cswgtdnhp8gxJFwqCWCyUI/l1PiB3GeQQN82q+Smg8IFeNFacNdBlIUTgac4csRdvaiFsPBUwgZdxEVSbnSzS+88D/5x1pdc2PC8tmG6sA0UmOCNoYEcvCGmvx+AOx5ByjOdLLHfXeGGl0sEwBt9YAwCX1P6n1LTzTs4j+Yd5H6z0DbuSJc8QGvPtmOaGCm97Si+w6jp9X3+fu+mvDHRx3RR9V4sYloFbVM1EylM7HX4P8Apmxm+z3NX8ulmPOBOjvjxfZICOPPYZqjmxrvqHPR77GdINCWE/v49+xz4v1uqZ8hg/3eOIK7txyr3pt6Uop6k1IecJwjxV+m+2xo3NQiFLh7hihUOFQEbaeXccIb8/gusx/qxgsrk4/5haFC7z338stwFSxHLv7KaYIw/wBx2xQOb2uF1o3fIzd8JevgED1WBjzWHEJxQFjRxFTx73l1Ss77su9Uggc9/lBRo22i+SknSofH+qcJiuV8i0yJPz+BiRKIE4s67cMJKrdTWkaJPt4wSnUBllVytd+OGzBwSMVBifXyHLFD1B7c401wR28J9DxcwUgJAixH2YuoOPve9oK3h+7f8ssskmvnxwiRjzmsIWEnHhlEgMPWR1TN1FSa89SwjYD6YBceZ0mzlCUWmSZyjVhyC6tiRwcsMYZqfL8frjxhgAiC4H3Tlli0uM/KhwGX0VQgjjEEzvhSkLcBBGSNZOf7Ji72ksYopiDxk95XOrrCBJZvdOizETWUg8ujjExzV99dMXElnCRFzh4IIt/SXOxymtetMd7t8fIW8o7ds5If8ncZ1AQABAAnNKJTSg0RWQD+dUjQT0ZOYriHkiBDWC0o7mQxyNZ9Z5g8eQ2XAAzrho8NPIbLY6PbskQAABximIoPWRxRxHzgxsCkjjFaJMqUiF0wxxnX3HBVaxDX2SPQ3gTPliSLdlO88/bfuvZ+7K0iAATwgCZ0ZwqJww1yhU9cC2U0oPeyWXEEzxFWWfP/xAAC/9oADAMBAAIAAwAAABAF8MMOMMMMLb74677647777r6y774I4oIJLb774L75Y4YI7fpd/sMNcFfLb656b7L77775KJf8EMMMMNMMMtPrb777767r6IKIDboJ7q4oIIb75777pKb77a4qsMcMPMMUJ77I4L7777774KILMEMMMMMOMMPMIJL777775a4oIICKIYZbZLbrb7776577777oose+sM9fMEL7YKL77777776qLIEEMMMe9MMcscoJ77776r7764ALKIbK4I44564bLosPL7777oOvMM88/wDtrWa+g0++++++OCGOBVBhLfvD/wD/AI9/77776r4pLLQIIIIKoII457KYYIb/AP2+q2+b/LPPT3f+U++6eqOCe+++ueK++Bxd9/8A+w//AP8A+++++26+2O+u8qCCOiey6tIjwxted+ie/TT+6T//AJ//AO9usENb757777777IIIIEFH3/8A/P8A+PvvnqjsprnvqkPkvilugkwelft8A740MxG47z25/wD+/wDvf7HRj+++++++++6CiC+Vtd19/wD/APX/AOy++q6iW++OCAqWm6q1udq23CMh6Z1bzXtCXXv3/wA88/8AfPsPb77777777J6oIIL3333HX/M847777a4777777gKZqZ1ri61lbrzEX/Rb80rdLee9O8tdf9v/APT888+++++2uCCCO519tVNZ/TSiy++++e+++++ICWug6EUimGYq3hHMwj6pxY0BTfXvTHH/AO86ffPtPvvvvuogglvvffdedTf7/vnvn/8A/wD/APrvvuAtgqNo0vDoUjmtq6axx1cK7Mh201/w39487/vvvPvvvokgggggveZXeecU8ivvv5/+/wD/AP8A/vgAb+GwOqrrlufCZiiODzEIrtoGqgmss6995+qsstPvogggggiggsffYffbQTSdfv6//wD/AP8A/wD/AKT1B7E3D67SE22u/wDAu9usBdjMWqNuhglgzzvigggPugiggggggssdSQffabfSVfvvfvv/AP8A/wAw857ExCvuACTIrqxiFX+HwU4kvUwK544nuw8vuuggAgggggggtujjdcecbXcfff8A733/AO//AFww1zz5zLna8WTThrg77+6d1g4nL9t6dRY9jvn7gkiAAghiggggvrvgg9YSTTXbUdf/AP3333/88NcuscztQ1RECcj7qNYlmecFGHzwTVnhm8JKLJKoyAgQJKIIJbb7oo6MX32k2Uk213333X//APDHLPvdLstK4QoYwS6K+UdrL7CyUDEd5iIJeuyyq2q2iCACiCCC2iSsMBd55FZV5x999999/wC461758tRScygiWDGNqjgknMa7/wCqDZZX+ID2mEc6YLa564wJ64Y7JbDLIF+MNOH2lWk0VX32NOEF+9uMNlgCwKjw7qDFOaG0F/i9Mz7i1gVJ1UWN8u5K65LDwzhL47oQL4f9f9/3XlmXmX333WkFWnds510E+0ENMLkFn0p3i0yCx1UJPfewFe0kknHspLahzoYhDb5rbzD/ADb/ALzVbTTTTffbUaQSUSaRN5m1rglFAOx5xW3859RBIw8oe5PJ4R6cbfarivrPvtvrrGohjvo3/wD/ALD999pNF99xBBdB1BweGTF9Og5xzWo+3hcgkSVb4G6mZA4mvB7hpxWe62+/L362s++GiO3b/rTv3/z5199pBdJt91FZewmkNNNeeAXxrlIdP0nBsckD2SwaGIhNl5Duaw0+yyOww2ym88M/r/jLDX/v9999BFx55VplapyoliRoFkEP9sW/KPF+TN+wcHC3rHdM5N7ie4mW8Wa0uCW+qASCnH/7zv8A/wD/AP19rDDZ1BR19f783leeuqZRqYbjjL91dSdjsAtBmDxkdfb3q+QoS+Yo6T2c8IEsAvXHPf8A328//wDuevcfsHVHQyGSZnDPFGMbk24FHrGLYCFKSRF+nj+QXFsfZZ7oDzzYIcoChK5o7f8An7vDX/8A/wC8Ms8vtv10zPsyyP4+c83J5cXqmDdrVwThbEWxsvRhrgOLv+pZ6hCME677oJ64I7+ft/8A/wC9+8w34z2w9xabnp6P8s6i8+55xpHFEaQe6CYCnHBf8WBv8j3hy2lqoANL9vvvvhhhvu1bX/z4wwwy87/5y5z6AVMoMHmbL9/2+0QPzGHxzxhrG4WxYsFlWcfQnEjstslqghlvv/jnv/8A8k/328cM9afvMeeuPPp76Ml2CDWo5p56awxmr1yjhdGYtIDnQJpmDK+y6pY6aasMf/8A/wD381z+ff8A/wDtf7ym+6T37PX+1HNP2G8LoDjHpr/zx11t7wAd6A08Tf24IKCUjpOcvGY+jLznLzjH/wDz9/3/APsHtKY58KtaauwcxXrxrI/suENOu8+JwS+khSIbNWyTYFZzuZ6RAJS1kbYyYNc8MMMMNPMuNPN3c4xzDKs+q6yrmmfYSOpF4Vj6MfFvoIM3t1GmIVJcX1lnqjvdrGCFLW/Jgq4M+8sMMMMM4KIwa77zoIwa4JroYA6UNHzkNLksYs/fB1qM5rX8HMsetFjjEvv5t6/tt0DD54Jy5vd8MEEEEp77xT7z6I6rh74dMCz7uGTFPh+q1cLdeKVSQJDhuhWPDlpHq7jB9GZ7lYAkdprbhr7d98EEEFa4Kpzz6ILI777Gx3S6BhHJ0t912iLIb1A/q8AcGUhQYcg9VUII6CBw5Rj4gpd54zYKcPOUEEH6paqJ7oa4pb57V4A4sei1KoGDPZBo4osOJ44Lr0kHFKN5p/astCxWHdgWBYqp1YaQJpc80EU0456us568Mfv9M5xMbcCx0LDHiclWpa9MuMMIOUt03JdJyw1CEuaVhVfXRaJFR0goazJvH0H3Frb8M/5acdcdMY6ZeNTUgZOnBremOlqyzTqrYP8AvR1bLZh3fVSXKA01UDFhMCUXogU0OX5x199hJFN7rnPhfjlHj3ekrqcy/P8AznlA1+sjGqOcYp+/yaR41PKr31tmdUbRy+XepcadzupqgxTecTfffQ1y04VUXPzwxNzvuqLN+8zVuoBt41IV1lxfWjepIvdkxBItnPOCuJkQZ9eyNEJomo/YXfedfcUw2wxOMEcy6vHmkgv0d314EKyfBK3Op9PkTZozR8G7TPcIJaXYzRL2FeLotS+OmqlUaTTYQRSRy8+PUYaosiuVzcLioa1a0EQ8aKqVFfu3voFJ7gN65IWWCDUYq5ySrm9YMyJaYyvkhcTTTQcYdSkiSjK/7x3d9GELr1HM/sO9GK0OiHqCoIMdDYHnkvVFbDB21oj1LdKs3Tgye5UthhBdfQbfHOL65ZfpGU7N5Xb5j3jfR85+PlasNISxOmSQj0r3SrmEISDNYZy3iUpruiJl2hcHBuolccZLHPdYdYmQIHtArnKOzVaUCe/0RFZ31DVe/F25xUsghSr3IGMhMMJsh5b6s6lNJGQl0E6nsNceTcUQfSDkp6yja1jdI/FY+LFveb5xRlcDIfMALy7C5ii84Vlwwgmmhunc7QufbWcfmfZdiqqAARSZQRUZ495/84iTIZJoCKvyXfnVUHJthO8GHLE1qfqkIwdEdqqxgiqs0y9VENekLqEuCmnhfTSRTyf1qtC2DzAZOIDTcv6QUI/MmLhbArc4AaJOPC/A96fuMSTuhwss3j13RT485Dwzbmt9mfcfacy5J4EMRjDfMWXUa9r3v/xrBaAXEnFf2jeSYaL8vCqyMnRVs661/vGbAjnzt1Dz68bdK/Qaa9+neZEsl6+24FYAhfk52/hy3opA+4iC9tkn+Cjvhlch+rt6f3xior1B2fCUcw0N3zVn795wzcYlYEuwufFkvSffc+ayLANKR6sty+ZumQmZU40rug8TZTXgraeO8eReTHhqLNAkad/A5ZvNzcssA2IbmqhGN/6qPo3DBx5n1GeJ2Dvpk7v/APZPWzo1ZIlRfO/euKpvHBwhoajTTo5J5EMfUukFPdq67anieApfS5LYdNvq4fPy/JHvK22XlTMSxo9o5WjE+W3ZhT2jMOtd5pWaPuDRlzhvPhGg/wAVHcL91MLWW/Ql9cYSv1fOH/b96N6Nv3rS9yV2S0VN4OXLnTGuTS7phZQeaT5tnybuIdFYr8PhZ0fEJvve0zO3lFtFU8VNbqHNOzUlfFQJofF1Uu75JSBhl0tJAc3+TrjW6VSKCWiONDG1SHEAzBO8veiuyle34fiS3et0AKb6tbSbDFeQdwMz7xY0G5pcoGyebmXD6j5Fz3Zs4grycGj/APtZZw9l3mH7jpvnLxkM++RHSK9UYcCHpemPgnJFs6PTAULfaSBg17YMHefntsLQDfTZwJZ4PXWJ/S8hGPTm9nMT+OhqLoF0ZWrAe6ECCzLGPF+0toSoCHWHcSKCOEHkphy2PKnLckPe7j1mfb6tbCt/xCDzm7tMubeDladxZqGdeoTyn1J4KGjWm6aKwnBO0YOJJFXfbj8p49kLgbC7gBkHSQwo6qVZ8Vbj5uy6SX5Ti7Cv1pr/AK9zI+52L90K5S+W2Qqati8N1m0zlfGttZuMZ2vhTowJmj1ZeuoalA3KWxau1HTz8hRXvVRf3VnllYqr40hjPIQKKQVVCYlbIOQSE+dapP3mHyJNeC0Wb1lTcpLMpeHH1a9LjNQ//SpmpKlpS8iztvN8smhDbUnU6L3u1KGMMwjhJ7a612CLIKbfhSLq1ohbTfYa959HM2bW2SnD6ljXCHjPACN0y7M9dqwU0Dpo9fxtsCPNEhO6033hBq9+/WmTXOMI6hMrDIylzT5tWo/UnGGU+CNkVRXiwaVRDNdEt0CfExT4ctJeq8UemPbi2Kb8ILprzSRgDHDhTAmsKa3d0DjDdcPx3wd6J3cwEq+oz5x4spu8y1Vjiy3v2CNZRN5XB+AG3ZVnnw7+PTq9bp6QEUe4I6eg/swzgQLk1frMFw4kZDMBta17KZqvexm1QQlfM75GIE0nDhj7FPHqpeYJao8wwxBbySKd/wBGpEHmkkYd6/zgZDzOkaVI9uQOx0wU/wCs6I+/n+/JcfOQyaWCCSNixq6iYZQlDhvfiBnnCaAcL+FiZztMFUEszu80goKreC+UODRS1cZ4/jsQADLDaml+BfRCmmv5xtL8N6k5AuYT/blbG4qYspvya9z7HNbT38tFtvjhYGrYBjAUdGz8i6qexkk4inNJzmaSN4kuzuofAXVBEmds7sPj303HHg5I9rlk7IecYyvgE+wvF2Tt14nfQm4dRlaQg8fMENJdK+sZSQCgg+n8xowmw/A4UcURq6wokB9nUO1ukpaUXOs/nepYBXv1m1FThvp3BhWwufDB1woug7pOtv8A+5Mvp8PHMcJyA+eikgvY6MsUflSsyT/a2hBxdYPLjVGDaEOBThnzuzPubBWU6rsYt45prqNChWlEFklxE2hG3rtMUVbRUx7vtDkWrgiCq3AAlKs2VQWCOx2ayR/RbrjWnm7dvTAGIfPKadpXMZzbsvNwRom2Xy1TYNeKBBggH9hQ99En0cxHh24bJv8AXX6tHgKD9FIQztrU1Zuq/POGaH+79zK6XG6+vrlktIRcAptQm/Ux7zEEaWKnAcwsTYUFmPCwsaJri4kA7/n+bJyLDQCzg48QARff1EC7Deve7WncF3tC5MCvT74hObbZkSSuyMCoQU0dpIsMeOFxl5P8d9RSEs1AMYuAdiwLOCuiNZfWlqf+MUfe+/fdCLEhgYT+8ZnK5k+L7Pe2S0ZlFRRbCd9GUnUuRXWRV67O6ua9YcL6zWff6tevzYlQwww5pOrDxKzgR0Ep2y8+Pn4XambZeCVNJi3ELzZVt67Djb9F6eh0sc0tij2b7r/qeaDOS/I0U8gA0wrvC8ymS1CmBQHtUTTymG+ehSPcZxPSgQMoVUAdZQo/sj+3sxkMDzL/AH4woqzx1xongZcMECONcoxNjCAgTzvqco2dbw+pggHSwwIVcg2Sw//EADIRAAEDAgYBBAICAQIHAAAAAAEAAgMEERASICEwMUETQFBRBTIiYXEUUjNCQ2KAgZH/2gAIAQIBAT8A/wDI0Ncek2mkPeyFIfJX+kb9lf6Rv2UaI+HJ1LIOt05j29tt8weBkb39BR0Q2JFymUrABdWgYh6Z6XptRhZ9J0RCyosaewpaNjt2gBSUz2f38sdcFG5+7ulHC1rbAJrMo3CmkDQnvLiTdNe4HYqCqadndoEEXWycxZUWgIsupqNr+hYqSJ0brEfKHVS03TnJrbCyYApHgNU8tzZXV1mVPVWNiUx4cMCijhLC17bEKemdHuOvkzpo6fOczgmgAbII7BVNRc2BRcSVnWcrMg8qlqrfxKa8EbYnApzMw3VVSZSXt+DPOdFPFnemDK0CyAQCrJ8jbApzyidINiqerLDYlRSZxgcbJzQRayq6YtdnaPgj7IC5ACp4cjRgE92VpKqZc8hPBdUdTkdYlMcHC4KKsNDxmBBVRCY3/wBH5OkhzHOQmoblXsFWzWaGhOPFRVIFmlA3ThstwU03wsqqEPjNuwiLEg+PkWgucAoWBrQEE0WCkcADdVEhe878bXWN/pUlTnABwc1MFjgVZV0WSUnwfgzzUjLyFyYNk3vCtla1hF9yi5X44ZSx4N1DM2RtwUUNFfFngJHj5GkZljaftBMRKrZi6U8oVDPkkyk7FA3COhzA5pH2FOwsleP7+PAuQPsqNmVjR9BeFGLBVc+RhTnFzjfG/G0kEEKjnzxAHtFDHwq6HYuA3Hx9MzPMwfRRwBsF+Rlu7KERhZAcd1ST+k/fpMdnaCEQcWqdoJU0XpvI8ePjvx8d3l31g0bqQhsbifAUz/UeThZW4bKyIwvZfj5w9mU+NDVL2q2EPizeR8bYlUkWSNFNC/ISFsJtpPCSirlXVFMWSBNN2g4hPHasCxzSpWFkjm/2fjKOHPOL9BM2XbigNl+Tk/VuN9F9XfSLSnNP0iCPGEZsVQTZ2Zboq5TU5Abr8lFZzJB8ZQR2izeSmhf8xR6Va/NM76vgG3QYjHZOaQjgNAWUNaszciJFk5zTjRzujkG/lA3a0/YRTE/tC91XR5oXW8bo/FMaXODfspjQxgaPCCH7lTvyROKlN3Eq6bIi+5BTpc3aMjSOk7fAYXx3+0SU65VsQbL8dM6SMtPYTu0ztO3K8pwDmkW8KZhjkc0/fxX4+PPMXfSODAS4r8hMGtyhE3VlbXfAEK44KCbJKN7XTvtM/bC2H5Jlpgfivx0ZbDmt2nnddgJnblXyh03KOBhs4FRPzxMP9Jn76Pycd4iQPhToYLuaP7UTckbR/SkTD/EL9Q4qZ95HHWRqGJGr8ec1OAmD+QxCqGB8ZCmjMbrH4Q6KKAueHOGy8KRR/qFLtG//AAjucLrviHWgjQO1+K3gTe0EekERcKqp87XC26LS0lp2I+GgiM0gaOvKijDbAeEVIoTdqm/4T/8AC86yhg7WdP41toCh2mp/jF7QHXVfTXHqtH+eEcY9iAXEAdqkgEUY23TR5RUnRVPuwp4ux3+E4We4K+o9q2BCa1vm6cAOsAcTpoW5adq8odBHeQDGQbhEXFrKspzFISOifZj2NBT/APUI/wAK2yCPSk6VMf2CI2VWzJO8K3F4VlbAHAo4sF3gKEWhaP6Te0Dso7l5OL+kOlNE2RhBCljMby0/BUdP60m/6jtNa1os0WCd0h0nJ6g2ccPykWV7XfYQ5Do8I40zc0zUBZgTe091mqIWbiRcFNRCrqX1G5m/sEdvgI43SPDB2VBC2FmUYE7jAp42TNpBh+Riz07j5GF+Ijh/HtvME82CjTv5OQG2i25wIVdT5H52jYnf3+/hUNN6bA5w/kcdicCnDZHZ4KBuE9uZpCnjMcjx/ato3V1dXV1mWZZlsiLavxTLvcfpSG5QOVqiB7Ok9oJylibIxzT5U0ZikLT76hps59Rw/iOkMRiQpRZwUBuwYflYssjXDyNJKutlsrBbLbAI6vxcdoC8+SibuVsxAQFgNLkMCO1W04lZmA/kFY9Hv3lPF6sgamMDGhoGNk3EqcbhUztrYV8QkgdtuBosirara7XKgbkpo2/0rqFg71OF2lDrCycLBV0GQ52jY+7AJNgqSn9Jlz2dI6xIU3hQnK7AgEEFVkRiqHjx40WVlYKwVgrBEcFHF6k7BbYG5TvAHQCY25TBYW1jFwupoQ9hapojE8tPuqKDO7ORsFbgKc26Z+6b1h+Tp/Ujzgbt71jA4nV+PiyMLz2cIkNY7OJRVdTiRmYDcIixt7iKMyPDQFFEGMa0DiI2KOzk07DAgEEEKtpjBK4D9b7K3EdNJTulkBtsEBYWA2CDSU1tuDooYuCc27VWwBjszR7ihgyMzuG51nTI2yi3bjU04njLfPgqWJ8Ty1w4joggfK8ADb7UUYjYGgdINumMtwkIYlWU0Ye0hSxOjcQfbUdP6jw4jYIDkkF1C7e2JVXSsnbY7O8FSwPieWuCtxZVBRukN3XAUcTY22aE0X2TGZeJ3Sb1iUQiFXQZ2XA3CIPn2Ixa0vcGhU8QiYAByuGyBs6+AwKlhZKLEf8AvypqZ8ZIAuEWgdqysrKythYJkUjz/Ft1DRhpu9N2FgNk1hKYwN4rJ/SZ1oKsnDwVXU+R+dvXtKCnsM7huUBbmeACmbtCGORPjzKaiY8dbqSgkYUYZAf1WR30srv9pQhlPTU2kkPeyjo2j9t02MNsAEIymxIADiAwcNkNTgp4g+MtUkbmOIPKdNLB6sguNgU1oAAHPK3dQ7gjEYuThdGNp8J0Mf8AtCMbb2AC9F30hT7blNgAQjA8KwHGNHlBDS5qrqYOGdvY9iASQAqWD0owEOeUeVCbORV1fAlHBxsFmc42CZGB2rKwW3GCvOl3aaUNNk9twQqyD0n3HR9hQU9z6hVvYOFwULghDcI9oI4vcGhWc9Mblxvy20FOCahqIVRCJIyCpI3MeWkc1PCZpQ0deUxjWNDQPYnpO7TP1CKajgTZBpe5AWGi3COAopqGsgFfkKbO3M0bjlG6ooPTYCRZx9kU8KI/xtgMX9KPs8o4SiEEOuB4vsqyAxSXHR5KCnzvzuGwQ9kU9Rm2BwKcmdnmHC5bK6CsrI6CquASREDsIgg2PY4BhHGXvDQFFG2NgaB7Mp62TekUMHJnt3YDpDE6XC6/IQBkheOjrGFi4gDsqkpmxMuRudF032DxtgzpHFybz34DgCgcTqqYhJGQR4T2lri0+NIxo6bLZ7xv4VsXFN3VkAraDxORUZ20FN9ucBoOor8hEQ/OBsdIwo6cyuzHoIAADQ9MQwOg8Tk5R6W+xGsoaDrqYs8ZCexzHFp0saXPA+yoImxsDQrYlFRhAYlDA8RT1GbFX0BD25Q43i4VZBcXHY0BUEN3F5+kNDuldR6b4HiKem9oHSD8GVI3f/KqIjHIdtji1pc4AKnjyMtoKd0vKZ1icAjgeJ6HaCB0D4Mp4sqmL1Ij9r/TS/WH4+HM71D0NAwerbpn6jEnAI4O4Dg5ecGo4j4STpeFlagCSAFTxenE0YjF2DP1GgYE4HgODl5QKadsSgfhH3xoYc8pd4boGL8I/wBcSgjyuTkCmfr8GNLsaSIRwj7OtyJ3UXWN0eZyempn6hH4IYnAp3ei2g9JyI3UJ7HAeJyeh2mfoEcBE94vewRhkb/azC9ve20nB+wVsBpPSKcov2wOo8Tk5eQm/qETYKCRhkPqbNVZHLLTEQPH9KBs8dH/ACOaQNQqiZ7TXabrPktc3B6KBuL+4HE4KwwGg4FOTNiOA8blbcJvSAzyBqrGB0rI2g3HafXOjjbFGLABNrJQeyniKrjcHWDx0ftfiZxmfTTAG17XUYsCPo+4HCQirIaiiU5XTDcXxOJ5HBeUOgqNotI613AlNmcZ5nk2KjbnlN+h2nSU7nZA0X6TP4SWv0VUD0q6J4PYBKhdm9Q/93sihzFHAaynIlRfoMTzuThYhDpQEeqWnbME1jWVEzD9myB9KW58psMbXmTPte6JzS3VQDNVsY3wAFSMc2Ih3d/dDWUeAopxXlM69kU9N/UKUHLcHdu4U8UoYyqzA9XCfG2RuZhuhCbqpcYAG23K/HUjwx9VJcbbKMWaPZWVlbTbhPCSnYM6V8DieQhOCYP4hEBQOaHGJ4BY/r+ipvxcwe8wvAafCghrXR/yLWNB7KdQs9Zs087XtA6UtR6sYjijIYEOh7m/DZW4HJx2QTDYezcCo/1wLQQQUXTEAesQnxySDK+VxCjgjZaw/wDukfCnFycmr6QIV1cq+i3G5M4hy2VuC3LcYE4uKcmrwhgSr85TPbWxsjpA9mU5NKHSGNt+cpvGNFkeMjQOe6uroop6aggt8B3jblHfGNN0RxHrQBzXV8SU4o4N6V1fAd6bcY74xpthblHJcq+N1c4ORwb1oGoe1HBZW1+NA5Lq+o9YtQGI9iArKyGsewONvaFFAJo20DTbkHBbAexsrextgFZOCKCHXCOQcNviCimhDEawFZDQQrfJEIKycEe0ztW4QOK3x4wsgE4JyZxD5gBWwCanJ/aYvCtgNQ9sUEMTgPc//8QAOBEAAgEDAwMBBgYBBAEFAQAAAAECAwQRECExBRIgQRMiMDJRcQYUQEJQYTMjUmKBsRVTYICRof/aAAgBAwEBPwD/AOxsqkY8tInfUY8PJLqUfSJ/6m/RIfU5L9qF1aPrBlPqNCf9EKtOfyzT/wDgFavTpLM2iv1bLajLtRW6jVnJqOfuKHUK6ys4Jwu4Z7u8depH9zFc1l+4hcprdbjqyTyRuKsXtItur1YpKbyv7KF9QrJYeH/YtzP81kvep06Xuwl7xXuqlSbcpvBUqucsIsbfunmSKFJQgkTpQksSimjqXSmszglgnCUHhm69SNWWMNntJEajyQrterLPqs6bxJ5Rb3FKvBShJP8AmXwdT6iknCnLb1ZOfc8snJvYtaLnLdHT7NxipNeh2naOl3LdF/0eE05wWH9Cva1KUmnwjtYlkWil/Za3VSjNOL3LPqFOulGTSn/MdTv/AGUfZw+b1ZUqSm22TXbvncipSa2Om9L7YxnIhQ2x6EaMfoKlE9miVJM6n0j2mZ09vqi4tp05PMdYsbEUqzpyUlydN6oqyUJ8/X+Wvrn2NP8At8FebnUcskpehJ5Oi2DqzUpx2KdJRSSQorBgSGtep9LhXh3QWGXls6MsY0S/sfBnSjUlB7SwdLv41EqTll4/lJSUU2+EXt4qs6iz9jf6ksJltRdSpFL6o6daexoQ+2mfBrXqvSoV4upBe99C6oSpTaccC09Rs9C2qOnJNcnT7pXFGOX7yW/8n1S6UIOlHl8lWWXsvUk+1EU5M6DYd1R1WtkR40Xi0Y0610pVVKpBFSm4SaZFtPdGIOMfcXBVppPOkXg6ZdexrLMmkyMlJJrh/wAjUmoQcs8IvKznVcn6jZUlmRb0m5I6bbqhbwSXKTFEx8BolDuTTWx1rpcoN1YR2HF+pSqPhlZpoWmWjpF17a3UfWP8j1Gqo01DO7K8szJiW50GzdWtCfpEhHGPh4Lm3jXpSg1yjqFjOhUnHHDOGSZkQ2dFuPZXajnaR6L+Q6nWcq04r9uyGnndlT0IU2zotl7C1g3y/jdasnWoOcEu6KKsHGTT5yIetKpKFaMl6Ms6vtbenLOdv4+clGLb9EV6jnVqP6see7YrSy0dFsvb14uSykyMVFJLgWj+HKKcWmdbsHQruUY+7LcezJcaZOGdIutoU29v4+/qKna1X/xwJto4eRQ7p/8AZ+HrZ06Dm44b/QdUtFc20o+qWxXpOnKSlyhPK09SSLObjh5LS4jXoxlnfh/xrOuVkqUaeeRcE2kuSyh7S4pwXrJFvT9nRhFeiMsXwGzOuDA0fiCy9lUVSK2YngejSKDilFYOk3Xsrl0n8s/41vG/ojqdy61dyyJvtRUZ+GqEal13OPyiWjeDu+DkTExGx1O0VxbTjjfGUV6c6dRxktWU5M75RqqonjDRb1VVowmvVfxnVrhUbWWJby2RLfc/aiW7PwzQ7aE5tYbOEZGJC8mY3OzHJhfUSX1MY0ksn4islCsqiWzFjOBJaQ9Rt4OhXPdCdKUt08r4mH/Adcrd9yqfpFDybdhCLlNfc6VSVOzppf7RRZJqJ7RPghWjIUoS4ZhGPGMcJyZCu6laUf2odKp7XKexUVTuSgUU1H32NRGjqllTuraaa3S2K1P2daUX6NrSO6ZT4Z6HSa6pXccvlmc4+I/11ap7OlOf0RKcq9apUe7bGm29x/IdOoe1uKax6lvBRhFfRCwV6XfBpPco03GDiynRVPOGU6FSM+9NLck08fXXGrqyewkk8pITYjOsj8SWHsqqrQT7ZCxgS+b7EHiMiLIScakZZ4aZaVlWt6c0+Y/xXW7h0rXtT3myzhmMvsd2Zsk/dSPw3aOc3UlH3Yi4O5jfivBjjqvDB1i1/MWVSPqk2iPOBLd/YxiMvuQ5Q+WdBqJ2vZndfxXW6/tLvsT2iixiuwrR7az+5PiJ0K3dGwp93L+NgxqtZLKaOo0PY3tWH9iWz+x+1/ch86J8s6DW7blrPP8AEzl2wnL6Irz9rc1JP1ZaY7S5jitL7kI+0rUopcyRbw9nShH6JfEfkvD8S0lTv1P6xPRksKESl/kiT+Z/ctK0qNaMkW1dV6UZLn1/iOr3vs6MqUGnJrcp/MWqwkXixXmWMVO7or+0R+NjzfB+K97il9jGzeSe2C3jmrH/ALJ/MzuaaOm3kqVSL7vdfJCcZxUovKf8NfXUbahKp+70RcXEqmZye7KPzFt+06isXDOnTSvaH3QvXzWq8H8D8UNO6pnbsVOS0SzUn/tiyRIhJuH2OjdQUH7Co+cdr+An+tnJQjKUnhLk6pfTubh7+6uETe6RQRbcxOqLFSD+sS1fbcUn/wAkU5Zin5xhnl7DhD0qDWCKbeCSjHiSMRa25MYH8D8QVu6/x9D9pLdspRUbKpL1k8EhooNJTTIzampJtPJ0u+VxRUW/fj+rZkz5NnXL/GKEZP8A5MynIlvIoIoZ906rH3KciMsST+jOm1VVtKMl9PPuO47jv0UsHc/gT2i3n0OoTdS+qNvPvD+UfJdf6dvTpjQyHzYGmmWtzUoVozi/XcoV416UakfVfwLOqXytaDcX78liJUqTnKUpSy2U1ufuZboovdHUo5tU/ozJ+GrhTtZU87p8Gc/EXwLmXbRm/wCmTffcz/uTJ+7EtaXtK6zwnll7PvqPcYxNqSaJd2cs7jo3UPY1fZ1Je5P/APjE00mv1S8MmSvXhb05VJvCSL+8qXVbvk3j0WkNoti5KG0SlIuV32c1/Q+T8PV/ZXqi5bTI+eH9DD+hhnazD8ceHV6vs7Ko/wCi3jmrkr7RKEPY28pvllR5eRjHyN5S0gzo997WmqU370f0GTJkzq/HJnXKW74Os9QdepKnCT7Ex5ZGDZU7lsRKXyopsh79CS/4sqxcZtMtazpV4T+jLKuq1vSmnzFeEYuTwUrRPlitII/KIdmhWR+SX1PyQ7Jjs2lllSmoLny/Etfss1H1ky1h7reBwdWskuFyXlVbQXoiT0kxkd0SIcltXlRqwqRfDLWvGvRhOP03/Xda6iqMHRi/efzDefUikyK2K7fctyHKIY7URZaSzTOow7LiX96fhi6VS0nTb3g0LVNrgt6inFfURmR3Negpv6Cm36C7hvHJWkitJSm8arX8T1nO5p0l9CEXCil6kMUaTl6srS7pNkhjGU/mJGcEZ7HSOoOhW7JzzCQnlL9ZfXStqE5t7491f2Vqs6s5TnJttiILczhE3mRDkiyLLGXus6pSz7+nQbt299TTfuz2aE8oT0TLat2TWSE4yWz8FIcirVUeWVrhvZPybwXlR3PU6s5cKQvUuqm2ENkmMlpB4kmTayZFIpSbaOj3rrU/ZzfvL9W2km28HVeofmqrjH5YvYeSMSCwVHiOlPkTIsspYci8j30hpptP6kG4yUlynlHSrlXNjRny8Yl4wrTi9mQu36s/N/2K5/s/NwKl5tsTqyly9M6LXqtz+Xsqs87tNIoRfa5S5k2yclGDKkssY2Nj0RJcawk4lndyo1ozRa3MLmlCpH1W/wCq6zfKjSdGL96XJk2YlpWlsIpiIlGp2yS+pUXdSLiHvdwj8OdQ9hWdCb92fH3F55f1Mv4PXLj21ZUYv3Ic/c4wi5lthEmMYx6vhaxe5FnRr90Ksab+RsTTSa9f1FxXjRpSnL0Rc3E69ec5fXSKEhvBUeWIgJkSnL/UiLeBXjvJC2ZTnKMlJPDTOkX35y2g388VhmTLMi+J1C8jbUJb+9LZDblKUpPLbJzUE2VKjk2MbG/Fbw8IFOfa8nSL32sfZSe6/Udav3WrKjB+7Dn+3oiIxskR5IiI8EJYkmUKvfuXSxVKixIjg6XfTs7iM8+6+UW9zSuKanTllar4K0urunbU3KTTfoi4rzr1HOT54ROajyVqvcxjY2Nj8Iklh6oT2LK4lRrRnktq8a9OMk1+m6vfK3ouEWu6RKTk23y9IoQ2SZKRDkQmJ7C5LWaUUXke6PeTWYmcEHk6b1GrZzWN4PlFtd0bimpwkv7WRSMmTPnkvep07dYjLMyvc1K03KcslSajuVarkxsbJSGxj8IfMTHqmRnh84Oj3/ZV7Z1NmJppNPZ/pKtSNOm5t7Iv7qde4lOXpwZFuLRsnpDlaRFxpSm08Ia76DT+hw2irHDIzwU6ikWt5Wt5d0Jf9Fn1OncRWZKL/sU/7O87hSO4yZEyrcUqSzKRedWnPMKWyJtybct2VKqgslWs5v8AobGyQyQ/Gn8yKiHqmdxCTUk08HRb51qSpSeZRX6PJ1u/7p+xpy2XJJtvRCRIbJPSA2RPQbIywyhLupouI9tWX3JR74jRF4I12ync9nqWnW6lKSTbaKHWreqvoyF3Qn+4VWm/3I9pBcyQ7iilvNFTqdtH5X3MrdVrS+RKK+pVqym25zyyVWC9SrdfRlScpvdmTI2N6N+UfmRLdDXPhggywuHRrRmihUjUpxlH1X6LqV2ra3niSU5L3SUpSbbeW3l6RQlpIZIRHSJ6a2dTMUi+jicWU36FWGHkeiKaZCagfmqnpNojd3GVibZGtUxmciVzT9WO8iSu8rglczZKbb3fi2NjY/FaRfukh65ERqNLB0bqHspqlP5WJ5X6CUlFNvhLLOpXv5itLbZfKZFHJGIkMYyQhaRPTTJZT3SLyPdTz6optqRUjmJJYIkEOSWwpFKEpy2RCnToxyytcOb24O5ncZZuNa5MjY34PVaU5YRMfjlot6zi0291wdLvPzFDDfvR/Qddv3BKhT5e8mMRTiYSGMYyQhPSJ6GdLeXbUiS96m/7RPaTRGWYlde8IUhSLS3lVefQlOjQSXqVavtfU2MGNZaN6ZH4MbMmSOkGTH4sTw0WN5OjXhOPoyhWhWpQnF8/Gv7yNpQlUfPoi4rTr1XOXL0hEisDHrIkIWiMj0pv3kUpKVMuI9tRlJleOtKHfNI9orejlLcnUlKTbZ3CkKR3HcORkbGN+THqtIck+B8+cajidC6g4S9nOe0uPohPK+JJqKbfCOtXv5iq4xlmMWZbEskI7DHIyZ0kxiEtF4Q5LZ+4XsN1Ig8SJrMWNYelqsSyXUm4IydwpCkKRkyZ0Y+fB6N+K4IEt0PxxphFCfaudzpd4rmhjHvR2+J1y99lQdGDxKX/AIG8430prIlsSeBy0yNj0wLReC5LR7FxDugPZkJZRWjhtmShwi5f+mh6ZMsUhTO4T0Y/B6PxXAhrYfwI7HS7z8tWTk9pbEZqcVJPKfwrivChSlOT4Rd3M7itOcn67aIpQ2RLZE6mdFox6LwyN6LktHuPdFaOJspPcuF7mlHhFf5B+SYmZ1Yx+S0XAjI/BaYMCIyOhXbq0PZSfvRW3wZSjCLlJpJLk6vfu7qdsfkiZ0pxcpIjFKJVkN6LjRjFouPB6LktXiaFuXEMTZF4ZW3pCW5R4K28B/Bzo9H8BaJj+Cjp9zOhXhJSwspMpzU4RlF5T828HWepKpmhTlss9x3emttHYnsmVJZY9Fxoxi5EY28lyUXiSIbxRdxOGVH/AKeCJTKvA/gpmdXrjzXwciEdCuVKh7Jy3Xn1bqCtqfZH5pom8tvPLFokW8cRK7xDA9Vxoxi5EIxo/ClyUd4Iu47GCfykVuRKnA/HBj9DExt8L15OnXMqNeDX13KNSNWmpp+NWoqdOc36IvbqdxUlOfOdvt4QWWUliKLpjekdJaoSEPR+FN7lq/cRXhlE1uSFyhcEuBrDGjGiWrRgwYZhmDtO07Rox5RHx448qU+yR0q8eYwk9pePXbxwgqMHzuyby8+FBZmiMcIun72sUehLVERIwYH4U+S0exVXuk4vLJrAuULjSa31XijbTBjXA15x50aMGNMMeqZsJpFvVeMrlcFhdxr0Vuu5JZM6TmoRcn6F/curXk88sfhbfOhcFy/fesT0HrEWr8ERLUl8pNFdbkVuLSfPjgcRx+Cx+LQhaY8GPVCKM012nTK/sLqOZe69mfnKH106/duFKFCPMt39jYx4Wy3QuC5/yPWBLgesFuY1Y9MCSEty1kftJRLhe+LnSJPnxiOPwMataYMGBrSJjwY2N+NH5jdSPa1P9zJyUYuTeElkv7l3NzUnnbLx5W3KYuC5/wAr1hyT40wYI7Pxei0RbvBF5RNYZc/5BLSJPxicoa+DgaMCWr0j4MbGxmfCjgenXLpUrbsT3mZ8rflEeEXSxVesFuT8IiQ1q0Y0WlEovKJxLr/KxCIkl4oRIfxnpEXGjGyTG8GfGm2jOVp1a5dxdSfpHZC8qHKIF6vfyLSJJ58F4Pyost3sSLp5qyI6RJIfghDWSS3+M9IkGMkSJD8E9IshxpN5k39WLxRR5KbykXqz2swNGNtcCRBb+DWR+NJotnuhlzvWn9yKFHI7ijRk1Jd7+iIXFGpn31H+mSoySy+BrwWk18B+T0RAZIkMeuRaJlJvJnRavWkUuEXMcwEhrTB2jWxgitzCHqzBjWBbS95HKZW/yz+5BZaL61qwt4OhHunLk6VUt7a/zeQbX/hl5Us63UswWKDklts8E7FQs4/lZKUUuJb5JUI1W1Bds180HyiUXFtPVPSQ/jYEQ5HwTJD8UeouSm8M7notXoikUipHug0YxnXAlpgitxay8olCWGhPMV9ifzyI/wClbuo4/ZnSKsoWlW4qyWJ7Qz9Sj0dVa8ris+6UnnGCp0qhJY7I/wD4ZuOm1YOGZUW0pxPxDaPthf28muM4Lx5cJZ3cE3rki0Mf6COzHwTJDemdF4QO56JaswJFMpkY5RWj21JLVLRiREWr8olN7opvNNfYmn7WX3OrTqp2tJPtpNLgna042dnSjFygsN/2y4qOjQzFpSe0UynQvYQ9pUrZw89q9SovbUM4xlcFoncdMq0pLOHKJ1Cn7N0E/wD2/wDwZ1i9JfEXgmJ+6SJ640XhGR3aLV6LkppECnwXX+Zj0S0ei5Fox6pR1yU2UHmmip/kl9zqGalrSqx39nJDqznaWtWCysLuwyfdXoNR2aeUTuq9SkqMaD7pLn0KcPZW6j9Ilo4ULGrUk8JybOrVYVLmLj8vYseCYmMfwsi8FyRfukifktVzqtEPRIplJPJBYiXP+R6oS0wiK1l8CDLWWY4Lh4rVPuWc6eOyaTjLZlnc27q1en+wlBJ+488lKvVoVHTqQaedtx3cI/MyzcLtuUZZiucHV+o03VpWFFpty99oup5rzx9cf9Iy86MTE0MZkyZM+aZkT1h6kifkvDuEjBgSGjtIopooxy0ehcL/AFGOJgitGtxIitZeOTJkg90Ws9y72rz+5Sm4y5L2Lq043VGfbWpLf+0W34gtZ0qMbug5VI/uwi7uukQuH7OM685rKjBvCKXVaztZ21lZzpVJcst7SFrXdxXuYyq7+4t+SbzOT+rEIb0izJLzz4ZMiYtKZJE/JeMUKJgwPRIpot1pWWajJRMCMD50jrLnxeqZazXci+/zsT3KVz2Szz9RS6ast2qef+RTvbShLvoWkIy/3clXqlxVb95RHLbA2Ji4GZZF6MfxELjSn8xInq9VoxmSMTBgwNa01uigsIk8RY1yySO0SGiXImJ6yZkTH45LeSL35kxPRvyiMyIT0l55M+CFxpBruQ8NFVYWr1Wr0hyYMGDBgwUUUipwyRLVktM6y8MmTOtGWJIu3mEdM+aY2MyRZkn8HJkyREthsixcFVbDFxo1otWjBFaY0Y+dKJSJoqLA9Z6IWs+fHOqZTeJFd5prXPwHomJkh+TZkzrF7mdhkSLJ8E+WLjViFo9I6pLBgcdxRKfJS+UZX58KmmTuE9x8EuRsyZ8o8lXekN4ZnXJnxemSLGS8X4J6R2Z6DIkWMn6kdHrHR6RiYMCRgwYKfJAZcfMMyZKj8ENkvgobzSY9M+GTImehIyZIvRmRPVj8Mnqei0TFwMqIWjGIjo9IxMLRIwSWlP5iOlx8w9aj8ENjH4Pxg8waHz4NmRCI6SHpFnoMYtWPxXKPRaLRMnrIYiOj0S8MEtIbSIcLSvyMek+dU3kRIk9GZ0fjCWxPnRvxTI6SJaRYmMlotMj8YnojIh6MfInoxEdGYEPwkZIcohwhlXdjWjJc+CJMkzIxvzTJ8jej8Y6MloiD0n4YH4o/ajAh6MkLnSQiOj85DIcopvZEmTeWx6Pgm/CJIej8c+E/gRFpPWDETWi09Bj8Y/ItXxrIi9JCI6PReMhkOSk/dKjwhskNjZJ7sb1XBLV+S1n8CItJD0iyJLgekdGh+MHmK1esiOj0jo9F4vgbIPco/KVn7hkb2GiXA3vpkTESflkyZM6z4+BEjpJD0TIPYfBLnRCeSQ140lmJjSRnSQtGZI+K8GSI8oofKVvk1ZPglzqtJP4K5FpLgfmiOkiWsHpU1jozt8Lfh6Mlq+dWLkj4Ji0YxkiPJR+Uq/KzOjJvYeX4vxfguRaPgfPmiLESJawEVFrHVrwt+XpIkz0zr66MwyPh/8QAORAAAgEDAQcDBAEDAwMEAwAAAAECAxAREgQgITAxQFATQVEiMmBhQhRxgTNSkQUjNENTY3ByoKH/2gAIAQEAAT8C/wD17tSPUj8nrQ+T14HrwPXgerD5NUfkyv8A6FbRKtFD2hjqyfuav2ajWarZMs1iqsjXkhbSvdEZxl7/AP0BKooktofsSm/k9VHrHqs9R/JrZrNZrPUFxtkyahTIbRNe5HaIvqJ5/O5SUepU2j4J1RzwSm2OWCVU/qUR2jPuRqGoyZtkUvkatm2RSI1WvchtP+4Uk/zfJVrKPTqVKzHJsbURyJSJyJyd41miFb9ikZMmTJGY7ZMmTIpEarT4FOun1/NW8FWv8Ep26LJKWRjZJknl7ibRCqRmajN1L2GLejPBS2hrqRkpLh+ZOSSK1ZyJO8pDY2Nk3vLgQmKQmK6eVhj4b+op1nEp1oz/ADBvBXrZG7yfsMbJMnK2DSaTSaTBpIyExPcTTV1fNkyM8FGunwf5fXrdUN5sxcEMZJk52SNIqYqJ6J6JoNJpEZFIyZEfvkxlgo7R7MTT/LK9bHBMk8vck8jGTnZISIUyMEYMGDSOA6Q4mLJismNWTGhiumRk0UK2OvQTTX5VVqaEVJvc9hjZOeLYEiFMjAwYMGDBgaHAnAxaLMiIv2GhWe4rKRQrYE/yhvCKs9TGe5Ji6ZGxskS4swRiynSIwMGDBgwYMGkaHElTHGyYrRakry3c2UjZ638X+UbRU/iTZm2MyJP2QxlSXsJEYlOmJCRgwYMGDFsGBo0kqZKNosQmJ8OVGWChU1L8mqT0xKkssYlxGZwhsY2dWQgU6YomDBgxvYvgcScSccWVkxOz3FuUamlohLUvyRm0VMsYyJ+yTGZJEIlOmJCRgxysGLNE4ZJQwJmbJiZpTRwJLeTNmq+35JXnpiTZkZFcCbHZnUowyJCXPwYGicMko4EIQmRfAfIpzwynPVH8jrz1SG7e43hDY7SKcckI4ELsWMqQGjIhEXi7st3Zan5FXniBK66lSXEdmdWUYYWSIuyYySKsPeydkyLyMdlu0p4ZSlmK5Kzx/GNpl9WB36ZHdlGGWJCF2jJIqRwITtFj6b3tZPibLU9vyCTwsk5ZeRnvabGO3VlGOBC7VjROOSSwxWQmPrdWQ7bNUxJC/H9pnppktyf3DGMoxyyKErrtGSRUgdGJ2i+I+l0MQ7QZs89VNP8AH9slmcYkh3fV2Z1kUoYQlZdu0SRVji2REX7bjs7RNknjh+PMrvVWYxi6kn9LHaTKMMvJFC7ljRViNYEIixjt7biKb4lKeuKf47N4TM5k2MZFcSpIdnxkUoYSEhd0ySKsPeyEyPEe57WRF/azZqumpp+fx3apYpMh1Z7jIFR8RjZQjl5IIQu7aKkRrDFaD4jVkMj73/iPpGRQqKpBP8c26XBIge4z+Ixk/goU8JEUJdlk1Gs1o1I1Goyhs62kitD3EIQuMbIkReCXWy+1ieaZslXTPHs/xzbJapkLe5MbGU466hCIrZHJI9Q1EansauBkzyMmRyHIlOQ5v9nqzXRi2ifwKszXk9T5P2hSyMqR4E1pYhFN8Rrcn1tHoymLOf8AJs9X1Kaf41UeIsqvJDoewibGS6Gy08RMmRSKlZR/uOtNv2PUWRPgZ90J8BMTM8l2x7jHHJpj+zScf9wtWOpiov2Z+CM8jK8coVkP2d0VPa0Sn1KnCRsdTFTHz+NbVP2Jsh0H0PYkMxmUUQWI2z8/8DqexmygRi10srZFymjSacjpnpyPSl+jSzE/gSfwaRwfsPWTfyS4SE7Q6WQyf2r+9okepW6RISwynPXBP8Yk8LJVnqcmVHxIdBj+0YzZ1mbY+EDJK3H4NIlg0mDF1ysGLYMGk0owjF2icSpT4EbQfEfWzJ/ZaJF8R8YMi+BsNTK0/jG2VNNPHyeyJkPtQyYxmy/b/cnxSRg0igRjgwY7PKMo1Gd5k0SWGREdbMf2u0BdRM/k0UZ6JxZF5/F9snqngkTKf2ofUn1GT6FDgkNkeJg4GUZRlGTJncXIyZHLBLaf9qJ15/J6rz/qDq//ACM9eXtNi2qp8kNrfuRrxl77kkVIitHpf5tE9xFT6ZiNlqa6fcZ89WlpgxvMiTKhT+1WYyX3JFKyJVYx6j2nP2odeX+49WXyz1F+/wDk1/E2a6n9yNZMUldbzvKWCT1/2PqnwguBVj9bWTZ1SU0p8I+5VdLU9PyRSP6eE4rgVaGh8GKcukkQlJdOKI1E7MlEksMRG/uP7mRPdiK3sQZsU8Nrt35/bZ8MEeMhkyl9iG+DGMXGZAyTq4HLHGb/AMGZVGVacqcV+yKy+OWVNn0whJpfV04mMdGU6dTRqi/8CZEw7IV3uMqzSPrn7cCjBKJtMMVWO0I8UjOlJE4ubP6cjRwaBRs0VICEfF6n3MiP7mJlUgyhPE4i7fHnWbTU1TZTf1jGU/sRLoSJFPjIQ5DyssUXUkbNTSNuWdJ0E3L7n/YijY/9MrUlJ8OotcZfJBppDI7js7SHs6bP6fDEqkf5FWnKquJ/SSfuf0j/ANxDZ9HFdTQYNJpNJpMGCcSccMQvtsyr/qED+TtV6IQn0KEtVNP8U2iWmmybIS/7qHaPQqexIqPgUVbA6ZGmRWCoozhpZOm4viiMJPoiFCoxfTHCMSfuegmJYsuRjc4bmDBgxbFsDRWgIhet/qIgLq7VBETYan3R/FNun/EqMT+smIj9pUJEuJShhCgaDQKAkaD0z0zSYvjs8GLY3GicSSxIjet90SAutp9BEGbNLTVX4m2bRLVNsqM90Zyke4uiKj4sZSjqlkhA0mDBgxfN1Exy8XwY5rRtEPcTvX+6JAjafS8WU5aoJ/iW0S002TZMfUh0suiJ+5UfA2en9JBWwYMGLYNBpMGO+qxyhC6Wr/xI9CPQ9ifQVomxyzTx8fiW3T/iSJjKb6WX2khLVOKKccIW7gwYtjwEifCbIWr9Yn8GRGS+0VomxT+v8RZtMs1GSJDIdFb+P+BmzRzJsXiWMr/eiFq3WI/sEMn0FZFGWmSZGSks/iFR4g2TZIkMpdCLP4EjZY4gheJ45YzaOqF1VqvWBP7V/cVqnQjeJQr6JaX0f4htdRY0kmSGMpdCPU/gS9yj9kRc3PMyJ9gzaRdUMn90Sf8AG9ToK6PZGyV9S0Pr+HV6ypxJsmSGMpCM5pkin0XNb3VycmrBF55zNpENj/1CX33q/wARXRF/SyMtLTKFX1I9kvNTkoxbZVqupMmSGMZR97R/0xkOiFy295GR7zVsZIi5rNpES6nWoe95/wCohXRDqe5RrOnPJGSkk12FTOOBDzW11svSiPUqMkMZIo/cxC+0ZT6Llt7rMikZMjYmJ7jIuyfNZtH3IRLqR+5kb5zVYtyPsT622TaNL0voL8J2qtoWBtlP3JjGMkUvuER9yRQf0rezuNjd8jmevB/yRqMmTJkntEIdWS/6lBdIsh/1GEvZohWjL3Mk2LnyKzzUQuo+rPZkelm8Jspdd1E+KVkbLW1R0vqvwipUUItsqz1PI2R+0kMYyRD7yJFjNnf0oQt/I3ds1lbVPgf0ifuehUh0kQnNcJIyZK0pPhEWzZP6GItlghR0msXFi5rtN8CXGoxD9z+IrVXimyluo6wYrQm4yTKVRTin+DZNqrOcv0O0uCRKzJDF9xERLqbO+LFyGO+CUDSxKzgYZxFESMGDSaBIxz6r+lkOMpCJPgfFkV39qILcVo/B732es4T/AEJ5/BdqrYWldRsYuMkVBjGMY+pT6CJFF/8Ac/uLkPdwaTSYMGk0mkwYMGDBjsNol9JTE8Jj9rI9hvNQj03URKi+tivslb+Df9vwStV9OOfclNyeWMZRX1ZJjGOzJFL7bewuDT/Yt9vus2zvM2lkFwH0vEqS0wZTFvRZW6p/oQrRel5RQq+pD9/gUnhZK9X1JZsxlH7WTsx2ZIodLsoS1QjvsXgGM2hkSXQZERXl9WCCFvzWYL9WV6NV05EXlJ/gO11v4odmMgsQJDGMYyZRFZmzS4uIt9Ge3zyZFb78CJjIjemLFxkLkfxe9slb+D/x+AbTW0Rwuo3d2fBJDs7smUfuFeL0zTE+Rncyaka0azWjNsms9Q1mpGpGefIn/qiJs9yJWl7EFyYdR8G7JitFmz1dcf2vPVaihHJUm5NtmbSZkgsyROWR2e5Mh9xG7XU2eeqK5DMmpDqnqmo1Go1Cmaz1DUjUjUjUZMnqM9ZHqo1mRcmfQ6zbtNkTOEdWR5KKn3XV6NXRJEZKSz5xvBXra2O8nagurJXe5MXUg7yNneJtbzs+hNtDq8RM1ms9Q9Q9Q1ms1ms1Gs9Q1msciUhSqN8ClCXuaRcms8RID6EnxIIqy9iCFyUT6K63NlrNYi+nnNrrfxX+R3kx2o/YOzHuTtSfAV+koP8AZHdYxodNNE6Kz0ND6GiRol8HpM9JnpyMM424mGKEj0zSYZokKl8lOmvgS5e0v6RdCqxLLJPCPcjy3xjvqTNmq64/vzW0VdEf2Sk3uTY7RWIJDsx7khlF7jKDzBbzvOJjjdRMDRhe5iBiJpiO+DTZIiuWzanxirTeWLgTeWQXMj78ijU0SyQlqWfMTkoxbZVqOcs7jGMistIfAdnuyGU3xIvc2aWJNbis7yRK2RNcnhuRW+91lR5rf2KjxERJiIrmRJcGK63NlrfxfmNrrZele24yTvRj9WSV3uyGRKb3FwkmJ8FyZIcWMUjJrNRqNRqNRkyZEKJjmTfAXu/llTjIzZIXMTJ/dyE8Gz1dcf35avV0QJvL3GMdqI+o7PdYxFNi3NnnmOLrfcRwGmZl82waTBxtl/AkxRFHms2mWIf3OkboXOn7cmjU0yTIyUlleUlLCyV6rnPO492mvo3HusdoEXuUZYmLluI4mN3SKIlz2V5ZqY+Co7xFzn05KNlq4+nym11f4rde4kdI7j3mhkCD3aU9Uedg0mk0mOxqT0xbHwWRuyFz/beW5HgzZ62tY8lXq6IZJy1PcyPciPce47SQyIhOztSnpkJ3W/i2DBgwYMdg2V6mXgnLN0uwW+r8SjUcZZISUop+QbwbTV1y/W692n1Hd7rESGIiRdmr0p5ijNly8GL4Mc1sq1NMSUtxLsEPrykbLWw8Pp5Da62FpRK7s9xEOUiQ7QsnZ2hLDIu2RPusmScsFWpqe4l2KJ+3LTNmq6o49/HVJqEWyc3Jt3yPfguA+VIwMhaO7SmJ2TM9pkzZmTI5FWrl43EuzfTmUZtMhLUs+N2qrqeE+G4x78ft3Huq8hkHZbuSFUzZMz2WTJkyZMjkVa2eC3MGOUuT7cxGzVccO1fb7VV0xwuo3y0dLOz3JCMDJDF1IjI71OrnrdSFK+d3O7nccjJm8pqJVrOf9txLmLkol15ikbNU1Rx4qc9MWyrU1ybM3fIh1HyPe7JDtTdld7lOr8mbKQpGTJkyZMmTJkyZMmTJKZm+SpVwTm57iXNXJRPmZKVTS8kJKSz4naq2p6R8yA7ved3aRTd1drcjUcRTTtqFM1GoyZNRqNRqNRqNQ6g57jkkupU2j43UjHYLeRLpzUzZauHjxG01dEP2TfNgO7srPeZMXUiMW5gxdNxIV/kUk76majUZMmTLNRqMu2LOWCddexKpKW6kJduh9OQt6LNnq64/vw05aVkrVXOW6+TDcfKZO0Lxe5gwYMDRmS6Edo+URqRl7nDk8DI6kV7kto+BzlLq9zBpEhLmrlrsKNTSyLyvC7XW46UPnR6XfIV2SGU7MTFu4MGk0jgh0zVUj7i2l+6FtUD14fJ6sfk9VHqx+R14fI9oQ9o/Q6snu4NJpEueh8pWfOibNV9vCV6vpwJSHd8tdLvde/JDRT6iHZMXKZpyaEekj0hwMGL4NJg0mkwY758hb8JYKVTXHwTeCvV1tj5/tZ2fLkSI9SNmIT5Dtp3GxsWTQaDSYMGDBjvlZ9Ow2erpkJ58DtdX+KHyc9syVoOzst3I7Y3GOQ2JCVsbmPALsl1Nmq8NL8BUmoRbKkstszvN8ldgyQym7NWQt5LcbwSkdRREjG9kyZ8jCbi8lKprjnv9prapYXsZM7rfKj2DJDIMVnZXdktyTwOR1IoW9kz4R9ex2etokhPPe7VV0xx7sY9zI+XHsZEhEbSVois92UicxJyFBGDHi32KZstbP0vvJzUU2VZ622Z3GMfLXYMZK0BDshWe4ybEssjHHKx4R9lCbTyilU1xz3e2VsvShj3HzV2LJK0RDHZb02SIR/AUbNW0yE82kKOPfttoq6IknZvcfNXYskMgKzVkLcZK0d3Hntlqao4s4i7VvCyVquuTfsPcdnu47qQxEbOyFuSJWj4t9xSm4SyQeUn2+11cfSjNnuPwEh2iKzVluSHaPNx5ZGyVP49tWqKEMkpN9d1jZnwDJWRF2dkK8h2j5B9pCTTTKU9cU+0bNprapfq7ux3XLXZslZEbMdo3d4+Qfa7JVw8CfZ7TWSWnPEe6yTuhbj312k7Ijd2hdjtH8FhJplGeqPZVaulE5ZlvMd0Llrs2SvAVnaF3eP4Ns9XTLAn2E5qCyyrUc2PdYx2QhctdpK8RWYyF3ePkX2qeGbPU1Q58nhZK1XW/1vsd0LwErxFdkLsdl+D7NPTIT362dOF7i6b20Vs8EN77JWQvAMYxkRXZG7uvweJQqZW/KGrG9tFbC0rqPkMdo+CZKyFuRu7rxy7lFCeGReVy6s1CLZKTcmxvfZIYhC8CyVkLcjd3X4RB8TZ6vHS+XtFXVLHwPkMlZCF4FkhiEK6s9xdhm2fLIjLoylPXHPJr1NMB8BvkMdoi8EyQ7RFeN3uLss8jJkz4yBs1TTLHtydoqapjfJY7RFyl3DJDtEV1ZjuhfhET3Nnq6o79eemI+VIdoi8ExjtEV1Z7q8i+39yXsUamiSIvK3tpqZl/Yb5Uh2h4RkrIV1Z3dl4FeIfGNtkqez3a09EScr55Eh2jyl3TJWQrqzu/HLvY9BlKWGf1O5tlTMsfA3ymSHaG++XjsmMYhWV3d2XKfn4EhblaeiDZKWXd8hjHaG++9Yx7iu7uy5T8Q+3iSFubZU46eYyQ7R33Zb7EzPZMY7K0RWe6uW/Dvt49SW5Ulpi2VJZbfMZIdob7su7Yx2Vois9xi5y8C7v27zbZ/wAR8xjHaG+7LvGPchd+XfcLoO05YWStPVJvmsY7QFuuy7xjGO9MXZvz0B22ypiOn5HzmO0Bbrsu9Yx3p77/AAtDttNRym/jnMd4i3XZd6xjsinyVz14N9e3VsD57HZEbqzst1dwxjvT3/6ZuCerj8EoSi+K8m+4iZ57GO8bqz79jJXpdN1Zk8IhTjDr1HxZxNNJ/wAf+B7PwzB5/R06+Ql4hjGO0Lq679kr0/ts7U4ObwiMFSWF1tQjH7s/4K8Kain7shDXLCKezzjmXwVvRbxKDKtBw+pfVH58fK67Vdi7O0LofIXcskO1PpZnubLTjTjx6vqOm5TeCpBweGUqnpt8OpOs5pJoTw0ynVjLoVacKkZcOLGpUZ6X0Kuzp5nS6fHMXgpdN1eFY7Ruh+BYx2h0VmbNT61H/gzxM/TlfBWqerJaUQp44vj+hwl8RJQXH6M4+D08fVD/AINnr6+H8itT9SGPcjKUJcDa0nCjUxxl413XhXZjshbi7Fc9jHaHQZGDnLSjGiKX6KMVOeH8FWr6eDRwx0+SMTSjQSj148ScGnqiUZ645+TbKeJakuHubT/4uz/58c/Duz3IdNxby5a7BkrQ6DNljCnS9WXV9Byy8mz08Jyl7k46q+fZIhHj/kqS0RySqzbjjoyFWaq6ccDhJE+q/txNneJVYfvJXjrov/krf+FD9T5i8FLr4h3dqb8G7MlaHRDNlkp0XTf8WNYeCD1Q4jpta8Pq0Q6G0TWtQfQpwjgkniWnqzZ8qOlvoTWci/8AKX7RhOHEq/8AiT+NfiXuy8Ox3dqfhWStT6DNjlp2hL5JcJy/uRnGa4HGM6nH2yQ+DaPpalpIPhxKkl7s2aGmMnnqSfUiv+7S/wDxIt6Tb4qGzJL58S917i8G9x2p8pc1c5krU+iGZ0yi/hlfqpLo1k2acNGPcnDFRyz14EJ8X/8A0aU4ipzjOT/RClOUNMzhGKSH1X7KKcpzl/hFWUY0pf2NrqZ2eivfeXg3uvp4pjtDlLlrdzy2SGUvtVpGxVFUoulJkKKpVcN+3Aq09aXHoZ4v5ITwepE1om/f4I5lH44cCCSX9ja6jk/TwbU/+4o/7Y8l+AfJXacOykO0OUu7YyRS6K0kUKnpVYy9vc2hNvX7YNlk2mmyps8tWqLIvOcPDP31NUs/bg1/Vp6sXQrVdHD3KK1VVn+5N5nN/L8S/GuzHaNlyF2C5jJFLpZjNmq+tT9J/cugtUH+yhV18GKjTU2yrRzxgKg/5SIU4KWc8SrV0LHuNt9SjmNOtLH8eG67q78K+viGMYiPKW4+4ZIpdBDGiLlCSkuqJNVqaqR/yJtPga5Z6jrrHDqL1JvCyxwlF4aaZGhOXGT0r9nr7PR+yOqXyyrtVWp16ct+Fl4Z2Y7x8MyRSFdmy1vTnh/ayXoav9US2V/+sens3/uka+zUV9JP/qHD6Yk61Sp90vJT3F2r57HeCsuyXYsZIp9RbmDSYXkHvSF4ZjuhWXIXIfaMZD7heclvvwDGOyuuQu8ZIj9wu9XdPde4u1fOYx2XLV8d0z3I96u6fIQvBsY7LlLvmMj5d8lC8Exj5i75jI98u5e69xC7R85j3FyVy12jId8u4fLXaPnMdlZC5C5a7SRDv13D3XyHdd69xCvjdXId12jIC8s917qF2b5zHuIXZrtGQ8u+Uhdk+c7PcQt13XLXaMj5d8pb65r5zHuKyvncXIfbsj1F3T7xi5S8Cx7iFvOy5rF2LPcXlmLeQ7q775j3VyFyHvLs13b7ti3HZbi7N85j3ELsH3K8Au2Yt5eBW4x7i8SxeAXbPrvrdXgGPcXIXgWLwCF2r67rst1eAY9xchcpdo7sXgV2st9bq8C+YuUvMrtZb65D753XJX4Gu1lvrmLlvnu65CF+BrtZb63Vd8h9s7x5CF4NeAQu0l031d7r71jvHkrlLuV4BdrLpynZeBd48mPg14FeAW+tx9qx3XIQvBrtVzF2r68xd+yV48heEXgV2r577pXY7R5C8Iu/fbvfwY33zf/EAC4QAAICAgICAgIDAQEAAQQDAAABEBEgITFBMFFhcUCBUGCRobHBcJDR8IDh8f/aAAgBAQABPyH/APge075/+xk76/8AsBWWzf8A9KLGnsaw5gfKJwTuh8hf/wBBEuWcJs6iiluxQoKwxt7Kyx7h31joLNJ/dL8irbHtajXIfvst6G98zqx9iwvdDLix2V9mvAnQ32VC2PUBCWn/AHtNbUN2uA18clRW90cz/kdqXI0PlwCWIMKyLEyL9C5Fw/YqDTjgjWhwzv8Au7oJGnsMW27YxEF9+jey0+U94suhmvRcvX0LfYsD6XwXRehRJhBgvWK9NsTT/uiUtnS2i3hjdstXBnIbOEeaOrsu5EOAmNi2hqz2LEWX8ljBrdkXxv7k5NjRpPR8x3yKiyJ3oedXcUUUUOOljo2hPZ/x5iPRwmdRZbEyHapijmn/AHBCNvhDHpPUbYlZUv8AobUzR30PYnLSW9H1g5abhWJqrLOyhPldjXJY2qGW0OxYz2a+zav7/tzZfQ9QrYzG3e+B7YxsOhHLhQY+htcFx0G66G/o+hoKkS1EGoe1BUmaaiy2IuFXW1CW0/7YpP3C03DZVnA9cDPY7Nddm27LDSNZSFWV2Lx3ShshNpwtZZ7hfQuTqH8iMai5KA4YXBP+1K+VjrY+S6Q3fA3UpUHtij38iF4CFT6KRujaZT2Kw2xT2GqC2haHQn7RcmqhjpN6ENJp/wBoW5j2MbbFsIOZi+BtPY1zFuekM02iiKw5xsfCaDvQ5dFU43L2bDyitiZsMTOhMQTRWL00Tv8As9+nHcL2OEaC9ils0hhj9nuC8WtucQWIKg4rCmNV2jacDFTLU4hjPiLEWI1GK+f+zWTGizaLKDDvfMDlRzssEpXAikkooooaLFDSGPgLS0+RMcRsgWxBLqG2WHoUMeEJa86/qy0V6Qy5HE3YtWxeOMPejgO9nwQIIUUUUUUUUioMNRJRjmKBWE57aUaCOUfItD2xQy0OtOzrzL+q/bstGw22LoVuuhhjdlNi9dTiQhIoooooooooaGhhwloXB6N7GKy4ouYfNFiepRQ7Fq9/2Jui2+OJq2Kqi6DY/Q9ikkhRBIoqKK8LQ0IKX8FTEGG6s1i7QxdxUZZbLejck3yL+w2XyOxtWMVMIbDDcUgWhuxIJSvMgkPKg9dxLk3CUoamcsCdUOK1Fm8Oyz+v6xbs6HHzC0YcY39jnTGpCYFK8bGNCl6ZzjQs7aEysWwyhOh8Q4UX+S5eEv6W768iXt0iytyd4boYlR9ot/ItlFAQQQpXhrJoSKlDMJjMU1Qgbpl7NhobRYV2fUWNaX9fUz5L0Ns7h3b6GGH0U3pTCkvwmhIbkdEaZrHchq46nM5neKXp9YPb/rbNwcbO0OyqHBuPQUGokhChQvLRUMY1I2hMWg9MuX0GvgaExbEcTsbaF2fjr+vcC13w6gjY+pQwcbOQfYNaFEJCX4bGMSC1MuMY5RJ2ihY+A9D2j9nIatHWhaR/f9dsXwJnD7ZzOGi41JIcZdSRxY1CCQl+I0NQ0JBUEVNg60E6Z6FwNCHZyKGHwX+urOM9g4tLb9F+sauxr39lMEEheNY3k1DgvQ6loahFOnQ79Mrm2cTkUdPg7E9i3+wzSnKO8nf9cejdofEulN7H+R7pO8LIlKZZaqyyy87LGg1R/wAHynzFBoXdwJqS7h0NDlB3I4couR/+Bqjff62PgsPg2Ub4D1r4PiGLl9IQkaCYkO0Gns3WhTbbkdqi3EbEyyyyy5OQY3foobooboNQewn/AIMutX6bEvB0/kVP/wARtcgoJZawr1jDFaJ9lTEhq1YuTQrmNva9oob2gjsFz/WlvNj2fyaqPQ1cLD0xQCrqP7TTX9DZdDQu9fIxo1+mO9P32WWG3+okEy5stjehuoNNDor/AKEe2yxsq6Z+zje/8GqWkr6FatV+xcBpPk/29M6rHs2AwotaDsXDFotK1bCO29NG2vSf9/rWuvrcHBGtOxhhfbRZcDfpS6FbquR7HIh8J/sY7P6EmPriPQcTyYxosGHdD8RTyh6RI5HskWfL/wBRyWr5PYk/ng5UlGh8nzibQybL40ULtnIfZYuLilg9TXKdnzGv6whjdHyA6EWON/EeL7Gsaj4S0UYbcG2nx6LSNuGE9q0/8HoJGVwMJ4sY8Cpa+hh90KKgQ001o4yvXA2xMo/QQLkWmJb/ABD8G59xFluywZ7/AKxoD2HouZfk6Pkx+jkNyJTMK7Tl7+hIlUL+hPSNF1GocITLFLHjakqDUbLLLHcOWNYamXRMo1ViJp+CzoaOjqfAnRnpPeygn/VmcO4dHKkNR2oG2GHaomaL4KjY7Eggg+Y+YaZhCKhjLPoML5NDW6v+eiw7/wAj1nT9i9u4Xbhfv+xvgn9DKlR+mWn3Dkm2LobZF6HwdfSH4E7cc5q7H9FTfK1+OxC/4Syyy/xrX8HI+xl8lmjf6xpPY9xu0vezih7oZUcgH24vfA/z/g//ANQWi1+gV2qrEvbdDXcDBZcUKGPBQ5HO7dLyJP4rljky2hxrddkNLT4t+i9aXY2xpwf+LFhJaNq3wHv0/UIXQjjUyqOULj9itJ+WcTj7o8oy7XkV/kF/OrS3NX0jlJVh9h4N0hjhpWxXbdCgSX6Gv2wlF/2UIpXwbDZtvJVWgltpqmjcQVMpMZ2ajLk6UxXkvRu6e9otpPpnN32WJ9sa+sQy2h255GJyJuz5CodQ1MYfb2hKitwuo1/ZA/H2bKG/cGv8egl/ONSbHb/DO5XDGN0ar+D/ANhuRqVnNHpDktG4tWbJwbGjYLhCZQUx1/g282I1v2zSAR9Lh6HIhUhNCFJw7PUvzbOYmcIN4bXDPSUbv/wFtsfsW7FlCxbAuPf0EILT/o5IdfsFwj/oOaKmx9Nf1S3nMcQPTEXqNqBCf5N9lDDHyKT4HbIatDGRfsNAxjRaouvrQ+cw+0xdUhq2hRIUOGiodDivQpH6Kx+oUNI+Vo5IflexDWj/AIDmhv8AcTVD2hR7SFfTtf1TaupQh6T7OXJyOA5FhbIodDsBoG7fZb4E3wKpQ0JMQoQpcMcUNFFMViRRUlQoaKguT1BtTTKL0fr0LwaMIf8A6GKn9lx+aeC/Bf8APUIT8lE/+xsvgWkHBwew7iGhaFrMotmkMXZTcCNFCxZRUEishIqaiocVGhYqE7SfwOxKavRxHbOuYVwhDVTTFIn1/UuU76LR+TgHug+Sv6htnQ+XRQjaPaViDT9FxCgghRRXjRRRRXhYxliaa9MfSOa/Zo30cQ3wOUfSh9LY+12/EfAuP53SkGhzFLQfJxfQ/JS32JQIUUUVgKglgxzcMWCxqEsmMYumJ/3Dcy+NPQlJHA5tQ2ObS9oX9Qai+j1s4nMcKtC0HMY+6ehRKFFFFFFFFYPC81CTKKKKweaochwtHOMLXOKENuNFlOH/AFD66L7H5OEW1NB2fwcn9Fi97OAoQlFFYuHjUXNwvCxw4YtpuPI+RwbGvd9nFFBnKcBQ20UICd/09p0/YrY489nQ+w+voJX0QXkYblFDHN7LkJovwMctjhw/czuDXT0dR/7nGEPQ/wDI9Au/6c5730Me2+dnLD8Wc1BZf9jIUrNuFc5GhqaKOGxMN2KSF4GOHJ9HWB7/AELOX/dnFHoQ2xzT/g7sPYhL77/BbpDX/NcICLE/0h+PofcVi2wuhm6/Jz37P+QsIXgbhvZRQyxhIMNxRRUGxryNB/ZebLGMcX4XyJxBtgmm/wBih7W3wpqCaJF1sKdtPlDiNP8AAvqEaVP+a33pcm4ZbGlQaC+6O49/UIQpU2NwN7FyIsZUOZZbcCC1DH2WCgTLxsYxjHF7R8nJHSch+5I2vqSEO7Hb7ig53HwNfnaTEv5nQntjDbG5+kNcjxYv8m6+gtn+GJihFlEWWN4AmcSkvVu+xoxBRscW/Q0dwcbAgtWHZHQV1SqExMTlssZY4bGcCpejgG39bYtP9iaOPgRG7s6lQa38Q1C7D80T/jJpr2cOnHkcbBcEFK/oXZrhtDCZZcIscBbhyGE0Xrsoe5zHnPpexGp097Y3k7+y97OrL2lSOArQ2cioTExMuLixyZUx+qOpoHpV7ZwGz7kJSFKhtbtbGFQoN6EMhf0R0VjGlxLDNP8AA2x4VqO6RzUFSb7ghMTLiyxhhKGG9CVFVqCvov0LHxKYYSWJk4TEy5ssbGxsZUFmPk3Z1BixC46kKFxBDc+yFpkJiYlW9+RSJ/0VV1tyXMc1HyOc4OPuGgbSSunQfQhMsssbLGEtzUiSVpFYRTwSZcuGxjGVMLpuuz9AGunR2xG2KkLJ/ImkqXIoNytCdFv9EBTf0D4zcGLPgHwrjyHtBcD2GfrA4mJlllyMSyooooqKKivChYzcOHDQyhPo0f6G9/QrbEFe3WhN2cVKLhSdlvmBxrhqWC1Ppz/QkuboftfQ2MMXThrY5ajyGC3CdFq/QhMuWxoLwV4HDwsvKy4cTcJqBtCwU0Xo1LAhHoRdr5Ceh4Qsvp8iVnD/AKBZf61ybYVP/o2aD9YS08/nFY2dw0LE8lFyxlyxxY4J4McM4D2gpSHo5JVBbD9HKfsWoUoQhbX3ULQno42X8FbtC/n1tZuOf3D1Dd6P1Q5McWMSDDiaGffdf6XLOypYmJlBo7GVRAlYqGqGqKFBRHIsbGWXCweHBj2EovZcN9LEhRYihRxIWl6YoGORi7o1Lfs/nntv0cvDGLsqh+zDGLPY4MY+BB6TBqSz5FCwc1RDV2Ulx224JPYgr2cCk18xQv7L3yVcxXFmxQIUMeDbC/aHsZbYtsaPfobd/wAiJJChSpeheXuFG9CbLl0+RRTv+cQjb4Q7l10ND0jcNlr9c3FIoaUWpC5foUehe3e0IU0INRW7TL9mdtw+5yEggoWPQSlBp7jtKIa95YuqEiobxtDg372PQs0KC3U22IhTRWJdnxLbFxCY5Y24E/5u3f8AYYuKFFi0z9j7lzKGMXUaik1YtL0GtWWJihBBzYwJxyp0PiwjtHQ19FerFfplQWGNvkvEnatQLWgihoSEhjHChlbi0hTqISfISkkIWaELb8OFoQma6LFOP0ad8P5pNS5HIOx77HosRC9iCG2PAYzicjZQno3CWhPxtSmKEGirQh7kSguM9RmVT4E3hCJcISKRVlSkWMrFCQoeS35o3RdipJZSQqhZLkQ2l+DuEJicIam32JSn8xxpJF4uWMO4N945jgyhjE1Ymyg3KWWr3uVJCosQhexIUixj4Y+SrKGhlDSOhKFIqFDxMcu/gM0HKzoQmzQLx8xLVC4aUVu7XX8xdcXIcWNAxlyeg40M4HY4ZwOZyODB/j2KbFKcPC9CByNnZ1Y2G/cFQ3NuBuLaCtnvFgUt4MoY3bwb6EOiO4kFCyU1MXZwoQm5vXZyL05/lrr2+BjHcMbGg0Jz9FYHDsYxnBi7ZyKKGtS9m4PahjFx1DGKcSfBV1+mL6S+oUHWyv0L+S2TahIWLLHivEnvRDf6UNjE2LClChYo2v8AGCFNjfUciyzT/iX40PboerdnKhjDYz9iKrDGOHYxs6OIm2PkY0Qy0fshrGITzagT6NBFjGhfCFIkipWDZeLn1QdKY3cIIJC0diKFmjjYsFKGaL1nzwL+T0/7Fi4GODY3FzoSpQxjOEuHEgxTycjOC6p+mLQ0y7ixPJzSKFGVKRqKEs2PBsUwfCGsflsc3HIUSFGhCEMVZPbqFiqosagR7S/kku7dDGN+5bGGmhLaUWNjihjgkaTmNs6s1RpGtfDL5aHg1ClnVRUJYKGxjZZZZWaH1tj3wkLkUpCiitiyvFDFjlIkHf8AIIS2Wm9CzQ3Q+BhyhEH7GODhzQ4x5DWouoKj/wBYLQvY2VFFCRUlFTJFZNjLi4FsffQiq7u2xwlcSKxQpUPCtYlCctQzvgnf8fsrb5Gtyw2MXFQTY0MY5cPkQ4iHY2haaLB8CDj7UhMVCwuVNQvK2NjZYx2KXI9lPQyhKBIUo6hYIoeFMie8F8laNk4fxzynvYMvQww2OEIRRygxjGIYytj4EHsxKY4+B1UMcPWmeguNCyxMX4DDDY0GKkXSPUpQJYrBSocdijWShDExbYtafi3v8foa/QCHxDDDGyihRwDGODhjOYxoSO46NGxfY0NDFQU0kKxcaknDiyy4WFxYwwwwwxUuT4oXCQihxgkVmRQ5RVsdF4oUMSGa4GvZ6Ynf8WsHbF7OobGxuGKU2PSpPBRyrAIIahrUGhqGW1xyI05CdiYiCxMQstFlwsssuFljeBNjYu2xlSklEkJTsXhLnFDcdiUFihH7jYio2jlfxSnPQxjDYxh4IRQmo0OxjhIYxVCgliD0ywY9MTKEGNHo6WErGz3moUmuEWRjKUO5ZYylRtuajSFCiiihZlhUtmmLNSmIOWgkp2v4himJwh9xY6GPNd/qTgxcwzuFrsag0KUOHpjw1AxjRzG0LxrsTKOrlUyhQZcKPY18FsTLGBtDZX+xtt25Sj4eDgUUUKGcMyaFiFiqhNDqKDbeHwL+HRRexc5ekNlocrBOXJwu2JiQxoUSh6DWhdD7FLQZcMLTYnjlCNdotqBOWLliyitFsKEhoSnItaa2OduUhJR6B+CioWDFg47GziwWZ7hiaaKG/wCGIaz4GVvgcMbKDwWHBjhwoUO9jcLUUdizabOx9DRw4Llh/EsODy2Eql+8pKQsaKxoodBp7ObHWeaIooQXhIkLIy5WoeJC8CxTK93rsShr+Fsvccj2xw3Y3DhQpuzQ8jg4QxygxiCHIc6FgfChw09DDQu7XIl6s0Kk5zaE/qfBPlR00EXxOm7GdDuht9uaEUFASyX4Axy7F34FFYNTFVd/Rf8AB3D7fA5tt9jYGMuXgjhhwcIcGLkUuKoaDicM4slDGMbGvkr0PgLT4MYuz0KqKYmhcQQR4CRSyoRWFbEoQ8FLlRXxLHNjXTXQpLyvzLzLS2f+alqxsYxx6EfWK4ZChnYoUMQ5DUhwGjlBWLGNjFNiXspeiopLRG4FbmH0FHQUFTrOhKKx78DHLryCcfuENUnwyh/AMp/7D2MYxwxlqFiFPZwocOEMceihYUOGah7FLocVVgww7PmUUUUR0DWxrKUVCiihQXiQ1rJLwOXgfFQvBWNj0L0Zf8A0A17yxhjxLYiorDkOHDqFwOHQuZ6HBZS4OYai4oY9DKNsooo3o7F+xKUElFGsRZdjiorGsb8qNR3mnguYYoUU5EI/ON0ix4A7DkxuhpeN4bOWPJ2ITlwSGwe0NC7E6ZX2I6g5Kj3h42x7TQssssuS8lgvAheNypFOstTs7jjscg+GKS7/ADdFYNbEHDGGH8QpZcVgZYyih8Qz9iQtlxXyMSOo5zKxwHJIoooQwaCS4joJOLLLwRQkIoUUVgvCvA5UdfE0sKKisq2bF+WznRaow4Yw0kJRrD9l4Xg4cIWJdC7FyMMLqTF6sQrcUPSLYChRRRRRRRRUqKKKxXiSyWLHKjdCYouEJS80xTZsWmTdCaf4zKF2lyNZZy3Qw2MoWCx4y8HDQhCNvmXGwrY/BxOByE9m8MXJRwJNmahIWVFFRRWH7EvGheFxyMcKF0PnOy5fGDk2p8MoQ16Lr6YWXkl47OuXwNt9tj4kY3oaUVh2dx0Lk4YvBjhGo0NT8xtx5mfAh9DjVtCamioUUUUVChiKKwWNYIXjY4R2dHeNYJll4cxSFa4KRntRYJrCvwVuY+fGhxjhi/kaEJSoorBC4ljlQxwpqGIIasYRxGNscso/8G0WEcChCmnFFFFeCxZ681jkit/qGLw2Jim4RYk2+xKx8/gPJj6c/Y27cNY4YylISFXgS3HI8eocIVy4f0cIrkbUGjkhxbFLc7OKzoooooo18l/hOFLEXNz1FynNy2xvJ/Qn+K1M9jm2tvuGO4aBwQhLBwioUWPFQ8UVDikOIHFjRQ8DiLxUfoaKGiipvwIXmeHMFF52JzcJlliEM5EpH1+IhLZZJPQbhhjY40IQQlDwqOpMcPG4RWLEFk3EJqCm4s78mo2VzLyvFY1iy8HPRcF4H4Oyi6EyzfssX4bsgNcMeAbEIILxF3DwbE57uEryfY4M5RXA49wQ+JuzgLwXNOXhsXkWN5PF8F4qXGvEgNC1sX4KubY5zlsbGOPCyGOFkY4bhRUqeRw4IM4GPtCFTfEGd+MhDmiiorCy8LlLwd5qXrFS4vO4YtFR0Yprw3m+sGx3yfCLHDDySCYuXicsoWVvJnBj1DnUuHKbg+4sKVCHFiwvBlYqVK8jeCH9Ry8vU1CZYisYlXwLKxulsTtWskuYc/04G4bG4cHG9iFE8CrBS5YhZ1uHUM4D7GoPD+ocDoeJQsbGLFYPGs686FDGX5LEWIZ3CYhyV0y5LNvaNRqifrFlpv1A+YbGxji0KcBRUMcoUqGOHCz/AHg7l1cOUVxCTcGLG34tY1DOJWb8THKGM6hYLJCyo1DU1TKdWLJSWfDvGzdOww3LHDHORQghYvBSsXCyWLHHlHOKLHNxcdBeSxY/qWiijuOPOxzoOK0LkQouFg4U6lQho6gfguWkHxcHc3WBhtyoLwVuaFmsVkxwUZyimPAzkOayUtwmKLwTwo1FfgOVDh8GheRCs+ZocWMSG4768T0i/Thh9jLwcOP4k4TxQ4csUONChS4agsOQ42U/CYpeHZcLKFovK4svy34HlazVCLL1HI1Og9VcrsStfDdb2zkwGXLHeFxFixjcJT3LHgo14nKnJ2NkMaVk3gxzUVFwTLLLossvAXqLL8lyxj5x4OYvJFiwootjaZtz2E7WbZqFwj5osY8GONJBcYuhwszl5rebwPf4BBTYqLlNYNSnRZZcPKyyxMWbwR0PuHZ1CjcN+RT9jbLpjVPlZ2fzo5uOM342Y4orFjl+TUOHE5ybKfMMXhoY4TNFwyiiovwuULw3ChiOGTeDhCLw4RqLhcDsGsWJU1izVp6DrixzcvB4CyY4Xi3CeVl5PKLFjLyjhCZeNFbyrBoqEN4WOoQyxS4fBubO8UihSs0JlFHA9q76x2tljfzLF4WMcy5ilWTHYhJZ2dQzjsb/AAHM8ThgRwOxG8kKxjhCzrFZVCUfPgqChwzuLLHlU1nuXt0eg29FZY2m9C6GPkvD94SigsmhC8D/ANFSvJ0PLFnIRclC4ItypuThQlnRX4G4vFD+oZwxDvJClQis9RpvQ/otyj/AHMb5bGyxmcorx4sXJCwUMVsTHzjYixYXDbh4FC4EcxcSQoPmCxeJwoTLzWCm8Hk3uXg55CeaFgqyQ0xw+0VsaWxtEfHI9moedw5y3QvGXChhSRSHCwWDhiGOdZI5HBFSQxwXgvAhPB4c+G4sWNxvBQx0OKLlSsVNTVFnJRQUEtuUuH0MeMbnrxns4CxeU4Q3oZfgpFxe8dQxILDCZyLFuKEORTqHixovMyi8NZahF+JKXccYWd4LBT2VNHOCe+Ru0Xstxwr9sY3HZe8ux4vqJ4uC5wdwhj8VeB/Y0OViEchSQhjEKeMLwcJiOsFKbTtOOIcX5XeLniXklK8VDEJodFIs/Qvz2W5sUazrGhsxwUOVg46i/H9DzBMTZwGMQhjOxZvBJXmVjzfgUuGtQpSwoqvJwI7Qo5sGhjhl7LFgx8DxY28CkxMLljQ3ij6LLyuHUMeLRzFwMYoqancvBjGIQnjeV4bHh1lvFyx8iyQvF0PBhOz9jHXwm5ebGixnOLhcZrKwY8aELB5scO+EghwosclxhQ8Whywovw2M146yY55oQhCKEhKfYorPU9FvRexj8jmZzGGWNJTct8QxlHcNrFFw/qbGdQx4tHGHCjfo1muWJOQvG9DGIQprBYVHM6yeChQ8OYoQoUIUMTo7yuOoQ2oN7GX4nLbqD5FyPaHJsYR1LhQ2MfGSNiaeDc0OXqCiDFBQxiYtA2J72qWu7L7b+GPkVYY9C/0NPgaZeHGD4NDEITFD8u52y8Xi5eFC4EKVgvC4Rr14Vi5EghxzY3LguUNyyivnBQtiLlQ/UIcOhIMQuhxBsp8UA27hbudBSFt0MRzMXdjcexqGb5FFv/i+8GjsUbGMoQovJ4amzZ+8KjiaKYoZUdHAvAs68jFv5wYvC5M5Q5qptC8Bw9uORylCwYiy4uGPEaLDCtoktiavmSltJvlnwYEs7UFENMrzpi7fV79n0sGWVTdbT4aEiN9vUqmOO8GPNfg7hw/A8OIcOOSOxFwWFeZMqH46GMb5wHFwPk4QXOLcIcc4uVFR3LZZ1ChqCiCP+aGFPZpaF0m/s3RHI2gdCXpv6e/k2F96L+jt7bGz2tNcsbjcFf2Ir/NM2ZTT2K6quv8AXjQvBWPRTOuPAs7hHBnDFxJCv1Cw68iLEM+ZeHODxDWxqY1o7FwN4mMQuJoq4b/BMcFj2cP1BB5GxqrrVEOjeLV7E1LtaQuO7Pb/AC+jd9Kio9kx75FyTEHnStr/AOTUlX/gRypy+TnrpwY4R0McoQorwrx1FFFQxqWcmIQmKFki/C4uHixwpcnqDGexgxcD3kYwnqXuHmR1FeChjm7OMY749B7mGLW018CrO1LGNrd9hLGfAxeTQ68Q5AlP9Mk+BS1aVApPjX+jf/8AQuKdZMawLNTXgeK1DihnUN4CEIQvCxuLxZ+obwcaFgxjPoM7wjF4EhcQ4cOLGI6ysooYtH7k5+z/AJI+7EX7HNbpj9StFM6ELTu7uh1D7FAuVdoXVX2F6k23RqfikLVfUaazVPQtMquGLKlQxqV478KwWKYpwLkQhC8bLi14Hg4sQsLDQ4NnOFxg4uELFv4xRYhFw4SHpiwaHFR8nCcT0pqLQfQ+NltD7hpT6HdfBHFzvRpUSb6K/AnpMdQHbTKm9cbQxtrix6Hh7OM6j/2KHkxoqELBnXhqaFghO+Tgq+yhrw+xRYF5K8TxcLB4GNHA6FdYdjh4GM68J4ItiQ4/cMagoxv8oWS9DETKZhON/wDRPuX/AEMsrv8A8G8fobXa4D8lpXaZ6gSpF3ovZDa//wBIvLaeiGN+W/8AI5KHDTQ5QjuOoeNTUuVhxhq8eQTFCFj3Kw7yZTiyy8lixww8VosTlwx4mOHGxSXbhl7EKhIscoY5eUBoQ4rH/goJNbMPoVtoXs0eyxp3fQuwfUcrMJqLaiffbFpL6CLyXyfF0L9wxjhYHioXkWCFK48N8OEKC8vWFDhe4vDUqXDsY2NrEQvEuP3iqhQ4UezfUdRVQ5KJudqP/wB0Ezf/AB0cCjg9iOi18gTE/hpWhP14u3oStbtzq+iv/wCRW12Wi+71u/o+fVyxwhQ4crf4HcVkmxuSwcJ6ExCEOVi8VXjfErBjgx4LOcMWOzl4MUXQ3kcUKWoam4DoQQW3hNvgZnpNGzzIoh/pc+TahFXX+xUptv8Ag0trYjCy4sxihyQmZC8C89y8WUCEIQsV4li3CFNRc8HIxwaCGsKdHIznsTkzUKH9zYsKhYsRrBiQfATz9gqr6+mWJqZrtvp8D+tjdzH1cEI/bY5HGIFta+iHLHCFKDEdix146H4bGN7NyxdiEIQkOFCzZbLFGoY2WdlwxPNB4CN2hixcLkUPCjriOxKVDFkpe4c/JyasUu/SsqfShIthe6Mt22++xn/yB1yL0LJwhRQyioULwVk8NFZMcKeQhCgoYvC4QnOsV6L8LHlDY2LGIWDweBtxfAxDFlzgSD7nCWhijfB8AkoZvN4KGNDUo6FL8FY1hUVJ5yhChysnDFoVTQ2MubFm9jg4zs5GqGcBCLLlYLGJTaFi4WKPiLh4pp+CoqEKGVCwcOUIQvw3g+B4M4CEIQsCFmzvH9jH9RcUWXKljg8l2dSQmdDjQpMealQxTRrxGiePWblCljKhQUvxoooWVHUGKGJpiUKChmsVg3lsfhWKGMcOOC4UKLlZjFCELkSlihRRsS1O4YxT/wCc3xhVeNjhYNDRWBC/DoqWNCl8FDgwoYyxZvBChjL3Cwss3OhlZEKWKFhdySm1DKKHCEoseDrHmXFR5HAVnI0LyscIWDihiEL8WofEEdyxwuRhocrJnoeCZYx8FCln1Cm4cKwQi7Z0ULJBcYNnJtjOoQs+TuKzcUNko2PKivEoWDiop4q8VYOawND5hoIY4WdDFKhuSjWCLFLg3wMQoLKxQSwbPUOFBYdnGNy8HQ1HghLGvFqHKxY4eRrFeKpUHKhw4WBwhZvHY/uSYpebGgz5Dyv1KysUPB+8lCPYo4xoaEOAj9edjhZuO4bLf4LhQp+GKEPjxjrBGhjhCYh+Bjg+RRzgioVooYpPxD0LNiWKQ6lnfzlR0McKFg8UWL8VlhYnDwLGOFN+BFIvAsVFy8BRzwUymOioWLix4ORQ6w6Ky3g48mL8RCwaGhyhCxf4DgocMcPEcoWLlwpOsNFjcoWByWIoVPkUZWX9G4YihN+BuKXcfcbxYhzYskLwscrFjGOELFxXjqFPJiFLlyUObydy2IU2hM1Fw1CjkQ5O85H0hrnMzvEsaKPgoqKx6lnA0/BGMcIQsjhCF4V4Lx5QUMYxcDUIaGhyhHcPBQoscLFihcS94KHBBCEbFBCGzcdjNnQzsSEt5HXOHOTr1LgoF+A8ELBjHKEKX+C+DliY4JC5OQpdwsGOGLBjx6LGWJi3F4PZ1CiuBTsYsVRxLYhI6HBeRx3DR35DyeCE8HJwhCisl5eTl1iPAoY+YQsHDFOi8CcuUxCh+BEK9YoVQ5s5HBRUMQsGqhFY1eLgvwGOULBwxwsDyULxMrcFDGOLi9QoY5WLwUNzeDUdwwh+AIQi4cIWKhrUISloaFivG4cRZLxuULJjLhhfiOJMUMY4vIxysGOb3LeKlyhShyxIsVz1JH6KKR3gxIQhQxCxvFJYJ4aN+djlCxY0OFkPNeFxKOcV3kY4Vi8HYoeCP1khQ8BCUELBzrNocEhQx2LxuGaSsF+Ax4LJjlMbFyvFueYsWdYcI4Qxwhc4OHKh4pyx6hChjFhMSFh1Kj/sMWDQzQUKGKVkihw4UMQvM5eKEKWihjF4yi5WXOFLGcyhwjrMocuVDXYzmENCxQoY5qClY8Y+BYsaEIUsqF5GIQxCz68TxUKWMYxQWLUWWIWLLw4nJuWOCHKlj5hSYxz3PMljQxCFFcDFO5rjwOEdxUUdDQ+RCUKHCwXiqGdiyrwuGPBCcdwxjHcMLJqEIU1DhRZxFjQkUMXgFLyUvBUsQoYyh2IQSHCjqS6iiysGNCEsH4Nz9xqVDHz+CcsUoTljHLZmOELxJBSxQWBCxIU2PG1DHLFHcqhQ5XyKFG5UaFgZUvN0PxKaH+MbxQsmMY4IWLGihCF4V3iy42ULjIUOULB5udTeHyKlLi8LlChDDNYuUmLwsWFY1gxhedjwULFjGOSwcMcpxeb4eh5LBwUPM/AeXEI9whXgvkUVQxQhHfhHKEsl5HDLh/hXwOHJYsYxyQsnjebWjkm4SxeJyhQxncooQ8KFFYLkoqRighyjo3BCeLHKEhYMQsV4mOC/AYxwmITFixjKgmLxrNnKNwhGyijdDhZFLHmxo+I1ClQpMQXYoVqHmSxeCFNOHGxTWbh4chZ3hXxixjhCELJnKEIWDmoWCnZYxdlliKEIQsUNFCFiTlscPD//xAAqEAEAAgICAgICAwEBAQEBAQEBABEhMRBBUWEgcTCBQJGhULHB0eFg8f/aAAgBAQABPxD55/l55rivlf8AOPw3+G3luF/iOX/rH8HH4L/Ncv8AEfwX4kx8Q/CtEHl1/AokqeK/g3L/ABV/Oz+C+T53/wAG+b/Kgw/h1+N/md8X/wAC+FlweM8W/G/5Wfw3+J/l1/Er+VX5XnPNxlyubly24fzbg83L+d8v4Vr/APxrGGYcIwJREh8alcn8qpXKSj5M6XBaLM/CvwMJn8+P4j/x2VKlcs65YfgOL4zL5uHFSs81H8r+HH4q4SH8bP4D5P4z/jMJf5SXwS/zH5X4X/Or8+Y/gqd81+Sublw5s+F/Gvz98XL4uXMfA+F/jH8WZ3H8eeK4fisP+MfwXiyWRrFdEDukD3y/ifnb+Ovhf82vxPxsiXxX5X+E/nPhXOfikolcYgcv8G8y4iCZM2QgdwnpuffMxU1NGaD+yHUJR0/hvg/g38z4386/mU/x8yv5Fy/iHFwXCSyFadDPcvxZ9RpLH7Y+aZEzAwtiN3iU8QsuBotjBJTPtmkA8MrCh9MENh6uCJyMuX8kzK5r+EypUqV/FX+K/Cv5zFIDqZl/huWgLlsB7TL/AHKw9gl1WondCuKadwNpuFtpPEQ1AWxuU6YN/lCVsqKlYEHuju3MO4UFUC9MrQWmWI+F/wAy/wDnV/Bvl/MkCuK+QRZXQJ1b5TLq09zalWqNW8GhqDao+U1cxW6ZmL6YebISCMGpSwcbKf1AGCumDgPcEZpmUBNKoiwwMaGqoxGzshIn9PgMP+e/gz44PxV+MPxV+KvxPyDaDUo/qMpwoSy5qekZxbmVUYMIirVWxVrBqzZDBtgrz2CZctmeBxBYhRghmYK1A99OotymGiW3c6DFHc78xp+YCEeUEEbPif8AbWD+J4r8ZH8dfF4eX4d8NFoNzdQgb2XKpuFQlN19yy2WbshUO8MPJe4SZwRzAiJLu6YyCwCUi0v7glOv1cRTTMjSyy1dfqBrfsfM7UYfaO2NCD3/AESXNNMSLzOumAro8PB/CPm/mv8A6F/nv5Xw+dURyR1i7tZPbCXd42seoaNRE1mVYbg6gg5W7iO5aUuAzLZqLV8MxnRCVmA9wvNDLIwISdGOwzFLNag4tmtqUZQW/XiKcExYjAOIlU+oLw8Mvm5f5b/nv/Tvi/m8q1QWxlQj+q49pdxdO5jKH/phxTdZiJfmZe3SNdsR1wCWwi8UQ6IXBTNRDQ6lAItTyuiIAEx3DAtCFGpua86vL1GNDUOtRlhzcuLl3BmMyhixqCqKa0rR1H28Q0zDUCJhjGEuH4L+Z+Kn+C/jP5z8n45/BfFAq4Ipoy/3M7LUSHHcsRbJWkZQP3E1KVX/AJUG/wDSNsu5b1vi1MNGVzHNIbj9LgC71FGYy5l/bvE8zCpkqFba5gj9y5h7yQ6yR2FYlgjh1GheIUWU+rjrJrshqhE0UiZrydkImSJcMS4cnyPhX4X+UyvzP4r/AIub/D3GuRWszDCZ6MQmzxC4qOgVRoQQEdQQwghteOpSLLLBE0IgLqCDWZ4NRkF6mQQOhUzG/dRhRIt++Ia7YY7uDumGKDcLTkVZUaIm+koVMTtrUfBYUOouLJZSxRFRGJ7QUZE5OB/kn86n8QxfwHz6/PfDy4pxYlbO9sVju52jcZ3hMTeVzEGZWuWPizeCNZdrcayOoBlY6sNQDB9EGdQct0y51NOowKYCGpUY6KjLDYiItEMb3Dy3iWKYTHpljf8AcvhOyYI9ktoEVtdR0qCDvhkd9TEll0xY+oDBHvm+Bl/Kv51f9xmo53RFOu4a2VWMzagWuqwQhaURErxnYgAu4uUq8EZtEJNgHGYo6hzAKqVHU9M+nAoeUZRV4g0j+pSaeRioNjUBoWFVUqKdN+Y0gCpmaauCvc2d1Fu0oxd3AvMARFQuIC1b0sHTg/Dj8L/xK/LXwP5bwtS8rhseYlJ6iZQG3zLSGUKUI+49ZQg3hkWvEd2RWFQQO2UBip6Z6eGko9TSJ8RPiUY0B6lQwhQzHQhKyiClLn/ICbjleoTF8vcHjur5hRBnMapLrYYjACm5aBbJWFwNMMkzCE65uXLly+GXL4uLLl/8GvwV8D4X/IfgvDFqH2LgizuKcQLjM3qqP1AP3tMuoecu4QV0Qva3iJSzcILcMrE14mNiECPhmLZQ8fChsu1AlE9Ee9/iVNLG0TfcTgEsMdHGYtx1iASXY0QClNjCg9w7PeYh2yH5GN8HiriSvjcv+V38n5n8x5fgqqGLsB9zIhbAGUIdXDSlZe9RLO5ilzS0zWObbhLQhgHKio9HMHGcxk4yfEr0QrmGCjLoNykpXiAidZ6iCNxBzGslirPmNKEKdbuZwgisEsMIXiW4cYhExUbglQYuW8dw+axmkv8AIfg6/L+vlXLD/iMsi821OOiWK3MwWXQRZ3Hp1Q0eYjdx+vcqLQserxKRKjEIorEsh4g9cFI+EG/ERRjBLZgY5dTA4iXqtR0xm8xetmpU+hKKpgK4KZilh7iBdoDyy79pbiaZ9IzyM44GYcD+KvwX+G/5bxf8Tv8AO1xjioq0ERFtNgLu9aJu0q2UUvuEJZT+o685mJbDZhBtgus2w6xRt+ChBAEpwYw3xuVmJEJs5nbiMFGQjN95lRTDrdTN/wCkMZfcRbE4xLCjlOHSjpiCHRYBEhC4h5VoylcHxv5PGP5l/Kub/Cr/ACsfEjNcMwRzhKWIjMgMtYlSsDyzKDXUXtmfXcdLkuZrfiGBkQIGYCEOGjjMTJKgPw2ZiRCIVMktlhTHAGO2C0XG4/LMbDohFJcJ3NR28upYJbiLxGqWGsoxop1Lq7hPWC71mI67JZLly4PIyjOC/kH/AHszPzeXhl2NI6b+4d4NmQiwx4hKm5tUI7hnW2VKrEMAlRDCHA4s3xWJUSJidS5iJGGDjerIZpfppiU1+8wA/ouYFja1X6jrLiBdMsVLF04ly2XzIO48GLuGIYZ73ZZbDg4GXGXHd/8AFfwv4L/iMvC1efm8dcMTTCM3Msswydy8tJUobTJmssp2Beok7xHpvaBpO8MUcZZjJogxxBgcP1xUrmonJjUdROC0ajJ4hOMdMTNHQqOQusy8nMU0ahgGo32lRuVLRlgLHcQMbjyAWbmatFL9MBBr4DL4qVDl4PkfxH8y/OpR/Frg+Fx+DPOzAiOO47bcstCqLMsrNlAJdL7PcpdHqKpfR7lYQKMQwIe5lcDNQ4xwXwSp+uHh3EibiTPmYYSS0a1G0gP9mdZuGaGESYlyvRMG3AnpFgV+4UMunZ/SojD1UHhRqHzvgIfO/wCA/hv8CQ/A8V+PP52PGBKCpg47LQV11DIvuZzGi2Z4crqULgmOaI2WzUPzQXKia+AtB1AqDOua4Llwjw2SmIxyjaVBBjjHOI6OIqpKngGMJ0tP+pXFEIqmICuzcaMb2lr9pUzE10oHk+J8Lz+G+WC/nr4/v4Z/gX/BfwPLqOt1CYQ7GaZRYTHm8RbV3N8QLN+oiHBE0VUyVBg5gOA+FcUcISuHuMSVEqDgIFai5g4scSaYms1UaCpU0sChIwYgJuRj7zqNFqXm9r1HXZDZBbcQn6lnBqvsQ4ObfhfJ/Ar/AINnNfx74Y8erVLjStFgaKl92NsryrrMxLlbiN3FRdERt3f7lYfZmJwhKIECE/Uo4rl3OuK5SJKlROFOCgho2TMBmsyu8RBGVl6uC/4iIpW8zBRJkzDCvHUzRG7PuPCmX46azAVWPZnuGeBl/hP5J/EeWA2/w2D81+D+aKiSBgMx6dVBa01LntR0TET2wbrgE0Of/UAhUNTRKCDMCBA4O5jlj8C8PDOePMQhdRGZDDywsMZ0PZquE8+VIoQG3eS7Pcc7GsRVhqGhCLYyYqLPcxYUS9DEwwiF6gncCh4SLLg8X8WZuHxIRmv4b+A/E/F/K8rUv555zwsICheYs5YUimX3G3WEWZu5TInq4PdllLYf+ShLnbZKAgXrjqiqlVuDEVYyq7W4F3KSm4MGeYweHaJgi2GK4CZVhj7MsMCX1kmRKDhZHGzqayJYy6+47CDn9ytiKsv1USWt3GVZxm5SLaPEQO4HKRBQ3hlMWC9RRoawogO7sYljVA30wbJqDBh/Dv4X8b5YN/xH+KwPwPwxUUQiOMsDvfioU3TC32VcrIar+0T04D9BhAUBBE8KoBkSopL7iP8AYGT/AOktfaoNIDDkKRnSKjOaqx8rwR4snSPVumnB/wDrCgXZa1f6iz6C8xrTWtjZZXj++QzKWyBwGdWGYRB9OyEUpcoauEXyVBAtHULO/VSgGIyx06SWKPkI13L0VL5AHs7gzBuJTmZ/TABLhQ73iMYoqHBCd8Evh/OQ/APJ/IfkfB/MvK81nAJWVXbMKO12sAvmNW293FbvKzqiprr/AFiLRtzCRSff7Zi3FPW0+8VLs1TaQVjfteImiN2Sm0DX2dSms58zJ9CCYCCQOFm7lzCNEziUP1Awm6y6hFS04by9x6QWWCoX0/cP8YC4LndIsDDzaHEBzZYb9OoyOFFKmDM2O+Jgnd0wbF5OoSEMZmeZ+U9RaoTwxHK0Ex2Jo9BFaFpbHlw4Rg96pjUw7I7mFRmRXT7j1A86DkgyyXwstg89/wAhaTnPwvk/I8n8h4WVph3jOWlhqO0o1L4axuJI09zfW7SpchFv6uz9EwwpLlitiQQyode2GCh8HqUaXe/MLNBRehJl00lbRtQLzsMU3VSigi4CVBlBi3u4kFjMRuLDbMyZGMQIVA1GSwhYoP0WwRAJ4WGTQiT5H7jlKl5wRAWCCrfPQtfTuCab7BuKhd04NpsH7QNQxan6mOiO4cRXNuXozJmAbmCRqpc6mmoVuMwfcvtbuFJ2L7lTlANQTei5ZwQlDCoRl1Bg8VzcG/zX8kPjj+Pf8J+KuUC49r96bgVULtZt4zFZTdSgQJtGTkhqd2VpjUSD4qCui/fgjSpfTp9vmLXG3UDcx1i4+h/VZWLX95iWn9z1yhojqoE1QoJLmfEfgE4VhXUG7CNqnaFYArXoxG7cIvAr74VlhMqhsqULKV1Y9hns/UcG6pBKl/kbQuGlaYNjNiH1/kyZBCUtwz+pYY21ZKI1RRg28NcnwfgcXB+F/wAjEPi/wr/DfwfhczHm3ELX6lRv3BY9kKJyoQZwamemibvHqGCxdStXOTCfh+1AvpQBK5qrYKzOi+t5mYWzpcFhYOerMFLcU8FFGH1BCWUwGJ7Sddx1kT3UHZExERH2YNu7hrhLgqWJ66mYif0zLiLDR6RDbVX3DC7SUdtsw5NsKkLRkmPazgmtIBXwwBPHBwcvGYDCMPnfK8Hwv4nN55f4dcVxUo+QP41jFi8IBnjohCvWAqMBj9hi8pamT7hJg+4wBlzZq4AvQS4Ct/Uu54NE0qKjPuuiC9TFpHxGdJIiZQSJcGmVYYJpKfgqAmb5vgBWobjljMUcGVylesQ/cp8v0TkhqwD3LJYfdk3a12MRkNZNWHZgYO0ZYRHUuuoyWdQoV7wX/BLoxTMrs2GMohrxM2mEpjLt2xqq5g1UMy8yz71ESnavgl/gOKlcnxZYeALBh89c1zcxwfB/Ff4Asl/J+b8HkH0xhMy7Vv7YywvqJLnP+1KoDyYoqsDCs+Yq1E4Bg28TSwVKr0YLBgThCAmwFraRCh/3/sNbQ5p6QwLN0qQQKHSCQ+pnyYuvEya1XcoEZltmLuPJxE2ahxzIxho0I0efNNRkICwiqIq8XLNxDF+gsie0EbqdEMcUm6+TkjXOZoe5kXChSnHueD9nsubfAyiKJAblVjs+8RmpQnTOq4lhMYEZZUlh7lNw3YlEGpvVipYZXFVUaK/83FFwmPh3ycWy2H4NGWTKH5qr8jf4aJUrgPxvFx46jHhYbNzJFbe5+6iVtbbubP8AkupWyO71V/cO4zdROa7GVZiYLI2SXQbYYgaX4JjhLoBKKVUDs9ynUvI0QEg8DQzayURYpocio8F2RKVmMBRniTXLMauaHHrhuwxopNzdfcIClisCDeaPuC3S5R6M2YkKtsFYjqWtxL/YFblnFQKMsQkdV6iKyqgK7Z+qhwoVKDH6QdZmFqXJC2H+yOJWIRdP/tDseo2yiN3dH1K4tZqbHg3mKvBLDPUU4Nx3oyR9kACNkIfA47h+A+KXvjEIcXwkr3+KoPF/JnUD+JUPncvlZ6AjgXNEoqqJVemZMGJXZbB6SDWrmEsAmYirPkl1Xm4wFx4by2uZWuvUpNMgFl90Pe2pW8YwdxUCXDpZZWofFR70AEtKoRIXaPMnvyuiTR09eGVmcMBGIffFZlAS9bwQAsxXVG1oqPLlKgLn1HcleEuUAhrpzBx+4kBIrV4g7RGrQ2tzuoJYGItp8QUHCMYpKjUd60sfGIxXbapl3Upzf7lsHCKp2a2bis1CHA3N4QlFhGIclMIdLwYS4Mvm53D5n5j/AJd/J4eGZXrFS+7i5V5CjcwbDaj+pRG0FwW0Tbx9QAtvCD9eoXDMbRupZqhDvcvXXqmL54mtM1xrqljG219BAIBd+SYXBQXtjphO81+oCCP0wDDCZpmUnIU4Mui7uJUWeFT6ag3Rv1LrsxerJReBLMbb4kFJjKJqPrFTZGoFYjoIAavSUGE38EFI96kwv6SIu7vKi4IgNWVKLi0s1G7brAZcIc1mBxfxPkw/5j+R5eGd6aZgIEcRySBDGdZan1MBfRj9xJajHOm4rEW7i6Xxji3xUAvzNKXwYuAXHVkGjVjVFTthAJUKndCTXAhweoIL6gdccMpECBGmWdQm/RBQgPiIlYMpcJuGZtiOwd6iVGbgmy4qwkV4oWOkNkdq6jwrCbwFdywHWi6mT6HA7GDYQzyODfN/j0h+Fnf4M/yn4N/C+L4WMY5lQmVwEJzhR/UssuMGPCDadAllep1RqI1NQ4VLTaGYF2BCNI+Mv4ieI6YgCDkrMw7i9IdaZdRCpjLQ0QOGO98iKlL4Euoxh1ALIBKlsIqUxhjaJqCWDEwNMb/BxIWmJcS8sRdAUF/ohH7cmmX6OgrczddMvs6jputMZoMj/UtnWYcEuE75x8T5OSX+B4x87JfB/J7/AAPHmMfgSsUV+0fIwktbRU19kucL2Xi4KBAG8iJ+6JQSPmncUHh+nwiNKL7U+i4nZAt5ZfRUMiODGINy8cMYcNT9SjGWbeIRWIQgSpmJE5DACnmIus4P6l2DEQ8ShevK1Ud8rE2Bi4KlmusBc2DA9S8zIsYzVVAvxDk5uHIfhNogoEPm/J43O5j/AIryw4odbzcK0xFlxLf3mQsJWskFeQQXTiBXbeLY2dBagnWiUkpCARHBinEE9MqLnlSEvl9Isyx4HPEmJRKjAcFROEjEkU1l0iAFXFxatxplv7Ir5TFgAvEHQ6irtS9Fz7GJUo7W5Q1xqPUy64IMuMP4mfx9/Kz8FfxX4vIBZVbgwS44ERaVnODBb/uMG3JjBejmZgyjwCYDiR6gogXLcGCKynjg3WonF7K1xcsj7S4NnFypp4E8jgenLXCREWPCSg1NWIIVAs5ahVfFwKz0QVfOo9dkQaPL1UtlqMHK/wCxTk3qMLYS2DL5PgfnflefhXN83yfN/BfN/mfgLDqLjvtWNZiynnL0fLNSs2US67EIM2rS2DLswYcSDgqMaSoJKYx8UjuPNBu2MIGXCRHgZhXcqAwIhKxyHqJXB3G00xagaomjCYBYNxyx/qMUkC0s20hTWG9ygoYrqYF7IGtMcG3HUzN5GB1ibdDDFkPgQ/BfxuH4q+TUo/lZlvGfx9RiF95S5SmWLxZ41FhRplAuNZ+EqYd0lYrQJSqviMF8QJUqJAwSiJFjAHgGLmG2MHMsLC7lzNQ94EgvfCBBbgSuHheRjANvCtSgMxXAJmJGh7iQPQkuUthWFAuO4sAektUxBqOtyxtvcdqLYq5mW9fkQqHJ+O+XZD81/A/Bbxf4n8jwsY82xJcphCchdmPMiBeHayF/dMElgKxi4TL4dXMPphwcRIMUOXhZRK9SyltnmeeCVKKmPMzxK3EswsGcFQP6giUu3Vw3DNsfBjGiKTaKdSrGaMStKNkdZlZlC26jE+RUyXo/yGtwt8Qpq5a+iEepiH2iclSvOILNUmHCwN0lsCoAhCEvg/GSNy2Iw/DfzZj8y8v8F4ZcZcRKguOWaX9EopqpyuoxZseOJ8VMdIw3C0eFAKX6zDRloCK0fmaQCEPgyiYtwTZgmEChgC88NCCw2DbqCi4uYpYd0wEpdQBoimIIvyy8cXFIsUSxYijixMvmMZcFqBprJiWmGkJgG0UtnEEbyRSysUwZeY7iySxDLf04l0NieBagFRGxOLhwQ4PwBFNpm4e2B+euH4H465fk8v4ljwoWviETb8x2wAxBdGCIrAZ5VAMyCswKGc3mUtNUf+y/eRMe+LqEvgtSyJgUygZfDtSlShxgjLCE4IEBPIyhBiWMrmEXiDcU0Zi+SFiDWIvDHCKKZwRkWIOaKs+yZVecR36pVvwVadTK3ys0eZdaNwGMpVAVM5l9RQTW3cFV+9EFLz1L9rUPyg0SYhXBB+B8HgWkgmvyH8JjLrmvwvxeHMxLjXF4uLhR4COy8ufcTX7JkTvLZhUmNxeJQi93KjEW7GzcIt+MQVvSXVHB4UliN8lcPRwXTqVsaPMO9oBML9CErEY8Q7jcxM0tqyftC6DUPeVcFjHqDiYCgyrHUYRM3MniX5uFUH3FicFGEMuFUcVKZDfKXfvlhhoh3qMB1vcQqbmaI9zQlsSnm2FUuBqFKTBjq4yd3hfuDkzeIlKqAsK/sgwZVw+GYXfzeb/DdRG8V+Gvwv4GZ+XXDw3L4YyqiUBRge2W4lbmTDFSlXdjT2S9OZswWR1LIiAbbpFsHh9subeCm+YZITSpdxBWImYpvzKKJiJqSwq4BhWuAtdHiLgX6VIkZpVYTVMOydQXRuZtLb2YWslF/qTy8YCDKZhra6lwFYlJk48fDnFjCtxtFFiIsywX0xL1sFYm9Nkd7mEbzq5iOsH6m8PE6J0DMBgjOrAzAmJFmo0eraP1LI64uZHTKjJAuE9y4mEGDLPy1/DuX8sw+fXxv5rw8ki0R1wWj37jAsOQidLRuWrMJXcGWbyj1Kp9x2mXyEvdox0TM5KseBj5SkuNIzhmXUqCVCRxF7JNwRSo3CoCYlvFpbdy+eDAxPpLJfmswwWC0VChA4NDH4SVzmXFR5Fcxx3X0wIW7BBh1RDUK8ythcQobjuYVTpX+4Bkt5g4cx1lMo8i9MJqcuRqBpSXVWplHMF87Qg1bEslkGD/ACa/hP8AAZcv1LjOoxAWm/QiJnJMpH21iLdXqJeAv6lyll1Efsgv0weIDfdRjCAU/ZGpFLIYfAHgs2YESqeCGJgGBlGI6n0gEK9cKczCUSsx3EGOGD5gK3BuLEEXgTfB0SoTBLDAeTcjixwuWZiBMYllbjuyPdWFT9TwE6g4yQFwxBnEbWuovirZ+4zRAeUuH3uOq3lMGXBYQ4P5OfyX+B5V+NxizqPw2+RRlxptxFLbKYusmQRLcwd3KB3qOZOZ2IMoMuIhNOYaUA1l4cSQ4WLgETxF81KOBBHnCajhwCHJYpFzLjGyFWYY4lXSxUWKLiLcbTGRjA6y/uKim6QtsgojhAilZagray2IhVwZtcFcMQWnshXU3eyUJnhCGPcWSJLx9BhqEJfB8T8F/Flw/Cy/k/kfwvKw0C4k0GB1BbtYfnqNmoQJtqOkLTH/AJL2xFcDSag43pnYMpSOmW7gWqtWvdk0jaYQLLiy1mbNNRcS8EruGoVmYhUITUJUeMcLMu48Zl9S7ZZGFSkply1ixavc0uMLEdOauaZUY8DtmSkTcE0db/cUlgG52kLLmm5huF1hGCNdzEIUx6eA2pZnVk0zuXfVgNx8bCyEOR5v8B+S/wCXfzZZGLa2TMYnK5ddRW+CZzI1zf8AaWL9Ylt8LLBiGH1M7GjBqbzuCV/cWpYQYPB/UC7PU0GNUbyyiErHAwlIsMuGBiSGUajWKZlwEGMo3CPZBlxnaLi0tafdVw4W5aC9G47BSDUQrXh2xPfNlgADcMVcoAzqAl44XDXBh2coeUh1luOxRcsGA+pWALxBpcqbKTJ1fiK4Mvgly/wH5j8B8c83+K+Lly+HnCmceiKrbl3GzK5jTsYrVlrEXF5oJHsmrFMlIGtRoKuIU8zPLFRRcFgdysaqq+oIUqMLl+oxLmhhUiLSwLFlvc6RmyEDdPCvuaFI7OeIaS5ZL3US3fE3FVNp4Io1ebzDJO5TUHFRGY/VCfGoCq+4Sg4gGLVM5abWd7iEJ7QxRNtQXDwgxDq5ZrbsmFqtInOsxL6MFQap3GqRFRI0kobeJS4cEuEH4HzOevwX+K5fwzf4H53FlxN8hh5Y5OT+iAXRFwSPqMIesBWXS8GorIvT3mPGuCmcb4335SjeovdZiDm4FQWmPXuDa0KTvEFiuEfqUrglxIuJZz4mcWG3UgKhIo4SKbIAgKS1yi9QV6Slm41BejMatwbge2NzQjSbf3KqCF2cR1UjiEqd6sVlzqkDUxBXBjOuLYkWFf66hhd7MT3JiUMZppiLfK0NoMQrFwF+ZV6WGKLlNzqrgqS8LFH1BBemKngZLLgriXqYJeWwSofA5OMfG/yZ/C/B+d8s6+LxUfugtY7ShUPSeY7vuBDkt4ybuOg60Y8wAOSJ1DuWzLBuPACrhKhmxlSs1Mv2huqa+xjuuBAGGcvlEqK4Zu9kpinomG36wJeoU9I2xVCBuWM35P1KZ89ZiIllMTRFKncLjxO5lAyiiph0RxcwC1O1SsKu3fUKGyVmM7GhLSWbizcqow3+mFuJaYvS6XUKu1ErCktC4NxkU4GkGdbzLJZwKJcCdAlOfijcE8wbiEV0ndSiFV7S6YKEubhwPyuHxv8ANfwvhl/A/OxlpZRjiiyzAxlOord2xJLuvOXZRyvUrUUGGGUJSXj6jufdAixmam5GGKSt9MGpeocL2YS6YhgIq2d4O5XmW6hGB73hcFoImswo1n6lcv8AWa9TdLrzRu1FrQYO6lC7+lysxceob6ieBZFu7sBcAZWlVRw1TFKVNIo8u0C/3qGP1dQzRyTca2y9DlwEb9yzHnFB0wvxC3ML8wq+M9cECJGVeQf1LmCJq5jg0KPtY0ZuFO4Ahx0+4MuEvg4vi+b/ACX8FmfzvLcvhl83GLUxMcIRZvVrbNjCAe4A24mXS2xEs5xTjdX/AHLlMNztE24IaYMwQ51VkGTEM0NNEMrTEdUkdAxZFPsW+yZ6YNTXwSyYJmagtkUsZmKWAXWIFxGm6gN5icUczE0LqdaxepcmsOvDXiKYiIKvce9YUq4UshqYIJhKTCVMkDTEYcReDUeCGm4Al9ExrzmXB1tiYHHUBRYaEDOrDiOdcELpgRJgRTPnK8RAgKlBmSMhlleiCu8w20r+xE+wnHcIQ+Jwfz38FXwsZcYKlLF220HQRxeSCwqXFLzUUrcVzG+wzC7OAD+pkrwcvbLHctDU6gmZklVxG0zK1DERUGhXibJ+ozgVXA5wK4Zy7g4Ml+Yy0C99QWVDUDVsZgBY3FTLAE8jFyDFxYl5ZlHiFKzCOYAcFiJcJUQRAW56rvrzLn2xLiWmClFeYrAAh6uDXTMlkKxLJTA0Eri6lwULN4/uH4dogO2EDmaKyk3G9zqzP8Wby4Qly4fjP4z1wcPDv4rwxjFwy33/ALGPrigblORjPZMSUWBgsrlu6yxqWKM9oliBpiX4gWBvDlFQmIepiosUaigKdhO1AGbhjPEMyIkSNJDZIi1DWjolQL/+ZcLGkmTn+p3jqNUzxkCWSBa21wEspiUTuYOm5qYOoWQMSpQlxd54LhFKeAs8CxXC1H9Q6R9EJglrBeJiCELZRuC8wzo3M2AEHOoMV8S0qASorzMI0sIPMt11HTKUM74qbBNfcqjVghBhCBM8nN/xX45/DUX4MTEII0dQusnuX5Yu55I3mKYCibniYhJl4GeksMG7jBbg4EuqXQwiyoFmvUe5YGowRz6zNktwEXcaFwmAbgMKow9fEKVDRXTEoZncF+2edYgyYjgRHllzCvq5iVb9xznTx4EKuATqfuVFmMLOoQikWIueKiG1Ufsu53u47ZbpKQgZK4eoaiCWohuC8wGAlSxl0XG2QqwDhb3Uxjx5g3CWxFff1DG0gzLUOGTAeSFsQs4JiHDzfB8z8z+EX3Xxv4LGLrQNwRWBARWVVF1Ar9wtDHuo21BfU+6M3WKL0TGXG0za6nlFF8BUYYyM8Ksx3EakuqQBfDBriHES2MY3c6zDRlsE/eOKWNEYQy2odkYjEEagoQFVAzmDjTid8TC54ECLVxwZRYJ/szRiEZJcC3h0QoIF2qW8QgVcPJCEJUfuKklWoKPcLuU0TohUVJBvqXfqUuM4xNNRbdMVhDgl8n4r/hsX8rDUhQZxoxGF9xZ7j8bjDDM0suJcUgWrFl9cwATWNIqImoG4wrcptJUxhslhOzCsKqatEuxBUFEGzxL5uKYVSwYe3GOIkxEG4jLy7iXqPdFup4XDV1AEPSBDwgVCGHnUWISPJBuX8JkAYraftiL23GARBK4g1wFmp2uHAmoLNzB9VBlSw87maMVPMDNs1EZjVwUssqAZ3qDMsTWYUf7EMW5qCuXgcWMvR62GYYOb/Ac4lHzz/IWXLPFsD2yg7MJcoqMdNTdTLYuY3CKUxaFxghnEsLMVIaiO4twY1GVUtLBddREsmDL2I5Kohd9pdhhggc2Sv3eM9wARYXXAMEJ+pVxVjTiyuGOoTfkYHA4grr4qFilkKSyxrCF3CuhpFXevBqb4LwQ5CtTDgu4GDMsgxC6ivdQpAw3Nl3O8w9QRiC7cJACkHFQuswTzDUeZgLqZSjpquoFLIWCvmMlgQhwcZmfnnnPxv8VfG/m8LwxSgyzHzfQRvBgliXe0DJO+Y4mLjzXXAk+UOLqKKmE1AK4V0yghLUhCpN77dx0YAkocwDDgadSqRHJqNY2Yg0T2Q0ILjklTpHnQzImkZWy180pE4uEWpdcVkVLxLkAzcaTlj7S5FqspkzWIlCUQ1uFM5hBWoFQF6g3A0ZiihU7qDMoOpkxE0woqAwMNioLCWVARgNQUxGXcdeWLbGdj3FiZcemECX8m4Q/4TL4WWtUsvBBRvEA3c0txhld1M1sQmZhhILJvJGoyQtN8WJqo7lWTCKF3M4EI8o1s1AMu11fAyATI4m0UkWnCQVDFYylIhAwixxULSg44qFcUSpUrPCx4XgyVM88uFdWgotA2wUsDFcIsmplG4JWNy7heppeYXBvMHG5UeNqgbMTK7JhdnDIhuyG4Mv3C4NG8Qz0qFUJLuomGomERGmCD4T9kOLh8K/lv4WLiPxkMHlY3VtZuBbxKUt6mbMzbI9sauYpeoCxSDxMYluXcYt9x7m+ep3lhi5yxtgraG3iYBOMZxAPe5QU5NwI82Q3NVCrcXuChD7sYaWXQg5DExXAwiy4JxcWLLY8VcHvgrHKVDLxusR26mFvcX3P3xa+Or2yo2QNX5mFVDqESOdXK9wXD70TriG4Q6aqZprWorohcMdjL4IrahYkTtWUy9TxjLOtGo9l3wMOCX8D8dcfxvyOWLwoJdEYgKlHbE+dzJTqVS5iL3MEo3UM+FN6hpsamURoVOO0QMGzPiOY3a7gISrcXL1NuBhqVVhSJimUTEL9zA9XLHWIzsYwtyniDEuNW5d3BuoMTEE4C+YUohLhRM+eBLlxtLipUYldwPMfzmBwnc0IyUQbfMW8IzFrE1QAYJ2XDcOAtCtGp1GYwBHMZtDBga1KrJKCbkWFMJApZ/UPCBnDxQHCmTuWXqO7KlnmVtkxU2NdbvMMiQ+B+fYqDol83+B/AxSHWA0xGLXxEXQGI2VVRS6m+HLtiyyjUMlwzGSZbYQNaJb5i3liUiIuYUw3uBCMzeG7pmG41WQ24393C2GWhbEmyJmGhzN10NMMKjTcqb31EAqAQtheYatwfPAGLRg4g+YeHFJGXOM1jDL8xv3GVWOXbHKZED0P1LuADEXHDST3y51LjfkuFuiOpvMEa1wXiou41GpgRBsba9QmDVvAqFOuK7gGLWSHWcqxJpTqKmXAPO5lSyl898HB+RBnZM/keVeoMYsuN5gTdC3+oqKjVNxg6/dzxMdscsU6juA7YBCum5i31GfTqM7ly6YFS6tzbTDM1NGXUwqW2D25LlRMVKDcPxChZKQDCpqPTfE2uJV1KVme6LSrbjD+lA7EiCNxdKE7H1AdSowvwIdMYd88BDTbMo+LGRDcEQYrl/MCW+YIIbmbbqXF4NEq4EMpoxAIYjjEE2QWIAhAlQsbjVwZnuOluaXAi1KjlDwxa1NE6qDsgf2w1NF3MJwVEAzLm8MSIM1S+rGEiq2AwYfG4fkr8T8nh40uMi9/tlmbMPTKVLHcRcealmY6WVcLOiEJksP0QXzGTtM4IujhWNzRIaFomC2BZWsrz7jD7gYslhSW1BKm0ubUhrZBvEC44CfJ4hBMzYJs7g3VwBdkAGyVe+BB3KpDyTVAgyp3CFUmJUGbjJwNA9MZW+FTWs/cIjqXsERQ9TRRCa0w8QCVimaRFKwlK3PXgtsJTAYPDxq5dzWVIsFBrgF9wGJBzEkntySgt1EnBMCkuRAbqhX8SEP41fG8x4Y4isU1xXb7z7jk13ESVRgxTXUweKacSlVcpgQ3iMY8VFr0VGppcR5iknQ1Uqs1NLio9y1MzFjKolLNkUZHOY4NwtmKmxK6Rk2XEI6UXDnUS7ogim7OpRMNoHYjA2R1oZcQG4Su7gw0kcaXdsbqiupoGCe2E4pGgHbKcv8o6Xq9GJXCMdXCAICda4cELvg1N12zByR1IGEgVM4lQAIVdyzxPbGXwAjx9IA92kGXSQGFRJpwxOZbMaqYbgVcAuPtSNkC6wMy4PByfA/Df8FlN4Fy+a2jwRbt3GsMYG83FZVoi9RrIrDVDM5UxUv3xnuUQa/JHmp5bmMWWHlAyrGK2FEqSF2QiJnzeIjcLWBMwMFfomouP1GQ7jDBuHtM1EvZL8k2Qyf8AUFvBdQXbDx1BXdZghXPFxkCtGYEGt1BInZKYC9QIEXRBlsZwtQL2+4lavU7n2gmZASeuHiwhpcRlBDEPqFOJVcAhglVdEJWyDAQoxwYDKggGDUQuMI25Vw6cTBp3e4WQHo5xAWFzTcGE7zqYTErwxHOkh3rE4OSHF1D+NXLw9w9E6/MsWIuXRuuJXHJmDEXOYMXOtwVAJrUAAhufLK2jQrhu4lO6lL7jCXtdx+odXLJQl4e5dKWloC9VN9ItrUrSXU8OeomGIV3PZEO9RXwg5Egm4AOnkQNtFXMMr+5a29CTU2wW0/slNDpxmXZf21Exrl3IDxF3q9yxuv1FN2Q8yoO4DHUxiVosySmW1rhnhjL1APBD7hKvzCELgzO+JTRDBAgYnW46fMVGp6MJsSqoMpeMQSCnBfZM+ZXuEzdRz1BVqIBc6fErDRc3GpS652hY+B8D4HyPzvBnZPCN1lXFe5c3izU240KvqLzMhdbhVg8AgFQ+yBHcTXe2KMAZti6mGzcxYwWVWJ9JZzBmC/0nnG2kiN6qakZyS5KBmorOA8EKhEI5zc+4Xp1cq7iauIqAoi69xhMcJeUVWmXuTFGMVFXcMa2e4u0ZuG6E9BBIrqChqlZmYprahD03AGLjUW9TI5lkqF4BKhkfcQWscXQcBOZ1MDETmBqDc7xBKOm5jjeGGbjpJlz3DhmVncOsdwBvDDPGJX9RGVeoJeYY1DqoPUKvDFR3sq68wt7rPw/cv8K5fwcS3N/Lvg5buUZYLjQ19IlVWOHUvIkG/wBxRWbjqXUdbVDkiwR6rMqi5bjEoFUujcve7l12fUtRg4tSj6m22BtjvAsMFm6mWLxG/EMwMGURUdiEwJDjBCDqGroaaeEgKIjOYdTK0zTmAq53RVlUQgo9S8zAqjti5JgSBKgYASATRiAhXMx4lxbB6lsXjuqlXKuKJgldYgJQaJkgrmG+WoQ3uVLsqdQY1wOAyFTUNw1C7SBxXFV3G7g4dxMQTdSrqoRIaSLvmCGCOJiXyJBhwfhfwXxcuXwpRLr25mRV1KJKMtcxnUwzcbZczFxy9Esma4U4D3AslxAMxiY3fLGKorlZhVU3AZh1cDzKw+oVzWJkaNxFZYPqAHcIckEpjI0LJQXcTDHrPUKgqYcRpxuDt7GyVlNQKRN9Q82iKnEyNYhlRBVLYiY01C6dwdygdyi1POLlvjhW7mW6hgJVwKlT6wHS6gQMSpUS8d8SWVMhDWZR3DMAl1wLjDmYpm0paYre1kKWwqUxbKOmXqb4SFXkxKL1KbgYJVwx6JditJCxRKi2PcoMXuoN1DlIah+GuL4vi5fyuVWpc3RBg8sRhEtmDTHW+Cgu4pu4tQ6xFr3E2Q23ACGUUIHc03ApXcz6lO+F51AlqIzu6I7DEdSh3K6QGhhR5gCGaOMQbrxENHCgJVjDlAqKnMRrM7zZNY+LWM9QTayoalTcAdLmRzFq2VSCGIZagLsxUSNiYVMQAYYuWhrTBQoZrEKNwqAJ2mIG1gYlYgpSzo4NwsR3ELgTyTGITzEuBQxqJKhqDTUbr1exjtRDOtQ4V1DUxPoh3caMjB/2CKWUliXmLjQTrqH7dZOxlw5OB+AfDrkj8A4qVXwJF0R0N4C9MzolxViRb3FFxDuNmBKgU/ULhbEvENymd3Uxll0Tbc1yTHGj9SskUM1ueTvixjcp3MXVRU0EDMSw1eYwbncOo6XUAip7jw8zojPO4uWJo4zAssWJlYCmyNVdylR0mQ2eo9mZ7EYKDqE0ZtN5U1FRUsmWDKJ4qFymWvPDuUuLgcwK66malXC+fQy2TuYGsyigquAh1ANTojTznZNmDcRlkqd3RHX347Z4leUKruXKdS9YlGYiSXWHctqCpawq2URwoUykODAIsPcHhL5th88/jfgdf/8AhGTO2UZuIloMWOpnhqqRFJow3NvUpcko25Yr81MoGagqWo61BlqdoTaMesLd1HLDDhxpHuukqq/MKoCoZai6HpBjMBG5QdR2EYtHmZFQqJVM8WKmYg9y2e4zBCKXbDamJU2sIGiXJsxlaoccIWKioUl3PGJ1KGoWiEswFwO6gPHCBcohVcEzwaVgDmADrMMAe5bvj6SmtEa9wDdRy6Y/UNRKg9QMQfcUC1mfaGK+pVwdYnUtOBzDUMyhMXmWcCudm8SmWKqNRqFkVkORlwfjbzcv49S+Vl8MXQI6jevRO4iW8y7+uDdQHcVthUVILeAPE9pS12QM3UwbpZZdMEMpmrinBzxj91wTqHOCuCjG3HdHCYpcTTcAUKMTwiku/aJljpmMhkUGu4NpD0Q4a9sTDVuDINDEUdRL++DK5v4i5SQwmJC5Cs0gEDOpR0wNQDWYblYS4Dq5UxCOdMNcFfDqVcD+rmcYqDOZ3E7jB6SLrVwe5QTtn3g0tktQYie8RNjwYSpTcbcy4gxXDRZEqDRBi3LrqIsoMBEYakvSS74EZZlBslwgwfjn8PUzceFRMhUNbbLOsRyykzEgq9wr3FMpa/HqAsCO5k6l4CHUuyqx3BiC8tqMy3LmZcyoY1mpYZdRGeC6IqFrmbWol8NIW0UcZ4oLkt8RKRKIOKjogyYLMcIawiYABTMANwdRDUptxKVjR5uNRyxwqMpx3UO8tAqrnSSqCW9wiWsQLxPGOAIVwzNVArRqEyxLSj9z+uDMBZY3DinDapi6qKdxw7siLsxmBcIT0z3LWKgQcLcC1TFgTqVXshUpwKVg1gen7YQJqXUFj13MCsjBAgy4m6qUg8HCRL3xfzeBH4cNRVFqxRdXiK3mJHfU8yX5i59xIdWwaHqBKog5i3TrxK6E0tytuohwMSkupmoudHCzuLbClJp40pnj1L1iNEzuNLF8gmzMC3qUMyhYdyiXncUxubprgRcc7gOwmd+PM2KuZGoaqdyjgA3cYvW49yVd7I58foMZp1UpqNSj2xPV4hRuB63C5UwLiCy51fD9dzHibTOYL+5X1BMuG4W1D0wJb3Oo1tZUxcq57lCpWZhLNibg2KywIOIebnqKzUzqG4aWIwt6IgqBfULuZLxKVqViCZWNDDcvyqrPdTqJkbiAGU81u4fA+Ofhji6IkAAW3FIMECWPuupYI/UVqIeKid+GploqW2wXPLUAsJSwIk+5Y8y12s1Fbm8XxsbRjTFhqKotykam2oEE3qA6ghmB7lCNzMZjZRG2Qa3O0zgZSOCDuFjVQsDczTTdpl4Ct3wC3XcN7kIEGZuA+mURMalG8Mcqh4SgJE3mLDN4lVWCDe2dZlOM4gqgHLcYPDnH9wI5SV5QO2ECdQhCBP3Gu5dxpgRBF3URB4tsGMkweGahqXBzcHFQuFtQZgQcXFuruCsemFNSlHxKQeCGBV0lvAFkr4kIfhFy5nlYh6MiWFwduGXLIsSyseInM6kWARiq3xDLHUD1ExcT+4wHuEAiUuGiVTG7iy3UWzuO7mW4AUQ0lMtkvEqCJFUS2BiJdxlW6VwWmoDKxxWIlM7OKphoSayKjSbxAeI3TMmpfCVQmV1Y9QIEQqVvEpKl3wVGa+Iy5YIrK4BcSW8ZcalNjxczDXDQxDxzTCYgZjVyjgfUtGfULR9MzLSmMOeBFQxN7eKogsYhWYkM8kLGYlJwR4l+oWG8Sk3lltVdy/JKJqO5WCmICY3uRYS+B5PwBH4sCSUxGN1ZhccTZoh3bKu4DLLh3wKgwI14qMbJYjrPiK4UKohKe7g1i5iARbjbbGlCahbqDEWbuTjN7mLCBbcCxhD/ACZfqFplTDd1NMwN5gExuCCVxWDwWKJXuCUS1L8TpcDGoSoVupjphLt1AHMSopibn0/UdsMGoirJhqX1F6lnxPcLzxcqVFM8A3cuCwD9R3CfTn2cZOMy3UtjwRhEYEDWWUXi1wjd6zLa0wzHA+4uJSYDMbQ8R3PtFvqV9St3KLuJIqCBs/8AyXwFyPDD4FcDfxvnv4vlVLNtO9sNDUK1XCvcAHWZ7uG2BcQafNwUOMRPUrJw1O1jfhYCxO4mYYok2JdEDfBJ9JW4GQh4igRldG2HPUKXZK34lVdSyPqCWWXECUWkaJuZhMpiFTvzDlqOmO2DomrFirhzKqHRCfubZmuG3qV5vjTiN7mUwXKXeOC0Xils1FepbL1Bm2ZvjEQ4YZiDP1CFRl26lT7iOoWAmoFEWYvAEtgmiNM7cXVw8zcBmuFmNeYGSmZvhIQxsllNzBU7hiP7uVN3L5YdkK4hyQYcHGPjcuXFhlhEyrWODNOdS1wty2YmXqWtzDycMELgCcACydToZioRJ/QIeWUCKZxwzwSqW7uKDkuIPklFkoXCqqdjmOe4syylxfMyJg2RVCwIys7kLGyN4EC5iriKcxYI0mpc2Sek21VQKK4fuFdMJ00xrdQL4ybHjI4dw07mRwTN3MvAbIBUAm4QYcBPQkphnhqvcTF69Tu5eJ2jKIB5xOo44FXCGnET1EdIZEWiVKMRmV8pCDW5XlBtlmJeIVVLXAXMsq8MTOJiYRxDk57ixDi4Q5ZXweWNxotEfzdq3Fui6ldxTUVdlxVBplss3DncOKKqBuGqxGyWwQTwst5hMhw0VupeMxD1ATPcoKvuLsMcGOUpDqdxHiE3mUUKg6Iw9yzNvc7EFU0eorIS5dcUOpqvuGSYqpjcLkuKUuakBohg11Bua1G63DKVKjuiZNkUWbiwHF4ja4whWIYqMUDi4sGeNwymGBUJTUCBrM3Y1thXUwRtl3uajUxKYqu+FNkrOSNQxHuyY7Y4htBxLl7mAVYsA5hD1NdTZPtGK4IZ6v3Mkzepqa1cKrW+4AoP7isIwmtoerlghyMGXLi8McWkZcuGeKP9jBWWPURQbTuINlxjkmBndLbjzDUJtgaDuop3ArES4ajqCG2HWgmFal1KGA7jVE2Y/Ub6YPcQ4vMVOqeFlXmuCoJi+puvEuqjWZTEXzDRCWZm49xzK6iMsRs2QCQ1F6YdTWqj3K15MBajtVtXwGaYsSy55VF4lkt3Mpnvh1r9y1wbuMYNcHufuZY3cTOsVCu14DcICXmpeo3uLL6dcYXcdQxN9xulIil7nnMXJDuY3/kXSImCIQQoArnDQFzMuY8ke4lWR+o29alhmDQJWk7lJCWhxMMMkuptLEbrvu4e3mhnc6c1mBwiHYqIZZB7mYcXFmg0LZmpsseZjSLAlEUr7iIyZXM7EyZY6mDEZddQ3cdRSODBG/Ef7TpgGL1O65sUuu4p3AU5+pVYsbiy+oAOITeDUoDTFRReY1pjjtJnd4ILZCqKlAMYs0ZhW+5kYg1MeCoXXBbhufeKKXmLC86h4WNItSzCWDLLzFlpctiQJFh5ji4GohgD4IFSrLlMMEIYGp5xLSDLlv3LzFJfFPUS2MUqDi65HcWTEqhRqALzLOAnRLz9TXU9RDEqLCsy8Gr1Wp0OiK2UqJWEuUj4uUai1fJAVcu/iw4CyjNQO2AuHKRULL/K7ZfcUG7a4PZFqftFBh5mSHDE8BmSoLa4mD1NIq7ijUcdzfkT6xNSh3meVk3NqvEcuDiYbJbL+5i4QwahWGEydkW7ywUnooqYytWM2SUw2x4ShUdwpW6hQlY4a3NRmJubYm8Lj1LiQfcsZRMriEsO5ZFLcQBJpA08NXmJeJsdxHEEcqSWTKfcwKZZU9yqcw1LJ1uI8xTtqXCtDxbnHwvEXdwdwq5esS8NVEXhjnam9y8mp2OXxNMxO81KY3GOPqKPf1uBKmN5l0yzzB2Xq5Q7ggtR3KMJ6yEWIfBhYhWE9Q5uMBSe18EzMaWvUsPGYzQ4i9R6jhd5igymQg1bFWodcGG22Nb1wv1Oqnc0IZ3Cl1wXEWNzPmZOZ3+4c3USfUNb4M9Mo9y/cumWzcWKna2aRZ1FNMQV1HKViISVZ2hZ9RKVMO9mJe2GE9zWOmZ10z3KvRMzJE9RHxGyWX9RfEHcP6RFXBimM8NuJQ9DxKZVssiIZkKEQsWBgs/85s6qblbrgtqXLeMT9y6czJnhLqF4tlBxd5jRylCI2TSzpzF3wMsTilj5mKq40SmJeIIZhfcSl3FphtlK3cQTTdSxomYzuCdOCsQR9MOalEqazPpLlsyFUYPMZVnrxCq45UbjpuNFfuXbczMZ5ZZtBLhMFwb88XWJeajqLlOC6gtIHiWaqGW5pGbuLFiSgCxlPEp7IMt1eIU9zYBZYdwqtS+5lMUxluIctyqYuImseJcDF1HMO89xjwNx2qJa8wu6YJ03GqxDMr9kB9YlxLEjSBm5iwYl4B4E3UXLPDupXfU73MdkoZjNjNmCAQWckqKK1HDGWeYVnGIHqWLLSFjW5cZjxZHVBAz4YLTe5u59s7iiuZ3LWQQ0yjgjioryJVsE19S8GYojnqYI6gkxXClkspuB4xBxXCwwyhtdOo+oFmIUjqqmFhljDH/3mOnjuRxiDmLLjLr4LIwWepvcxT1FlqOGsyxu42ikaziZN9eIsSupli54nBeYIdw4SVW4DqKXUBQuBe4HqFQCYBNmPgIKLjGvMVscrwymgIuragpMxtFdTX2wbufUoOp0qdbeIbgorwUXFjEKe4NkZWYeoyox1LG5jXiJg2GY05uF3LLlima4VMVmW9TO4aupbcDsh5qZo7mjC3fDY3BoDzUKgku7mO4r5xP8QYRTzLLwZmZc7lsv3LuJghG/1xZUYYUUGczBO7NzEbl97NTFSXBxBzLy1B9Q7C5ZX1HeYxwnGYqTQi7qZQWZrEWm4+J1YwLQGIQhpgAKfTudsG/uBK4q3cqdcgA6JAOm1zMrVuYUbIrcCrFam8eJRL7uVM4jLncErS5bGGVcAli8YjuNoYDN1jMamUVDY1DO0BqLLZSIOFjMYPqPgxheIYNs8T1wvuUOaiDYagDFTtKXAu0tjNMz1xi4GBrNTep1Q/qWeJdSVqUXqUZzqd0VG7TEpbl91BG7gmaguLqEL3MjFRHxGjhlxyuFFiuyVlB0lwQcxh1i/MzdRw99wi5SDXcDWp9dy71MYn3x3L8TzE2DUYQG74HD1mUCjU0MKWWTvcKyQuBIX3GnRBGOdkupthFVSyxC1Ve463NS2ohGGBbA3cb7M/1KV3h6GECOzjMXnqGD1FVCuj2wtEJm+pSvUR1E1QfuJQE/uMDV80rcOmp7sygJ+56moUx0I8uJVQXHGkzAhLSM1Yz3cUtSoOQj9lTuV6g+ag0uU5sJ9XGypubqoWdcVXUOGeESH0y9VeoKhxrLe5hDbA8xHJEzJCUdMZi5lbcb8xuNOv15jj7MQl5JQ7uG6vEpiep0kc48RKIsOMFWYZekgnR3EnUzM3LR88XmpRnifuOfAll8XKi1HdPIqbme5R4XEO06wwQJnLwZZlqaYuhC5ZL1LrgTMET3MS8Sq3CZ96iv2Slbg5jSg7mBsQal7giXT5hi3W8WzfKw/JwRNPaqylcxGLocxcV3cyXG9wElxxUxZSCjDeoIZLuWtTWiHigiFSnZKHXcsFgtjCjCViXbCDuXvFT3RF28LzCdNVLzMSrOoPU/cMd3G1y4g1FeiKOppeFhuF9MQpgRcxWHAMG2a6ItcM4NVWr4bBMIKdRuCjGNW1L+o5QYcXwEzCsMQpGhLHUosZaRC6bhMIJLVqNVTzRKCBi4AzFzPuWUT+pYTFQdwq8xw5gx7Eg1cu3EqoglxXFxxoCVN5kYJDMDIkW8w2Q73FzBhqKu5du4mkuJ7JsUy8tsy9EpgkBEIjct0xp5jMKnmLuIFANPsYg1iWS5nlUMsuofuWmS3cHEcUuJnqi7l31KBRKL3FY6I3ISy+5myDCHEDM6msXHE6mk9ZeahdEAAzC1jfiCy3bFuI4ZlixbbiO6m6YYmNkL8Sq+mUYqNIB3FxrhooF3HEcmsw+pTMUdx1eY4KvUeY6I1URUW3U7XPQcQ3qPV0SxIM9ctW5l5hrEcHTNeK39MslqrUbrivuVHLcUISNSyyiJhher3xZ9zoiXqUfXAxXZdy3vMrtPBGWmW6iEPWp2ZmJlHUKbLsmdkqu+ALmaXHGNCYINSjvEUhzm5mWal53LGOcFNVqLqGZTs6hU/czcT3cb6mM+IM51xWo63C16lQrFnmPDDR0vECw7LCxO4p3MnidrY0z9kCAlLajD3cS2TfUpBwQMLviy6mDqJZHAR7qNdwWxCXW4RY1APKLFzMoVntwDMYJe+oNlxywKIAXZuEc9QEJX9zNRM5KmbZkndVl26gLmLFHW5dEEsSUBM1O0dy3cqWgVB+oKA/uJV4+oLL7Zb++ojhqWd8CHeIbfUWmokiK3Fd7s2Q+pnNwuKm+5vcsikQ1UzplBGPEMlmIs3m5Sysz9JRKPqFF5YeH9RbgXZ1PV9YjAluo08KEXqFZrhZq2YjiGKSys4msAzCpZbBSXtSVy0QCFLeArctGYuUrEwwtmW1SQTuWL6SUFGIKQKbv4aDuASd33LJuDSYY9/wC3FcAKINQqIJ4qecIlzA1wS2bGZrg4NQfCRHHC1NkWV4bmiKQ3HUahmVoXCrcOJRnxBtmzNY4drCjNZl23NTLB7vXU71FvG5g+5kUt1iAhFdzeOI7hpMRL1FURlNQutwe5Woq7qPEfvUU7bJ3mNz2iu4JAVNjEUZmywUJ1gDdQq1CzTLFVxN7SUXAtqomaI+jcGmoBcrNy5r3AgypqbIgVXAq5jKe9wp3HQHHmXiC1uXVwC8RbhuG4Q3lcc3RLJhvqbCoFYrDBLcSw3MLc/cuoIOpqA3TBUG3X7gJQ4z5l3EzNn1GsWwExZ/VRhUWo3nqP6OKKIpnNVGfWwxU3R3KTCzC08wi1l0S4b1Ks1BTXc3cAzb95hVylHUrX1LhTNGJfBU/qNXCwNGI1eIrGnZKMVJa3MFnqVOZdWItdRReoVWGNVLS2dT6TDnQSjeyEQpcr1BiHruHcyWYxWGLtMEomHCuLdsdXEMGBnol5+19zX3HFlzzTLwsQsTVQl1cGPMpmyXVRtkHGiGCtvg43Nrc8MWWqqTV1AmmbNTOCNl0EGMMpO4aWCm8/5B6hV5lNQjklWQpeuYVlvMG50qXe2G6m3FnF+5qYO4mrlxbhnMoqiBiVbi5hueZL8wohvUAtlFy8YGXlgZ1EzuMYpvBE3rUHPHi3E24puZ8MuYI7GgtIs2faLFd1MLHeGHFDkGeSYHuXZQWYFtWGyOiaE31BgkuNEZe5YsOoYOHaLqVtmUcT7CMxu72RwYMRS2GJ4hoP9iP6jXTBDuVvgAlFdztpmRuLSET29TAivuYXidsxDh9SkzpLQaGS57ENxVqO8dxxvU+0uYdR3U1FzF1AVILu2Ot8LjYUsxcbue52b71L4uF4RxqLWJeeCjFx1uDWamH1AEHuotZTud6h6n1MGZ9jJNTbj7OE3TATuYTAsohFFiIuIuYNQZnjHUIDogl+IKGpsIYcnCoYIZa1Apjm4wXcTbFy2IAFgVN4qU+AcS2MGwVAsG1qJwviOLRWmoGp+iXU8ViMWWeoN4lTcE+kZTlesQ3GOpbHiGWYcqG4hzNAl+4dLixWlmpQo3CKGrhlDBFFhArANI4P3Os/3NtSupgecwLKm73EayQ7jRxlgjAWGcA31Gj1UWHMs4IMFwFMyxUerjI3uAweB7gAbmGG471MzUqSEe0vJRBO7uXRpzLxePqNuUxEUBLeIZVMeO47qF6iDVxlsQ/cuWy9LajFXqNjcvyTzFl9we4FljmXnuXjHH0NkIiaRE86meKnNsNk9Kl1G6IY6mcTI1AQhe2BqoCs7gMrEqxFSyUsGEcGU9eYS/cuCQA14lAVPRFJfc0RNUz9xQJGrjoQttiW3MBFoIC7lMtgo7gxMrgxmVMiA8xcZlzGIR1FZKsDHChudmVxsNz9oFObjBG5fubghjvjIagMsMeMaJfuLodsKuBnJBV1FW+4QcdkNXiD1MWLMcVySiNU4lstRKYxBf6IbhxHUd7wy1o6h1G15ndzPeozYiamTW7jbeopgnSETUDBJnFTqWvsmG4WsV8JBChIjohejL95gVJTkhhmLBtwwULi3TcLuU1uJP3Psl9Qo4XhDUMwf7mSXjufbBUCqoVcIX6gHmd7nsnVMFv1LMwPqFAxFgpcqwl7lYMy4+oQLXHUJW4WnMR+0yXWZ/cBrQzFWOfLqNkWLcfTM+nBhNtsO67hcbbVjFhBlEpLFwrIDzcd6g4ruF4hFuMzNjEHHsWQMztmutxrMT3K8xWvUPuP2uG3EKMMkvhxHM7l0Xcp8RKIkFHKocbldXCHU7w0Q5l1LgzUsatUX9zRL06viGWGY33W494hgTWqgdwu51G3epUaIGhqCsW3M3EqOIbjg19+YZi24mb3Kv3M6msLCmX64rEsI3MDgiqiG9M0GZnCwpmLAmCUlqML+4Kty+GnX7lhMn9QmDfBMZliIlOYj7myI9TNmBnMCG9QvLWqBKZhFeoWs1DzCqlPl4b6WMMNRY1cVeQmpRUCVimM8cRry2kBtmmIgj6iqioKlyj0EQ6Lg864lSKLJbMdZ7iE5kay+pZud5b5lHMotSuBiMRW44JCqpLl6lriOZ1RYGNktoaikowacNMC6OBmo3eojTmPshWKxw78kAMZZecmIirEjta8TNmtTB4bBals6xBjDUvkmpmCZEI+hMrhuO63qBLcYzEUDfqVAVMXRCN2XKDLq8zrbFnimAYn64cKX6YNx3qaZ3dwBblFmHqUyvJChBcCB6mC7Juk1fmU5lVVBFe4S4r1mNQxCCOGXcGWWEPEZvrMIA2xoue/AWYHU3cuZJY954sJipQ2mBC+5WC2ZL9sMbL3CwHCSyHuEYMdLGriPcQ8xzm4CJC85h1LhHMpMXqCzHiXOpepcgYvzDiBTK0uOoiqJTDiMagO4xWamKlZjywCQauExuBdxXklKXuAwb4CaIl70Ssbudkx4naZGXezNXiXgLgumDErbnLCVh3MHUtiIVXe2OiqiN1O7lKhTGHiphZtKMd5lW7JbrFBFMFYOczNVNeWHgeBQuW1L6YjU/VRo3PFsMdxmDNQuU/qC9n9z6ajuFbf7hHW59s1uOONNmptu4bN63DhtTsmTDDIcPKC1L74YAEFxFpWtysBQRv3EGJVwKb8wLGY7VggjqA33y14sjUSY8QVGlrplCu85lsoL4r/AKbZTctiMXOojLYpghCoN7IZa4V6JnKDNwipqo/9wqqKMaLjGfXD6Rg4Uu4moLi/cyuLpln0uX14n2HqG8TQagm77hAQ/wAT+pgvaKGuDyD6lr1+p4TqovuLHqoSvdTtC2xI9TXKJ9523qK2LWLICaErClMLtRiE0L3WJdVNQqhg7uC1RDFlyqjpRtllH3wTNEr02QZjxLR6nTMHplU7h5VUKsvUUyx1Zw9V8C2VcGBpJ+u7uCnxKKZdQ4ou4rfuG9QvKX/+xfWZtUb1Kan1xXzHeN1Fhq8QQcNeZdcUQ5ZZiZeILKf5mCBXee5RrMSxUacHcNfUqzjzBsZtGJtFixuIU3mW8kJVRXMHUo4be4y4Wom5mGqnctFliMsnDmJiIwTIiXHfRwZ9QF0wwCXF9RRZv68RSJq4urlIsiuo5hkL6l7Zfs3LtVY6jgMDP/1l4LIN9wh91UOuNOpg7JuW1vcbaKDnuUu4tw6mYYJrzCxW5YprUOrV31FPhR/+zSVZg+vETwadhdw0o82CReYdrWPJYqRgDc6JZRKIuWZfszPOMdRc1Tcyh9JeKmP1PJqoYdzQoyzrJmGMwztj3C03MZlwzpneyYYDjVQM9ahlqWZyzrPmFRTHCXs6niiFzQQVm5eCG6T9ym0rMNI8EK1Ogc4m1QZIVRFzHxZsxIahY8M3Kx+5eXE0zFpgQjvUO8dTqCTq+GCaAXPulOYmZWI3HVsesRY1XDFQuh4eCshiJ6hnlmWBHiOHc0uPDMkELAiglIsuXueyd5ixxs5f1cfFBUVazqXmXW4HtCWp6httZY3NJeYjBKuXqFrUFZiPMdKtw0ZcOJfM2izqUKGyDS8zdzMjLelS1Og7Y3Mll7m1VuUqFzS6j5i+LxjbF+C6r1iPTJRNIGXtZR7DFVw0NjxA3XiH9keBYpN0yqZrEIx5onsy1mNSqkGezDNSt4lB6njuY3FVnGAxLK1wqy54zTFWdxbAylIq89QqlEmCMbb7nsQrrcbxnLCaINwlaqZXEAWJkvmGOhMSlkLlkqV46l0VC7GoEtqpoYaZiZibGN48TXHWHgK4Y0MyU3PZ/YmZUvPDRW/qMqmYlgkNtS2z2QYsz7i4lm4W8+ZjlrihiwcKS4MS9zbBipeplgnUVyRtlNpWIz18QajaDuaOmAplreoldMd9ygcTFwYc+6mtf7DO4PdTJw/si+oYRM6vqI8JN7YJ3l6huyCmG4BPqXQtS4gUymg9yjAzf/Al7yiFioB7LD5jHRpq4Pbeie+oy5E2zdd1LAaQh7nqMoRcxkYuIzeVLU3kdr1LqJSOTsm2MVHUc2qFXDOqjR9RpkgLUMRuCkTAwNwumpRma1HO4Yud2TMrrNynFEcMDymtSkJTzPeiGI7yE1Cn1E9fUfG5lXmoaLu4XWcxvxL8MQtBqGu4lRal6gvvhjqUkNHUHLVwcmWWmCXFdvAZbg1YzO3h9MWglQrE9xN1MxUdE3WEp4gREbvqIS/7YuJmVCxzBwsNRI4DAmKlSNCneiLUzEWNxsWDcRUs8LJvMW7bYj0VDcPmJ1HccNxrxK9EtrdJwnMybgmacQUw1VQD4neOpZbxLBaqpgb6Z9UywVKqg9xy0dERG9DU3QJipvqPc2n/AMCLjqFkuVUVo+WecWtcfRE4y0yrCGtZVi1IgBYPZF7kxTh/ceFoYNPoO4PD17JUFDqwtwI3pxV9Z1Eq7wOmZaD53rAbiESYWGgrBNxOoxIeyMHfAXXUeosOqiVLCx1wXqVSuePPniu2juFBgSdtgxKxqZPEu5hhRiK77lBdQD/+QWi4V4mHETNalUVpZcelxO7qDUKl/k2dRbdzpAtyTWWEUqS2czqL5zZCB5S5bpjDWpRM8Gj1GVlxAsMTCW9QXdGombu0alZv3iUeo4vDD7g5h7QjnceriKm2Yrm2LDUH1A4PQ5lqpUMK0gLmr4tiaqKrCWUw7gReSFuWJ7iK1KKrlBd4bjamTsmY/wB33NaGN3C4Phgl+WYwkz+5nsl3x6X3KrNjNgVi5TAP1ALvZCkDMqXDWNw04TSNrf8ASDuUkgA80blwMTyKU0tpNrUpVhBd7aymwIU//wBiCn/WIaoV4hBy3ZCpVMGFiw2PvuUIwc52ljVP7LAq2mz3zd6iuYICsvG7u5WZa7j1FjLKsonlHYzIhvuV9w9sav1M1i9Srl17i9y+rSVKPErG4jMwsys1C0uBefMEMq+oJle4ipVVmCpQAJ9wXTKomRvcDVMAliaJeH3cwgDVEudUwM8bP1PIeK8Rhu73wTGrlZZTxmCXKeCW3iDHcVYxWqmfMsd44CtDMCDDLHFzMnctpWp4XM7RuIvJGhVxUZHETcWNwKlQqKW9wzojVPmWUxcDZkWyYgRsuGr7iMvT3HaCEOrmLWISlS/WIPEKdPqV4cxpWS+P3HMHzdxKg2jLrSyiVA+M9MVDiBD0wwwZTL4JicRECqM6J3mf+QEACvhASCQeK6jRfsoKrEouAMzK3QSwxqbNGO44asm4leDQOG+ZQWtvcJ9HxbGYq3n/AEQL7jkBdR88UeIV4IXcOJRmXmdWRMyhmJTKbyRqd63K3LJKjM4nV4h98db4b9k8XEDGnxBxC4HXmMpUxd1E3WpYBccLMXGZmNGVqJUe+oCzDq4JW424fUHwHgexm+5WeFFlQhkMzU3fuOo4Ye5cP/sR23H1LjFGZd15m1wYTWp7VAV7na2aLDirhA0K9x3vTKMSy3uazN1cZrWoHtglsXDWnUZ6JcwZ5naUVe5ayuo0YYc4NzQ1D2uYV7jhgbuGseYBm5dEaapWWFhfuHpc0K7hTJLXqDsQAP8ABLB+pbdsMAjDVwufCxSVptl6y215qPC8X5NkMqgJb3Mpjmuj3L3NGR2rmMKEZjWYIOEI9QtQdLm7Dir3MYaUpWbYi20qvJVQs9Apc1tlbIBJgpYoI4Q6ua6n0l4WZRrx+4gcVKg+KmiFsLrBEETM1UprRUVJal9ynTACzFQpf1CyFwyTUpP3G7vgNlbhLmfUClzhIVCWO4wzAVUIDRcSZl1dMs2l5YCO6zwOoy6YuahNO4Qz1Go9SmYgqABjgxC6jXUVe5nzFP8AcRyxS412tytREVPct44e0a4QlDUVuIcPJuXS1lncL0h9TveuBiOY2JbM5qZ6jmpSO49eYvcBww77myooOpdkBULP0RYlrqKZrh3GaWPBWIO3dS3M8DcyyxohrENGYBjgN/QQq5bmBvGEOXHrceugHghwdpW6tdQipga+7ySzmPC7J9SF6iyJih0kfQTQ7CODZNHsieedPZcDcP8AzmIFaY+WOiy8RoZxA16lJX+QzuY8Zmri53MrZ6JayDiPupaBUoSrJQP6mhLKF93GBUwVmI9wfcyMvBEV9RRk1DzG6yzaoBlVDzEYs6lKlRKtHsoxytSMrqWxuVhlaiw13qL1pg4gerxBqWqDBjO4PueuBbl4jEjk5hgh+5crddx1oiSpfU7loam6ncd7uDOpTLVmHqJ7mTxEFdy9OtxLWJiFjNl1Lui5jDo1LhiWzM3+pZ9I8lEXU9GAuFUHiY8x3nECyqhM5PuO3ENnjg94g2mMdQG61wViSz1fuCo5yS80NzKsXAMRHLTFmXeHuJVAmmVlywahQ3LMwW67hWekMNuAP03BWsaTRKTmx5jKeil9MQF8IQ+E6Q4ATDbRUMtulS7esRh5PYPJAFqME7WZA4DtZ1ZYOkQiYVxeRX+s5bzG15jS8Q5uGNsBJUq3MaQVcrcMkbgj9wymtT1MG3ApxDJMOJrETJXUaeGF1HLPtiV5lF7iE1XqahYQTFyl1AyEHsTzLqFOjrcRQRoWFJG6mjcugcBINM+sNG4GKl6neeKsBCoGZgxSdXHwchjXR1BpjTAG57JboI5bv3FeI+kvEv1ibZXuLVlb1FncLNwp1woEZP0L0SqlFwKTuXmUCtsUxkhNbqCpeEIM96mHX6goxIEyFcZoSpi5eeoivTHQxFlpgZlagoVuVVDXcrOJgbJbtL1gKudPUuF7IC2p5E6MzrigdXC5qClgKZhCvJ1LL2zf9RRl4j2R7rapuMjpWnbN2aCdp2SmFGeGo5uxDl52wKbKXR2wwiG8E2g+wY3e1gGFwvksGt4T5ZYBNuH3vjxlCVK4FqJAoLgQlOMtkozbKu2ZslV1DNtQtmzitJUFyxg3fiZYhS1GaalOHKtSkHWPUN7jRi81E3wVq5fUy9Q/0Qck1Zntl5oXwjFhW7l8EuXuOOtxYEVLVB1C8kGCq5RbZXtHR1F88NHDKXiIXVTBiCWu4MUVI4t4CVFFTo1EOYStQ4ZlsD3HTZEtxm457YxLSBSrqGOuu5bWMzCJj/2UU2B3O7i0PmH1FCZvfmB4eF7pixGw6qD3uDQYhV5Ro5QwPua23GrZbYhwazmZrCyxLNTYgCVAdKqO9dGpDouN+WPhiXcEjDmqGhdwe9YqIZqaFiEFNFBX3M7AVQCdxkGARvuwFDsXOvcJw0qHuEdW890XAxovgbqH1CehE32SvUAyocwUdQSovKGDp4LlOG4kuzh9TsdNSrME0aqHm3Ua3GvMY5XiJPa/uJZ7IamcBCym5ZLeDM0OvUGMtxLSpo93BqIRmb1PIITEVFqWVmDO2a6j3DdVCoVk4BWok1LswwCJd5gjYOJeKmBuUeWO/cVl3cVaI1q8wPcwi6l8CY1FIpaotzvEBqYM3JSdbbizUMRu9DxW5giu5tuU8QSqdMWpQspF7Ou57slpcvFxKx5zCvOZolF/ctjd64AkyYn+u2Z7XMFZepS8/wC8N9VKGPZ3BSHKVC4jx1plYXuFX6hA2RJ0Vm3CcWxXuKNHv7Ju+qvC1lGFLuUTBvXoHBcXIK8QmAGwiwGGXCAKF9TrjqVxO5St7Za16lruYF0wE3FsMxu4DcYG4ESU3EwSMMdiRiM31De4kvdQM33K9TzMBMeZXcqVTWeCDBzTFrRfqDjMw1BK1LneIDMDDhYqEYLMgm5FHW4yyPeCO2W3Oo5fud8Z8cOIsshRiIhrUcFTPiJnczYJaXF2xbirm3cw5j6cAYJiWVLMo5Ercb5xMJV13FMk0S2ipjBaomqzLXmPaiNCtSy96H7ZkMSlYl6tlINAi0G5TzNvKV2Sqm3Aw5eoJhuNJHIjaQ1iDX2+JflgjEuguaVLeJSNwI6jghAcRqhMzIxHgdwYgvRKUVoh3BKChbGBslr2AtqEj2t4JggzPCiPq4A3Dtdz1fQxs+vVkaMGklcOLQqbItYll9SoR1qOYhBTBuF03BncMMK3DwzqOnUO7YAQJQ9wUlO5Q74rtZu5atTTEah0EZnouYabl1L7HEqZYYgzXUswgbTPAa3Kj9TUuDVTd3DmFiKZtm0zcwZZDcxNDlwzUY6hAyjwwf8AyLTEzMpR1UygrhqFrJcqTI9CaeBplqOabjrvcReo7Jg4vCsLW83KViloEVtj1Cvq46xBbwQfPCu4Y6ajlxFe6uW17uOLzmee5ZVaJinlFxAHvM1zq7YUXZceM1MH96gC4qwEAzaFkG6IUali3UaYKnmZq5QROqhq25lCjqOg9ylGJWamhqbSsMd0p0+F7gJBbZW89SmMrvE37zvUK9rbqYi56dyZC7KYgbRc+e40wFlXUSM7DEho4ZcRHmCNWOXFKhxEc1Avvh7fXLKQ8VFgZuI36mSKoyoBW5VICokpqH1KXqV3DN4N9HCsRymJcEbc+00isJpuMtwEvFwLZVyqgD6nVR2NRTMUahu3xMmKzAYdniX5vC8y3WoKCRwZmUu+5RM7v1BECXFAodxitMeODxdxubljszBVOmUCwSJ1Bf8AYMrTUXNTZCIb6I84NxlEQ8PqYWgmDq0m/wC9xLYB5jaZYNw8BFYRu6NRE1mrgmla0SrVGal7M/qIXX3cAHuaDEbqFXDZlccC0Ouo3V+IpcGHMs7Khw4n9RHDqtRLljAWklFhgjqDDFdbqXjUS9zBJdsoKqUKa4pbvce2IYk+oXFGDvrgoLmcVxaC9JRlQOD+pXWLm8YicEOybEv3KaZp4dMTbjdypW5a4X4jTv6ZiW8a7gEtl5g4JVzENg43E3HvWWFsJUD61HXG29w4GWfqOCXiLLzN9cAIYAwcYCGQn0mxdX/sQs2gxauWvBHZk4FrT9TM32tSyos8BHbVdxalxuY7ikWRLj9R5iIS1ETSNazmCVd3FMw3B6lDmNkbYqVcVLtwr9ELitdwWbsTG+OhJTgqDwwbYFmK4NsR4Bf2gV1DBojRghshoIVmJmmp3RaPEcsoxAu8dcH1OtRuXDpi4OKidXUDklVApLXEgDxmAWQ+oXBmIcc3GpvFnEBZBN1KnbM9yuKuGGrlDudYhiJlLj5qEcxGVRBnTMqGItdbIBEpmzMXMGEZiC3iYsdmiLRK3NCUbJbrhOL4DwEeE4nC/UIFO5me91HTgalw2myYKSx0VP6Zll7YO2IaoPdzZiDUZcrWo6JZiVuOXMKkurEqIwRA0yoNJNJ3mDN9xeiLW6pla3M/6leyJqr7lmsyszqXSeJfR/sc/qEPdyxdpKxBVyquHGK3cPmGCDmo2e//AJHtXemOswrVEKvEaovcxFsIw2MHVQfscUGsxOri5glVM9EJ5Qm4vXD7xMwuYvc37iaqYlkQlyk0GYybiQQEUsatzEBxzmYQMG57uN5PUziyZYCce4MqUN68QpwA3G5ZlmCPghfqG4mI0bcHmCalllwOuEAdR2k13PpFOiuDBuCPUGW+IosWyWkzcVLbywdy/DcuLZBsvMWYO4FQfEtj0EC6ImSFFguX1mK/LxxFuN1L01FmFTGuFWN4lSobGKWxV43Gjt4OC2BK7xHWddT6YJvIsogVEFwN7jheAKq4MKIHni5Q6glXeGUHUqFRaL6leEAWoh1Uo/2IM4mauCVRJi1NBIWLXcGHo5jBxo4Ek/8AIXdDRPJP84AdkoP64wkx4iYuCFh9Sy1AKKhEI0CMJmMriYG78M67lOYwMxwku8zUt1CJnMFhLZlnoIX3+oRlTpKCTetXKmnuYjeY9WQawyjd9ypVjBxExNzEZlXjyizTDRl2EvUIxJvcGZ1CXKI5m0uLZU0bh4BgxHbmbqW+cQdxAW/qoR5WVLSmGTUe1xiZalgw9ylEWdSgNRFwe4JcN3UHh3GiZsqJszMFk31CtpfqFhRVR7xFQXuKt7mBeH1BGioGgl3cGqeuNm5XqWVBHOILevJDMVL6gWYhpI/aArCsqXiBARzGvEe0z1BX7R4/UCJVq3AGYQBy3Kt1K8jLlvFhogG4V1KhHXM6xPOZQnUrUGWohHtBmWlmuFgd59yojxXqALwSw98EKtuVffFeJqGZWI44PAjdzGx44eV4graEcmN+ZWm5cukiYtlLZgdHBhgjumpjgOIe5RiYMxbgHDKpiqMHqKAQcYlEpFjMVqohtrcsgXCaM4e2fqstAwi+iLS6gjXdS8m40Iu5iVUUVcP6i0MJuMohADSGSQZjg1C96i2xKCoBCi/xqOaxK6mn0T0Ry0zRSS3Uqk3Npm4KIWo+9zNVDMyXcCm98XbBFRY3KKf9m1GkxFcTxnll20kFQYnVL1NAQ0QBRPtKyQNNTHf9QqtQvctMW4krEIYd44tjGiNsEHlTExNNR1H2lsdIaIGZ1G93O/UBz6lMdM6NQtAxKgY4ylcf+TV8e0diQcJbN4JTI7myWXCiB/8A5DbLxO0pVr3FYhM2J0ZZmsFOo6lieIE+jHmWKwi03GmblB4Ythoi3mZ8wNNRQsiB4UEW/pjYDLfNxF1LXmK4uNW3K21+47L4XOKMrbe4Zhe6mTqakCoN9Q6W0i/V9TNx9IdEL1NGyXiGalNJKMf+QLctxKsvUfi4uYM3L3uWfDBHxKzsuZvqVexjqKIuDWiXbmGcP+zXdxSV4lMAWU1WoibIFxKbrMcNTmCrikCamNgRBFuNzNQSXUxr1EhiJbKjuDAneY2MRDUE8wMzOdQMcJjG5mw1FxBqphBs43wGFx6idypdO45g98Y4/UJUz6qJEl/G9MbistTFjEreCAXlgasgIypFgtYGYY8ELqPDqUCZMH+o/eJ3uMduI1id/wDJWIUN1DUJXhKxamLMUylw+phnNOoVLo1B6uHiY21VRr3AzFUNTZzADek8pSCBm4F1UsqIuP7RGinuXjEUvcTzHdS9VG/MGBq29xGcxH3uYy7wJcA6gLMxKqv6QCBFZUb0W3DGKbaXK1HrUB+k6zEV0yoksjZueibc1KVxxIWO9T6hrMvrcCdTVVAPNzvhSgISgcTrX7n05BUMwlRiXDPMG+FkPFbIQCLeJSEadEoZgczEyb4EhUqVxmVDCy4mmVV3DhmGoWY8ToYlu5R2iZiFMrsg7hSpVCbIHGI0B1MeZpO6h1xfF2QwvFsrZLhYZ5sW5twKrzTFmLZp/uJm0huyFGYPdP8AUtbxUc7WNNXGpHD4BKmy45qJBiL1A1MIJu8EQqKHEsT2WYkQX9QDYEqqJ+olbGWLqiUsW86gO6mmvcedQU1NiUEudQuFmmUKlzSNVSm7ZhJd/qJouVO5ka1GNwkOMCPfA1E4q83KNpKwQGpW4lS6dS1dROBZdyntNpkseAtz7QMx1G3HUVYjVsSmUQ3DuCwFwMblNmZ1c3iOMRab39wbnTM8ZhxV6gdTF5iZpesTM1OhYbMmJkzLwOGB3MGVhubEC250zMOo0+oRhvqZIsEDMHEdsTcyEzG7ZXTEsmb3BfEgW4oIw+5ayXfcVY1b1FqUywduaIqGoqRNWxt9V4ju8ajVy2idzQy2JVEy43DoN+53OPJFRPUpPVSuMkM5vqVhzREJisSqWXnfBYdy7isRdFww3cpj/I2Nk8Kh/veJ4IVD0yjxFCLwKNxKjt3mLV3AVGJ4JGzNxb7iQs6Le48c1IOKuJiJco7Y63DXFYwzOLnnNysTJAYDE7iNvmMS5g6eNswo4qpZAODXcwMVxN6glYalV9y99XHg3DBMtcbPELxq5RMQ3Uz1GVNQh/8A8JiVLW47hzUAotzMNPUp8wqahNTOC5tuFRzxuYgzsiXK9xepW4RzGjbxnH1GojUL0sM/bKVqWQc6hLzuX0/bMndxKbi5lebiAGLzep3mNruYSvncTnREzAxczOszSFJsgqsw6pjo06ZsRwbmTi4ZTSCUVK0Sisz0CxvKAGGWBhpQ3HQwZhdjdsTRuDmZqD5JdcGNkR0QghtNf/2Vi1fqUCJKsG/LG8WYjvUBC2PFaZU+qZkDuWtR4qaQHmPqJm+OolPDrUzUyl7jM44mO4e9wm4OO0WWbJaW3DJ3MyrI/VTBjFXCG4ZuUHfJjrhlcGpRw8ITyG7nU9QT1Gg4tXrL3KfBDVkrEqFRmM8Zx3LhDu/EKgTJplVUcUSLTmLpWZnDCeeH7lmhlCTXc9k84N58QDG61MzBYqYZzSRQSn9SuVN8Vm6g1ae6lNzELe6hPQ6hnOvUsVUKGRdRHzCD2j1ipcJqVxmqgppgPRmjMMHMyfuF8TwXG7udVGvaQt5hF22YkCv2wh/pjFPmEo1czW4rTOZezqowYm62KDvDDWJX3GvMu/uYhnxKuWSvXCZzG1lEplQfrgJUWeHY461wKiWQ04hmaMUWCUcLSx0zrh3F4EAlT1GBKJgkTOYYGdRFzUFqC5hKs/ctUK3myawDgah7Id2zcmQlYjUQ5jUx5mkVJ7mW1RZlcWo5fUcTK+FwwRHeJsgzmYp3fVQxWIpX7lmZaJLl6iYvxMs0W9Ylrv3ApNNTRmxKqSx1FiGy8Yi3qCAqmJSg2TDE8YCIwAS1uVKyrc1zcMs9RboSiaIJGq2K0NRHs2UTAuJSXfXDZgIblqVNXUpgrOGYZTUr03MbqJBVIpi9ymiWqHDCBeLb3HdsbqIFPdSrWaDigIdRo1zeeWXv1OowY6YITMKqZ3BUpfGu5WInlUWVBiozFQ+uDeuDOJiVF9Q05hfmPWYnL4drMwAIrWsdyrWErcbqLGCWI59ym8ysUbQ68Sh/qAJ2zE4hMVFnpDxn3NiMumWe4u4oivghhrMPqXRSZjd80XRFDFhqxJkrLtR2paxuCPcywGo1WpjqKWuEKzuWuJezE0iKbuYmpbd9zrIRQ0Mr4blfHCvMxLf3BbYgxXTuJRuKjEH9JevE92YKguErzUeYvBHM/cGeNks1UwsoIFzqrjbc0aixwlUjphdkqv3nSE6jbxom4Q7mNXmZvlmOO8y245qCKBNMG2I4Lgch3EzqWIalMREXiJcwmGVVsROLxiFTg4WGtYlRaZ6jmZrcauP9wy2MwtNzcXTEZizIqYDO2yAWVO0bjMfuHuBym2YaIydVFzqOoJW5tvgacQq+HZ0RdUy3c2uYl7i21s8xHv8AqArJuL1U7gYolV2VEo50RNV5jvgLVIbhbP3OtxWGYk7IhYZ1WZeSuGr+5m1D2I4loW5gkaZqUo/uF1dsvBdwsrLBalYqa1HXUaENXK3AlDCPuXBephuIdM6mMYxMKxEO52XDczeoTcQhmZVx0ZnbiNwuXg1NQtvEdc6idzrMWCuLAThc3CGCJBE9QbxcG4OIrYoagQV3KIkckoqoGOB8AYhK8Qldx5ZF1dypNLeESsUyZrqOGGDEFxUvOnhuysjCv3xEoqMajVdxTHF+GHslTo9y3UGewTHRDUoqJsnXcyjEGncslOu8XMTEam7wrNwut44TiiPGrjGLACVLS6oihXmG2OtTDb3F0VM4JYF1ErmNjmFasxbWX1E9VD6IB4jE9kQm1hqvdsIyr3cJdMAI0tQ1PGGPqHgImI6ZfAahZqxLTCT9wxH7qU8Oo8e5UepUxGPiCEGmLN1MocpEh6IXzCkFlnUeDiokdRlSoUwu+O4bizripc3GaXF2YUQwSIj3qLRczjGJmdVBRCdJRXE3GyF7ghGqik01yW2MCrlnmUEN6ZaKS3DLxwfM/cyyGJWYGmpcrUpn01G4iEbLDaZgcwe4AwuHXESKMcfcL85zEY3O8xZ2jHspDE2MYMQDbGkogzjzMhZDXcp2yiRLGWtKhcZm0xVvFf5MeIoNQ8xvES21/UBpA3AL/kTLGKFh1yaaj/qMmnqU0O/UzdPUTg4bZWDMqNdcNPUz1iMUGI8KtvEWHCY3LSpqHuOuGHUXqHCQR8RmYVwLFLzxd85ziWlhPpNSkOUeSFMbTGCIVNmBG5T5lTLz73BW4+ohNYMqJHm4VTGo+AVKt2zu+oOTU0fHTLvtMNa1KNdxK2dRo2QRca473f3N9Suqhy54VmZWMTdEGDiDEEul7hiZXUyaqO4bUhTZErf9wY7KIB2SsTMoyRtz9YHqaagYnhcAYOBxieQlVNZWWPFkIeMQbJX39wVbAK6hq4dTBUt0aiYFhKz6lF2cV03LOo4dw1KmI14z3y3ytPuPqNcRYQ4SbsSRCNTESwhNRjfcweBoeRcu5mOocPsjiptH7Yw154lITBHUe2ML+ptA6OptczPDuGCoLuGqldQbyTqYVCM7Ru5mS0qLiefFkqMysMdTcovNNQNNQvcVl3cbFj1LqNbh3pj1iaVM5VbFzGXMsmsNwg6xvqVvc/8AAmgJQKzAFWv6hVNFLmE8yhUD3qIEvrzNFUQqvN1M3go5gk0Mx+puzTcF8z9yhiYzHNTRKaupqC24i4gjFpiF3BmUONQ4ZtgqW5SYbzzTG8QZvhyxrzc24Ycvia7gyoYSKUq2KdRcT3RgV8CdTNT1ESJiMzhgwTbgm0J0qbuWcGKQemVdZmCDFvqWXFmXUW4qZ3h2mkuEwwIwoGGE8wMq2pQdwbnjMXc0ix3F4vc29xbqYS4tQlg23rcrM2qWEDUdVc3ZEoph9R1XFa1uXYKuZ0XWI74PDF6leZc85fvELvrURUgl7gULGqermMQvUavcXU+yKaySkyam+YcQ5uG43BcIDUpDhuViJKYTEQu+pWGPealZc4CDM6yyAx1AuXnjEBMVCPGQmDqMcwxgy+HCfSKPfIncNvFNRazKVNRRrGom4i9cODrM+0IbRw7jDN8bbglbYE1rjGC6W3Pa5uVsgp49YsQ+olXzqMEwjDmp0lLjfUXUAMeJUquo2ZGIOJbEADcpYkp8ktV3dRC4HuYMVKv9bZZ1NGBNQ/15gza4ld01HKyZl+2JbHCqBhqGs7gWEVgV0whShdkyxe52xhlESiuoZvWZit5+pSAzZyR8LndWZhW4TZKKCDiCJNpeTjUzAICtzTiP+MuZwQ+okWseWJUXgRXc6kd1iZziXLdQKslXDJle+B474ogEAxluoLghC4RTNrirtGvHA8rMaox6gzdTXDUIe5cUTsMR82qPAKWLTcvcWlSzIINu5ZLjMlhEMFxCQ8FBZWMQ13GdQC4aPqdXUeCjjcdTuoT2MVieutxENQwShS/EDp7gbIDUckdygkBKrC92JUB4x1LzM2scKUXM9ECCJTprgEshLolhxELM8M2grQYJqp3A1GrhbliwxP35lagcDEAhqX4Zm4F1POGpmUMMKmiU42jFBrMY3dBwItyhwE6xKF4a5cQ40S5fXF54vUfupTgIcPgsqPiDU9CaxuLUSdOC+/gNkOYxZlAuEvFcLxVixOoYxUdMaTPepg0TPfDHUy6n6TRImLGYXB7uNggPGozaMn1GvEdiU1FuNyggz7JTmCpa8cF0N/UR5X3PZZbiVUJuNNRQbmDG2Cy7DhozzTcJtiCBiUgNZYbljcuEPNf7MgKxwtwNWG2yEV3M8FTz6j7Zkw1DLY8NU41DUIk1L+5cwxrJUr4m3JAnkMReRjuObhqMcIx4hsnVTRPPAXNEq5VSu7l8rUr1xMaI5l0wdMFdytYhRMUcMM3nfgo0SZ1LqM2y6ufaYGLbgiixL4djHcAzGtrLhupkY/cB0zSL/UpMKQCIYikFrKqWl3uGpV7imYzeUuB3G8xJkwaXEzjMsmMVmfqUBQMETwYmMS7UMxUZb1KajaUPAWkaFMz6JWJXuO8VHohUwriwXcolZlIOo4+oZipYIAOM6Bp4pNpNJs6lNzwIxaCH1AdxYl39YmAzBKJiE04ZjYxpxLdMGJMxIx6/2F5jqOYjgPqWeI+ZcqWagRt5xF4vEOYI0McdS86jGbPgI8BKsEMJE41HrHFTqYd8CB3UGuEl4IWjmVkwwjudbz4gNR4rXUNKXpl5ZkMyrgQqExMxzHxNtPBTcDuNU1GEUNMfQciUYuW1GGJb5iieIKLjqVKhiCQwuZZlUAdJWdRrU6EjoDqKxuYtvcwx4mqgiqNQUq9cYNztKLOYbYeElS3GGF4ilalDEUlELioBP3MTuLmMUw8Du5UKIt9Sg1MWR+47oY5gd1K8XmDqaamah1niMJUWEvjNQuZmTjDuVUYwmkoY9Rlpg5g4i1BmoVrjKGDEcar3HHiLM749xjbxYVg4H3CLrqX7lyrjqV7mZAwuXjMoMC2Kwly8TENyoMcLgzKxhioOoM7iTGdJmLijBw6U4hS6S5beY15hZ/Uy7lB/cpbzDLM0DD0SrYKEEpGB0zVzomxLeIrYZ5EaPTC3gW01E6Qt2xIk2ZixYavTxSpaqGIjasCzuXp3mNiAWJrhJaopYYJZZFOpXAxKxATg6wy0l4jiKsamHBy9XwmbmX6jeghFhwbjLzmeYusQ3mKZg8cLAJGyGpFyLv4HqCFzxwYFcO+HTZHhSKYDcsmyalLz+mKt2zFVDYcYziF1maMxZKyvqDQKhLXMvUBSzxQDOIcx3KQjrgLKbIYc2uCZjqieswwcG89MDE3HbYsYiysoUtOxi2SiuNBh9RJe6mRH7i3Puvg4Sin3BFoldSmIHUBCGIBe5hiFUSzNTczbcAmKu/1FdVEsqNyv6IBeAXCAZTDEghUuly0N1cubWRwpBxhl8Vlt3FqorCP+s2jmpRUSoqyjxuO51MzcrhpubhwqhjLG/EQq4zSCbxadsYrFbwpUJ4uXPMdQzYS5vKxTFzEb4Mckteomp0lTM/UXUFA9xlwqWqe5AaSdi5rDg1z3GZUReb4NrgpmATzEXqVLzLIPwtxJRcvE7JU//9k=;" vertex="1" parent="1">
          <mxGeometry x="903.96" y="140" width="45.04" height="50" as="geometry" />
        </mxCell>
      </root>
    </mxGraphModel>
  </diagram>
</mxfile>
